<!-- Generated by IcoMoon.io -->
<svg version="1.1" xmlns="http://www.w3.org/2000/svg" width="32" height="32" viewBox="0 0 32 32">
<title>arrow-right</title>
<path d="M3.332 17.999c0-1.105 0.895-2 2-2h21.333c1.105 0 2 0.895 2 2s-0.895 2-2 2h-21.333c-1.105 0-2-0.895-2-2z"></path>
<path d="M15.918 7.252c0.781-0.781 2.047-0.781 2.828 0l9.333 9.333c0.375 0.375 0.586 0.884 0.586 1.414s-0.211 1.039-0.586 1.414l-9.333 9.333c-0.781 0.781-2.047 0.781-2.828 0s-0.781-2.047 0-2.828l7.919-7.919-7.919-7.919c-0.781-0.781-0.781-2.047 0-2.828z"></path>
</svg>
