<!-- Generated by IcoMoon.io -->
<svg version="1.1" xmlns="http://www.w3.org/2000/svg" width="32" height="32" viewBox="0 0 32 32">
<title>email</title>
<path d="M16 18c0.265 0 0.52-0.105 0.707-0.293s0.293-0.442 0.293-0.707-0.105-0.52-0.293-0.707c-0.188-0.188-0.442-0.293-0.707-0.293-1.187 0-2.347-0.352-3.333-1.011s-1.756-1.596-2.21-2.693c-0.454-1.096-0.573-2.303-0.341-3.467s0.803-2.233 1.642-3.072c0.839-0.839 1.908-1.411 3.072-1.642s2.37-0.113 3.467 0.341c1.096 0.454 2.033 1.223 2.693 2.21s1.011 2.147 1.011 3.333v2c0 0.265-0.105 0.52-0.293 0.707s-0.442 0.293-0.707 0.293-0.52-0.105-0.707-0.293c-0.187-0.188-0.293-0.442-0.293-0.707v-2c0-0.791-0.235-1.564-0.674-2.222s-1.064-1.17-1.795-1.473c-0.731-0.303-1.535-0.382-2.311-0.228s-1.489 0.535-2.048 1.095c-0.559 0.559-0.94 1.272-1.095 2.048s-0.075 1.58 0.228 2.311c0.303 0.731 0.815 1.356 1.473 1.795s1.431 0.674 2.222 0.674c0.82-0.003 1.62-0.258 2.29-0.73 0.292 0.614 0.783 1.111 1.393 1.409s1.305 0.38 1.968 0.233c0.663-0.148 1.257-0.516 1.684-1.045s0.661-1.187 0.665-1.867v-2c0-1.582-0.469-3.129-1.348-4.445s-2.129-2.341-3.59-2.946c-1.462-0.606-3.070-0.764-4.622-0.455s-2.977 1.071-4.096 2.189c-1.119 1.119-1.881 2.544-2.189 4.096s-0.15 3.16 0.455 4.622c0.606 1.462 1.631 2.711 2.947 3.59s2.862 1.348 4.445 1.348zM16 12c-0.396 0-0.782-0.117-1.111-0.337s-0.585-0.532-0.737-0.898c-0.151-0.365-0.191-0.768-0.114-1.156s0.268-0.744 0.547-1.024c0.28-0.28 0.636-0.47 1.024-0.547s0.79-0.038 1.156 0.114c0.365 0.151 0.678 0.408 0.898 0.737s0.337 0.716 0.337 1.111c0 0.53-0.211 1.039-0.586 1.414s-0.884 0.586-1.414 0.586zM29.61 13.21l-3-2.31c-0.211-0.143-0.468-0.2-0.719-0.16s-0.478 0.175-0.633 0.376-0.228 0.455-0.204 0.708c0.025 0.253 0.145 0.488 0.337 0.655l2 1.52-11.39 8.74-11.36-8.74 2-1.52c0.21-0.166 0.345-0.408 0.376-0.673s-0.045-0.532-0.211-0.742-0.408-0.345-0.673-0.376c-0.265-0.031-0.532 0.045-0.742 0.211l-3 2.31c-0.121 0.093-0.219 0.213-0.287 0.35s-0.103 0.288-0.103 0.44v13c0 0.796 0.316 1.559 0.879 2.121s1.326 0.879 2.121 0.879h22c0.796 0 1.559-0.316 2.121-0.879s0.879-1.326 0.879-2.121v-13c-0-0.153-0.036-0.303-0.103-0.44s-0.166-0.257-0.287-0.35zM27 28h-22c-0.265 0-0.52-0.105-0.707-0.293s-0.293-0.442-0.293-0.707v-11l11.39 8.76c0.175 0.135 0.389 0.208 0.61 0.208s0.435-0.073 0.61-0.208l11.39-8.76v11c0 0.265-0.105 0.52-0.293 0.707s-0.442 0.293-0.707 0.293z"></path>
</svg>
