<!-- Generated by IcoMoon.io -->
<svg version="1.1" xmlns="http://www.w3.org/2000/svg" width="32" height="32" viewBox="0 0 32 32">
<title>map</title>
<path d="M27 19.75c-0.265 0-0.52 0.105-0.707 0.293s-0.293 0.442-0.293 0.707v3.63l-6 3v-6.38c0-0.265-0.105-0.52-0.293-0.707s-0.442-0.293-0.707-0.293-0.52 0.105-0.707 0.293c-0.187 0.188-0.293 0.442-0.293 0.707v6.38l-6-3v-13.76l0.62 0.31c0.118 0.063 0.248 0.102 0.381 0.115s0.268-0.002 0.395-0.043c0.128-0.041 0.246-0.107 0.347-0.194s0.185-0.194 0.244-0.314c0.060-0.12 0.095-0.251 0.103-0.384s-0.011-0.268-0.055-0.394c-0.045-0.126-0.114-0.242-0.204-0.341s-0.2-0.179-0.321-0.235l-2.060-1c-0.14-0.070-0.294-0.107-0.45-0.107s-0.31 0.037-0.45 0.107l-8 4c-0.16 0.081-0.296 0.203-0.393 0.355s-0.151 0.326-0.157 0.505v16c-0 0.17 0.043 0.337 0.125 0.486s0.201 0.274 0.345 0.364c0.159 0.099 0.343 0.151 0.53 0.15 0.157-0.001 0.311-0.039 0.45-0.11l7.55-3.77 7.55 3.77c0.14 0.070 0.294 0.107 0.45 0.107s0.31-0.037 0.45-0.107l8-4c0.165-0.083 0.304-0.21 0.401-0.367s0.149-0.338 0.149-0.523v-4.25c0-0.265-0.105-0.52-0.293-0.707s-0.442-0.293-0.707-0.293zM4 13.62l6-3v13.76l-6 3v-13.76zM22.36 19.77c0.18 0.15 0.406 0.232 0.64 0.232s0.46-0.082 0.64-0.232c0.26-0.22 6.36-5.36 6.36-10.77 0-1.857-0.737-3.637-2.050-4.95s-3.093-2.050-4.95-2.050-3.637 0.737-4.95 2.050c-1.313 1.313-2.050 3.093-2.050 4.95 0 5.41 6.1 10.55 6.36 10.77zM23 4c1.326 0 2.598 0.527 3.535 1.464s1.465 2.209 1.465 3.536c0 3.55-3.52 7.25-5 8.65-1.48-1.4-5-5.1-5-8.65 0-1.326 0.527-2.598 1.465-3.536s2.209-1.464 3.535-1.464zM26 9c0-0.593-0.176-1.173-0.506-1.667s-0.798-0.878-1.346-1.105c-0.548-0.227-1.151-0.286-1.733-0.171s-1.116 0.401-1.536 0.821c-0.42 0.42-0.705 0.954-0.821 1.536s-0.056 1.185 0.171 1.733c0.227 0.548 0.612 1.017 1.105 1.346s1.073 0.506 1.667 0.506c0.796 0 1.559-0.316 2.121-0.879s0.879-1.326 0.879-2.121zM22 9c0-0.198 0.059-0.391 0.169-0.556s0.266-0.293 0.449-0.368c0.183-0.076 0.384-0.096 0.578-0.057s0.372 0.134 0.512 0.274c0.14 0.14 0.235 0.318 0.274 0.512s0.019 0.395-0.057 0.578-0.204 0.339-0.368 0.449c-0.164 0.11-0.358 0.169-0.556 0.169-0.265 0-0.52-0.105-0.707-0.293s-0.293-0.442-0.293-0.707z"></path>
</svg>
