<!-- Generated by IcoMoon.io -->
<svg version="1.1" xmlns="http://www.w3.org/2000/svg" width="32" height="32" viewBox="0 0 32 32">
<title>phone</title>
<path d="M27.82 20.62l-4.41-1.26c-0.515-0.148-1.060-0.156-1.579-0.022s-0.992 0.404-1.371 0.782l-2.39 2.39c-3.811-1.717-6.863-4.769-8.58-8.58l2.39-2.39c0.379-0.379 0.649-0.853 0.782-1.371s0.126-1.064-0.022-1.579l-1.26-4.41c-0.179-0.628-0.557-1.182-1.079-1.575s-1.157-0.606-1.811-0.605h-3.49c-0.796 0-1.559 0.316-2.121 0.879s-0.879 1.326-0.879 2.121v2c-0.009 3.022 0.582 6.015 1.739 8.806s2.857 5.325 5.001 7.454c2.129 2.144 4.663 3.844 7.454 5.001s5.784 1.748 8.806 1.739h2c0.796 0 1.559-0.316 2.121-0.879s0.879-1.326 0.879-2.121v-3.49c0.001-0.654-0.211-1.289-0.605-1.811s-0.947-0.901-1.575-1.079zM28 27c0 0.265-0.105 0.52-0.293 0.707s-0.442 0.293-0.707 0.293h-2c-2.759 0.008-5.492-0.531-8.041-1.587s-4.863-2.607-6.809-4.564c-1.957-1.945-3.508-4.259-4.563-6.808s-1.595-5.282-1.587-8.041v-2c0-0.265 0.105-0.52 0.293-0.707s0.442-0.293 0.707-0.293h3.49c0.224-0.008 0.445 0.059 0.627 0.192s0.313 0.322 0.373 0.538l1.27 4.41c0.052 0.175 0.055 0.36 0.009 0.536s-0.139 0.337-0.269 0.464l-2.91 2.86c-0.138 0.139-0.233 0.315-0.272 0.507s-0.021 0.391 0.052 0.573c0.966 2.375 2.398 4.532 4.212 6.345s3.972 3.242 6.348 4.206c0.18 0.071 0.378 0.088 0.568 0.049s0.364-0.132 0.502-0.269l2.87-2.87c0.127-0.13 0.288-0.223 0.464-0.269s0.362-0.043 0.536 0.009l4.41 1.27c0.216 0.060 0.406 0.192 0.538 0.373s0.2 0.402 0.192 0.627l-0.010 3.45zM17 3c0-0.265 0.105-0.52 0.293-0.707s0.442-0.293 0.707-0.293c3.183 0 6.235 1.264 8.485 3.515s3.515 5.303 3.515 8.485c0 0.265-0.105 0.52-0.293 0.707s-0.442 0.293-0.707 0.293c-0.265 0-0.519-0.105-0.707-0.293s-0.293-0.442-0.293-0.707c0-1.313-0.259-2.614-0.761-3.827s-1.239-2.316-2.168-3.244c-0.929-0.929-2.031-1.665-3.244-2.168s-2.514-0.761-3.827-0.761c-0.265 0-0.519-0.105-0.707-0.293s-0.293-0.442-0.293-0.707zM17 8c0-0.265 0.105-0.52 0.293-0.707s0.442-0.293 0.707-0.293c1.857 0 3.637 0.738 4.95 2.050s2.050 3.093 2.050 4.95c0 0.265-0.105 0.52-0.293 0.707s-0.442 0.293-0.707 0.293c-0.265 0-0.519-0.105-0.707-0.293s-0.293-0.442-0.293-0.707c0-0.657-0.129-1.307-0.38-1.913s-0.62-1.158-1.084-1.622-1.015-0.833-1.622-1.084c-0.607-0.251-1.257-0.381-1.914-0.381-0.265 0-0.519-0.105-0.707-0.293s-0.293-0.442-0.293-0.707z"></path>
</svg>
