<svg width="770" height="484" viewBox="0 0 770 484" fill="none" xmlns="http://www.w3.org/2000/svg">
<g opacity="0.05" clip-path="url(#clip0_2_4992)">
<line y1="-0.5" x2="1644.96" y2="-0.5" transform="matrix(0.707235 -0.706979 0.707235 0.706979 -438.82 293.225)" stroke="white"/>
<line y1="-0.5" x2="1644.96" y2="-0.5" transform="matrix(0.707235 -0.706979 0.707235 0.706979 -432.945 299.099)" stroke="white"/>
<line y1="-0.5" x2="1644.96" y2="-0.5" transform="matrix(0.707235 -0.706979 0.707235 0.706979 -427.068 304.972)" stroke="white"/>
<line y1="-0.5" x2="1644.96" y2="-0.5" transform="matrix(0.707235 -0.706979 0.707235 0.706979 -421.193 310.845)" stroke="white"/>
<line y1="-0.5" x2="1644.96" y2="-0.5" transform="matrix(0.707235 -0.706979 0.707235 0.706979 -415.318 316.719)" stroke="white"/>
<line y1="-0.5" x2="1644.96" y2="-0.5" transform="matrix(0.707235 -0.706979 0.707235 0.706979 -409.441 322.592)" stroke="white"/>
<line y1="-0.5" x2="1644.96" y2="-0.5" transform="matrix(0.707235 -0.706979 0.707235 0.706979 -403.566 328.465)" stroke="white"/>
<line y1="-0.5" x2="1644.96" y2="-0.5" transform="matrix(0.707235 -0.706979 0.707235 0.706979 -397.691 334.339)" stroke="white"/>
<line y1="-0.5" x2="1644.96" y2="-0.5" transform="matrix(0.707235 -0.706979 0.707235 0.706979 -391.814 340.212)" stroke="white"/>
<line y1="-0.5" x2="1644.96" y2="-0.5" transform="matrix(0.707235 -0.706979 0.707235 0.706979 -385.939 346.086)" stroke="white"/>
<line y1="-0.5" x2="1644.96" y2="-0.5" transform="matrix(0.707235 -0.706979 0.707235 0.706979 -380.064 351.959)" stroke="white"/>
<line y1="-0.5" x2="1644.96" y2="-0.5" transform="matrix(0.707235 -0.706979 0.707235 0.706979 -374.189 357.833)" stroke="white"/>
<line y1="-0.5" x2="1644.96" y2="-0.5" transform="matrix(0.707235 -0.706979 0.707235 0.706979 -368.312 363.707)" stroke="white"/>
<line y1="-0.5" x2="1644.96" y2="-0.5" transform="matrix(0.707235 -0.706979 0.707235 0.706979 -362.438 369.58)" stroke="white"/>
<line y1="-0.5" x2="1644.96" y2="-0.5" transform="matrix(0.707235 -0.706979 0.707235 0.706979 -356.562 375.454)" stroke="white"/>
<line y1="-0.5" x2="1644.96" y2="-0.5" transform="matrix(0.707235 -0.706979 0.707235 0.706979 -350.686 381.326)" stroke="white"/>
<line y1="-0.5" x2="1644.96" y2="-0.5" transform="matrix(0.707235 -0.706979 0.707235 0.706979 -344.811 387.201)" stroke="white"/>
<line y1="-0.5" x2="1644.96" y2="-0.5" transform="matrix(0.707235 -0.706979 0.707235 0.706979 -338.936 393.074)" stroke="white"/>
<line y1="-0.5" x2="1644.96" y2="-0.5" transform="matrix(0.707235 -0.706979 0.707235 0.706979 -333.059 398.947)" stroke="white"/>
<line y1="-0.5" x2="1644.96" y2="-0.5" transform="matrix(0.707235 -0.706979 0.707235 0.706979 -327.184 404.82)" stroke="white"/>
<line y1="-0.5" x2="1644.96" y2="-0.5" transform="matrix(0.707235 -0.706979 0.707235 0.706979 -321.309 410.695)" stroke="white"/>
<line y1="-0.5" x2="1644.96" y2="-0.5" transform="matrix(0.707235 -0.706979 0.707235 0.706979 -315.432 416.568)" stroke="white"/>
<line y1="-0.5" x2="1644.96" y2="-0.5" transform="matrix(0.707235 -0.706979 0.707235 0.706979 -309.557 422.441)" stroke="white"/>
<line y1="-0.5" x2="1644.96" y2="-0.5" transform="matrix(0.707235 -0.706979 0.707235 0.706979 -303.682 428.315)" stroke="white"/>
<line y1="-0.5" x2="1644.96" y2="-0.5" transform="matrix(0.707235 -0.706979 0.707235 0.706979 -297.807 434.188)" stroke="white"/>
<line y1="-0.5" x2="1644.96" y2="-0.5" transform="matrix(0.707235 -0.706979 0.707235 0.706979 -291.93 440.062)" stroke="white"/>
<line y1="-0.5" x2="1644.96" y2="-0.5" transform="matrix(0.707235 -0.706979 0.707235 0.706979 -286.055 445.935)" stroke="white"/>
<line y1="-0.5" x2="1644.96" y2="-0.5" transform="matrix(0.707235 -0.706979 0.707235 0.706979 -280.178 451.809)" stroke="white"/>
<line y1="-0.5" x2="1644.96" y2="-0.5" transform="matrix(0.707235 -0.706979 0.707235 0.706979 -274.303 457.682)" stroke="white"/>
<line y1="-0.5" x2="1644.96" y2="-0.5" transform="matrix(0.707235 -0.706979 0.707235 0.706979 -268.428 463.555)" stroke="white"/>
<line y1="-0.5" x2="1644.96" y2="-0.5" transform="matrix(0.707235 -0.706979 0.707235 0.706979 -262.553 469.429)" stroke="white"/>
<line y1="-0.5" x2="1644.96" y2="-0.5" transform="matrix(0.707235 -0.706979 0.707235 0.706979 -256.676 475.303)" stroke="white"/>
<line y1="-0.5" x2="1644.96" y2="-0.5" transform="matrix(0.707235 -0.706979 0.707235 0.706979 -250.801 481.176)" stroke="white"/>
<line y1="-0.5" x2="1644.96" y2="-0.5" transform="matrix(0.707235 -0.706979 0.707235 0.706979 -244.926 487.049)" stroke="white"/>
<line y1="-0.5" x2="1644.96" y2="-0.5" transform="matrix(0.707235 -0.706979 0.707235 0.706979 -239.049 492.923)" stroke="white"/>
<line y1="-0.5" x2="1644.96" y2="-0.5" transform="matrix(0.707235 -0.706979 0.707235 0.706979 -233.174 498.797)" stroke="white"/>
<line y1="-0.5" x2="1644.96" y2="-0.5" transform="matrix(0.707235 -0.706979 0.707235 0.706979 -227.299 504.67)" stroke="white"/>
<line y1="-0.5" x2="1644.96" y2="-0.5" transform="matrix(0.707235 -0.706979 0.707235 0.706979 -221.424 510.543)" stroke="white"/>
<line y1="-0.5" x2="1644.96" y2="-0.5" transform="matrix(0.707235 -0.706979 0.707235 0.706979 -215.547 516.417)" stroke="white"/>
<line y1="-0.5" x2="1644.96" y2="-0.5" transform="matrix(0.707235 -0.706979 0.707235 0.706979 -209.672 522.291)" stroke="white"/>
<line y1="-0.5" x2="1644.96" y2="-0.5" transform="matrix(0.707235 -0.706979 0.707235 0.706979 -203.797 528.164)" stroke="white"/>
<line y1="-0.5" x2="1644.96" y2="-0.5" transform="matrix(0.707235 -0.706979 0.707235 0.706979 -197.92 534.037)" stroke="white"/>
<line y1="-0.5" x2="1644.96" y2="-0.5" transform="matrix(0.707235 -0.706979 0.707235 0.706979 -192.045 539.911)" stroke="white"/>
<line y1="-0.5" x2="1644.96" y2="-0.5" transform="matrix(0.707235 -0.706979 0.707235 0.706979 -186.17 545.784)" stroke="white"/>
<line y1="-0.5" x2="1644.96" y2="-0.5" transform="matrix(0.707235 -0.706979 0.707235 0.706979 -180.293 551.658)" stroke="white"/>
<line y1="-0.5" x2="1644.96" y2="-0.5" transform="matrix(0.707235 -0.706979 0.707235 0.706979 -174.418 557.532)" stroke="white"/>
<line y1="-0.5" x2="1644.96" y2="-0.5" transform="matrix(0.707234 -0.706979 0.707235 0.706979 -168.543 563.404)" stroke="white"/>
<line y1="-0.5" x2="1644.96" y2="-0.5" transform="matrix(0.707235 -0.706979 0.707235 0.706979 -162.666 569.278)" stroke="white"/>
<line y1="-0.5" x2="1644.96" y2="-0.5" transform="matrix(0.707235 -0.706979 0.707235 0.706979 -156.791 575.152)" stroke="white"/>
<line y1="-0.5" x2="1644.96" y2="-0.5" transform="matrix(0.707235 -0.706979 0.707235 0.706979 -150.916 581.026)" stroke="white"/>
<line y1="-0.5" x2="1644.96" y2="-0.5" transform="matrix(0.707234 -0.706979 0.707235 0.706979 -145.039 586.898)" stroke="white"/>
<line y1="-0.5" x2="1644.96" y2="-0.5" transform="matrix(0.707235 -0.706979 0.707235 0.706979 -139.164 592.772)" stroke="white"/>
<line y1="-0.5" x2="1644.96" y2="-0.5" transform="matrix(0.707235 -0.706979 0.707235 0.706979 -133.289 598.646)" stroke="white"/>
<line y1="-0.5" x2="1644.96" y2="-0.5" transform="matrix(0.707235 -0.706979 0.707235 0.706979 -127.412 604.52)" stroke="white"/>
<line y1="-0.5" x2="1644.96" y2="-0.5" transform="matrix(0.707235 -0.706979 0.707235 0.706979 -121.537 610.393)" stroke="white"/>
<line y1="-0.5" x2="1644.96" y2="-0.5" transform="matrix(0.707235 -0.706979 0.707235 0.706979 -115.662 616.266)" stroke="white"/>
<line y1="-0.5" x2="1644.96" y2="-0.5" transform="matrix(0.707235 -0.706979 0.707235 0.706979 -109.787 622.139)" stroke="white"/>
<line y1="-0.5" x2="1644.96" y2="-0.5" transform="matrix(0.707235 -0.706979 0.707235 0.706979 -103.91 628.013)" stroke="white"/>
<line y1="-0.5" x2="1644.96" y2="-0.5" transform="matrix(0.707235 -0.706979 0.707235 0.706979 -98.0352 633.887)" stroke="white"/>
<line y1="-0.5" x2="1644.96" y2="-0.5" transform="matrix(0.707235 -0.706979 0.707235 0.706979 -92.1602 639.76)" stroke="white"/>
<line y1="-0.5" x2="1644.96" y2="-0.5" transform="matrix(0.707235 -0.706979 0.707235 0.706979 -86.2832 645.633)" stroke="white"/>
<line y1="-0.5" x2="1644.96" y2="-0.5" transform="matrix(0.707235 -0.706979 0.707235 0.706979 -80.4081 651.507)" stroke="white"/>
<line y1="-0.5" x2="1644.96" y2="-0.5" transform="matrix(0.707235 -0.706979 0.707235 0.706979 -74.5332 657.381)" stroke="white"/>
<line y1="-0.5" x2="1644.96" y2="-0.5" transform="matrix(0.707235 -0.706979 0.707235 0.706979 -68.6562 663.254)" stroke="white"/>
<line y1="-0.5" x2="1644.96" y2="-0.5" transform="matrix(0.707235 -0.706979 0.707235 0.706979 -62.7812 669.127)" stroke="white"/>
<line y1="-0.5" x2="1644.96" y2="-0.5" transform="matrix(0.707235 -0.706979 0.707235 0.706979 -56.9062 675.001)" stroke="white"/>
<line y1="-0.5" x2="1644.96" y2="-0.5" transform="matrix(0.707235 -0.706979 0.707235 0.706979 -51.0312 680.874)" stroke="white"/>
<line y1="-0.5" x2="1644.96" y2="-0.5" transform="matrix(0.707235 -0.706979 0.707235 0.706979 -45.1543 686.749)" stroke="white"/>
<line y1="-0.5" x2="1644.96" y2="-0.5" transform="matrix(0.707234 -0.706979 0.707235 0.706979 -39.2792 692.621)" stroke="white"/>
<line y1="-0.5" x2="1644.96" y2="-0.5" transform="matrix(0.707235 -0.706979 0.707235 0.706979 -33.4023 698.495)" stroke="white"/>
<line y1="-0.5" x2="1644.96" y2="-0.5" transform="matrix(0.707234 -0.706979 0.707235 0.706979 -27.5273 704.368)" stroke="white"/>
<line y1="-0.5" x2="1644.96" y2="-0.5" transform="matrix(0.707235 -0.706979 0.707235 0.706979 -21.6523 710.242)" stroke="white"/>
<line y1="-0.5" x2="1644.96" y2="-0.5" transform="matrix(0.707234 -0.706979 0.707235 0.706979 -15.7773 716.115)" stroke="white"/>
<line y1="-0.5" x2="1644.96" y2="-0.5" transform="matrix(0.707235 -0.706979 0.707235 0.706979 -9.90039 721.989)" stroke="white"/>
<line y1="-0.5" x2="1644.96" y2="-0.5" transform="matrix(0.707235 -0.706979 0.707235 0.706979 -4.02539 727.862)" stroke="white"/>
<line y1="-0.5" x2="1644.96" y2="-0.5" transform="matrix(0.707235 -0.706979 0.707235 0.706979 1.84961 733.736)" stroke="white"/>
<line y1="-0.5" x2="1644.96" y2="-0.5" transform="matrix(0.707235 -0.706979 0.707235 0.706979 7.72656 739.61)" stroke="white"/>
<line y1="-0.5" x2="1644.96" y2="-0.5" transform="matrix(0.707235 -0.706979 0.707235 0.706979 13.6016 745.483)" stroke="white"/>
<line y1="-0.5" x2="1644.96" y2="-0.5" transform="matrix(0.707235 -0.706979 0.707235 0.706979 19.4766 751.356)" stroke="white"/>
<line y1="-0.5" x2="1644.96" y2="-0.5" transform="matrix(0.707235 -0.706979 0.707235 0.706979 25.3516 757.23)" stroke="white"/>
<line y1="-0.5" x2="1644.96" y2="-0.5" transform="matrix(0.707235 -0.706979 0.707235 0.706979 31.2285 763.103)" stroke="white"/>
<line y1="-0.5" x2="1644.96" y2="-0.5" transform="matrix(0.707235 -0.706979 0.707235 0.706979 37.1035 768.977)" stroke="white"/>
<line y1="-0.5" x2="1644.96" y2="-0.5" transform="matrix(0.707235 -0.706979 0.707235 0.706979 42.9785 774.85)" stroke="white"/>
<line y1="-0.5" x2="1644.96" y2="-0.5" transform="matrix(0.707235 -0.706979 0.707235 0.706979 48.8553 780.724)" stroke="white"/>
<line y1="-0.5" x2="1644.96" y2="-0.5" transform="matrix(0.707235 -0.706979 0.707235 0.706979 54.7305 786.597)" stroke="white"/>
<line y1="-0.5" x2="1644.96" y2="-0.5" transform="matrix(0.707235 -0.706979 0.707235 0.706979 60.6055 792.471)" stroke="white"/>
<line y1="-0.5" x2="1644.96" y2="-0.5" transform="matrix(0.707235 -0.706979 0.707235 0.706979 66.4824 798.344)" stroke="white"/>
<line y1="-0.5" x2="1644.96" y2="-0.5" transform="matrix(0.707235 -0.706979 0.707235 0.706979 72.3575 804.218)" stroke="white"/>
<line y1="-0.5" x2="1644.96" y2="-0.5" transform="matrix(0.707235 -0.706979 0.707235 0.706979 78.2324 810.091)" stroke="white"/>
<line y1="-0.5" x2="1644.96" y2="-0.5" transform="matrix(0.707235 -0.706979 0.707235 0.706979 84.1094 815.964)" stroke="white"/>
<line y1="-0.5" x2="1644.96" y2="-0.5" transform="matrix(0.707235 -0.706979 0.707235 0.706979 89.9844 821.837)" stroke="white"/>
<line y1="-0.5" x2="1644.96" y2="-0.5" transform="matrix(0.707235 -0.706979 0.707235 0.706979 95.8594 827.712)" stroke="white"/>
<line y1="-0.5" x2="1644.96" y2="-0.5" transform="matrix(0.707235 -0.706979 0.707235 0.706979 101.736 833.585)" stroke="white"/>
<line y1="-0.5" x2="1644.96" y2="-0.5" transform="matrix(0.707234 -0.706979 0.707235 0.706979 107.611 839.459)" stroke="white"/>
<line y1="-0.5" x2="1644.96" y2="-0.5" transform="matrix(0.707235 -0.706979 0.707235 0.706979 113.486 845.332)" stroke="white"/>
<line y1="-0.5" x2="1644.96" y2="-0.5" transform="matrix(0.707235 -0.706979 0.707235 0.706979 119.363 851.206)" stroke="white"/>
<line y1="-0.5" x2="1644.96" y2="-0.5" transform="matrix(0.707235 -0.706979 0.707235 0.706979 125.238 857.079)" stroke="white"/>
<line y1="-0.5" x2="1644.96" y2="-0.5" transform="matrix(0.707235 -0.706979 0.707235 0.706979 131.113 862.953)" stroke="white"/>
<line y1="-0.5" x2="1644.96" y2="-0.5" transform="matrix(0.707235 -0.706979 0.707235 0.706979 136.988 868.826)" stroke="white"/>
<line y1="-0.5" x2="1644.96" y2="-0.5" transform="matrix(0.707235 -0.706979 0.707235 0.706979 142.865 874.699)" stroke="white"/>
<line y1="-0.5" x2="1644.96" y2="-0.5" transform="matrix(0.707235 -0.706979 0.707235 0.706979 148.74 880.573)" stroke="white"/>
<line y1="-0.5" x2="1644.96" y2="-0.5" transform="matrix(0.707235 -0.706979 0.707235 0.706979 154.615 886.447)" stroke="white"/>
<line y1="-0.5" x2="1644.96" y2="-0.5" transform="matrix(0.707235 -0.706979 0.707235 0.706979 160.492 892.32)" stroke="white"/>
<line y1="-0.5" x2="1644.96" y2="-0.5" transform="matrix(0.707235 -0.706979 0.707235 0.706979 166.367 898.193)" stroke="white"/>
<line y1="-0.5" x2="1644.96" y2="-0.5" transform="matrix(0.707235 -0.706979 0.707235 0.706979 172.242 904.066)" stroke="white"/>
<line y1="-0.5" x2="1644.96" y2="-0.5" transform="matrix(0.707235 -0.706979 0.707235 0.706979 178.119 909.94)" stroke="white"/>
<line y1="-0.5" x2="1644.96" y2="-0.5" transform="matrix(0.707235 -0.706979 0.707235 0.706979 183.994 915.814)" stroke="white"/>
<line y1="-0.5" x2="1644.96" y2="-0.5" transform="matrix(0.707235 -0.706979 0.707235 0.706979 189.869 921.687)" stroke="white"/>
<line y1="-0.5" x2="1644.96" y2="-0.5" transform="matrix(0.707235 -0.706979 0.707235 0.706979 195.744 927.56)" stroke="white"/>
<line y1="-0.5" x2="1644.96" y2="-0.5" transform="matrix(0.707235 -0.706979 0.707235 0.706979 201.621 933.434)" stroke="white"/>
<line y1="-0.5" x2="1644.96" y2="-0.5" transform="matrix(0.707234 -0.706979 0.707235 0.706979 207.496 939.308)" stroke="white"/>
<line y1="-0.5" x2="1644.96" y2="-0.5" transform="matrix(0.707235 -0.706979 0.707235 0.706979 213.371 945.182)" stroke="white"/>
<line y1="-0.5" x2="1644.96" y2="-0.5" transform="matrix(0.707235 -0.706979 0.707235 0.706979 219.248 951.054)" stroke="white"/>
<line y1="-0.5" x2="1644.96" y2="-0.5" transform="matrix(0.707235 -0.706979 0.707235 0.706979 225.123 956.928)" stroke="white"/>
<line y1="-0.5" x2="1644.96" y2="-0.5" transform="matrix(0.707235 -0.706979 0.707235 0.706979 231 962.802)" stroke="white"/>
<line y1="-0.5" x2="1644.96" y2="-0.5" transform="matrix(0.707235 -0.706979 0.707235 0.706979 236.875 968.676)" stroke="white"/>
<line y1="-0.5" x2="1644.96" y2="-0.5" transform="matrix(0.707235 -0.706979 0.707235 0.706979 242.75 974.549)" stroke="white"/>
<line y1="-0.5" x2="1644.96" y2="-0.5" transform="matrix(0.707235 -0.706979 0.707235 0.706979 248.625 980.422)" stroke="white"/>
<line y1="-0.5" x2="1644.96" y2="-0.5" transform="matrix(0.707235 -0.706979 0.707235 0.706979 254.502 986.295)" stroke="white"/>
<line y1="-0.5" x2="1644.96" y2="-0.5" transform="matrix(0.707235 -0.706979 0.707235 0.706979 260.377 992.169)" stroke="white"/>
<line y1="-0.5" x2="1644.96" y2="-0.5" transform="matrix(0.707235 -0.706979 0.707235 0.706979 266.252 998.043)" stroke="white"/>
<line y1="-0.5" x2="1644.96" y2="-0.5" transform="matrix(0.707235 -0.706979 0.707235 0.706979 272.129 1003.92)" stroke="white"/>
<line y1="-0.5" x2="1644.96" y2="-0.5" transform="matrix(0.707235 -0.706979 0.707235 0.706979 278.004 1009.79)" stroke="white"/>
<line y1="-0.5" x2="1644.96" y2="-0.5" transform="matrix(0.707234 -0.706979 0.707235 0.706979 283.879 1015.66)" stroke="white"/>
<line y1="-0.5" x2="1644.96" y2="-0.5" transform="matrix(0.707235 -0.706979 0.707235 0.706979 289.754 1021.54)" stroke="white"/>
<line y1="-0.5" x2="1644.96" y2="-0.5" transform="matrix(0.707235 -0.706979 0.707235 0.706979 295.631 1027.41)" stroke="white"/>
<line y1="-0.5" x2="1644.96" y2="-0.5" transform="matrix(0.707235 -0.706979 0.707235 0.706979 301.506 1033.28)" stroke="white"/>
<line y1="-0.5" x2="1644.96" y2="-0.5" transform="matrix(0.707235 -0.706979 0.707235 0.706979 307.381 1039.16)" stroke="white"/>
<line y1="-0.5" x2="1644.96" y2="-0.5" transform="matrix(0.707235 -0.706979 0.707235 0.706979 313.258 1045.03)" stroke="white"/>
<line y1="-0.5" x2="1644.96" y2="-0.5" transform="matrix(0.707235 -0.706979 0.707235 0.706979 319.133 1050.9)" stroke="white"/>
<line y1="-0.5" x2="1644.96" y2="-0.5" transform="matrix(0.707235 -0.706979 0.707235 0.706979 325.008 1056.78)" stroke="white"/>
<line y1="-0.5" x2="1644.96" y2="-0.5" transform="matrix(0.707235 -0.706979 0.707235 0.706979 330.885 1062.65)" stroke="white"/>
<line y1="-0.5" x2="1644.96" y2="-0.5" transform="matrix(0.707235 -0.706979 0.707235 0.706979 336.76 1068.52)" stroke="white"/>
<line y1="-0.5" x2="1644.96" y2="-0.5" transform="matrix(0.707235 -0.706979 0.707235 0.706979 342.635 1074.4)" stroke="white"/>
<line y1="-0.5" x2="1644.96" y2="-0.5" transform="matrix(0.707235 -0.706979 0.707235 0.706979 348.512 1080.27)" stroke="white"/>
<line y1="-0.5" x2="1644.96" y2="-0.5" transform="matrix(0.707235 -0.706979 0.707235 0.706979 354.387 1086.14)" stroke="white"/>
<line y1="-0.5" x2="1644.96" y2="-0.5" transform="matrix(0.707235 -0.706979 0.707235 0.706979 360.262 1092.02)" stroke="white"/>
<line y1="-0.5" x2="1644.96" y2="-0.5" transform="matrix(0.707235 -0.706979 0.707235 0.706979 366.137 1097.89)" stroke="white"/>
<line y1="-0.5" x2="1644.96" y2="-0.5" transform="matrix(0.707235 -0.706979 0.707235 0.706979 372.014 1103.76)" stroke="white"/>
<line y1="-0.5" x2="1644.96" y2="-0.5" transform="matrix(0.707235 -0.706979 0.707235 0.706979 377.889 1109.64)" stroke="white"/>
<line y1="-0.5" x2="1644.96" y2="-0.5" transform="matrix(0.707235 -0.706979 0.707235 0.706979 383.766 1115.51)" stroke="white"/>
<line y1="-0.5" x2="1644.96" y2="-0.5" transform="matrix(0.707235 -0.706979 0.707235 0.706979 389.641 1121.39)" stroke="white"/>
<line y1="-0.5" x2="1644.96" y2="-0.5" transform="matrix(0.707234 -0.706979 0.707235 0.706979 395.516 1127.26)" stroke="white"/>
<line y1="-0.5" x2="1644.96" y2="-0.5" transform="matrix(0.707234 -0.706979 0.707235 0.706979 401.391 1133.13)" stroke="white"/>
<line y1="-0.5" x2="1644.96" y2="-0.5" transform="matrix(0.707235 -0.706979 0.707235 0.706979 407.268 1139.01)" stroke="white"/>
<line y1="-0.5" x2="1644.96" y2="-0.5" transform="matrix(0.707234 -0.706979 0.707235 0.706979 413.143 1144.88)" stroke="white"/>
<line y1="-0.5" x2="1644.96" y2="-0.5" transform="matrix(0.707234 -0.706979 0.707235 0.706979 419.018 1150.75)" stroke="white"/>
<line y1="-0.5" x2="1644.96" y2="-0.5" transform="matrix(0.707235 -0.706979 0.707235 0.706979 424.895 1156.63)" stroke="white"/>
<line y1="-0.5" x2="1644.96" y2="-0.5" transform="matrix(0.707235 -0.706979 0.707235 0.706979 430.77 1162.5)" stroke="white"/>
<line y1="-0.5" x2="1644.96" y2="-0.5" transform="matrix(0.707235 -0.706979 0.707235 0.706979 436.645 1168.37)" stroke="white"/>
<line y1="-0.5" x2="1644.96" y2="-0.5" transform="matrix(0.707235 -0.706979 0.707235 0.706979 442.52 1174.25)" stroke="white"/>
<line y1="-0.5" x2="1644.96" y2="-0.5" transform="matrix(0.707235 -0.706979 0.707235 0.706979 448.396 1180.12)" stroke="white"/>
<line y1="-0.5" x2="1644.96" y2="-0.5" transform="matrix(0.707235 -0.706979 0.707235 0.706979 454.271 1185.99)" stroke="white"/>
<line y1="-0.5" x2="1644.96" y2="-0.5" transform="matrix(0.707235 -0.706979 0.707235 0.706979 460.146 1191.87)" stroke="white"/>
<line y1="-0.5" x2="1644.96" y2="-0.5" transform="matrix(0.707235 -0.706979 0.707235 0.706979 466.023 1197.74)" stroke="white"/>
<line y1="-0.5" x2="1644.96" y2="-0.5" transform="matrix(0.707235 -0.706979 0.707235 0.706979 471.899 1203.61)" stroke="white"/>
<line y1="-0.5" x2="1644.96" y2="-0.5" transform="matrix(0.707235 -0.706979 0.707235 0.706979 477.773 1209.49)" stroke="white"/>
<line y1="-0.5" x2="1644.96" y2="-0.5" transform="matrix(0.707235 -0.706979 0.707235 0.706979 483.65 1215.36)" stroke="white"/>
<line y1="-0.5" x2="1644.96" y2="-0.5" transform="matrix(0.707235 -0.706979 0.707235 0.706979 489.525 1221.23)" stroke="white"/>
<line y1="-0.5" x2="1644.96" y2="-0.5" transform="matrix(0.707235 -0.706979 0.707235 0.706979 495.4 1227.11)" stroke="white"/>
<line y1="-0.5" x2="1644.96" y2="-0.5" transform="matrix(0.707235 -0.706979 0.707235 0.706979 501.277 1232.98)" stroke="white"/>
<line y1="-0.5" x2="1644.96" y2="-0.5" transform="matrix(0.707235 -0.706979 0.707235 0.706979 507.152 1238.86)" stroke="white"/>
<line y1="-0.5" x2="1644.96" y2="-0.5" transform="matrix(0.707235 -0.706979 0.707235 0.706979 513.027 1244.73)" stroke="white"/>
<line y1="-0.5" x2="1644.96" y2="-0.5" transform="matrix(0.707234 -0.706979 0.707235 0.706979 518.904 1250.6)" stroke="white"/>
<line y1="-0.5" x2="1644.96" y2="-0.5" transform="matrix(0.707235 -0.706979 0.707235 0.706979 524.779 1256.48)" stroke="white"/>
<line y1="-0.5" x2="1644.96" y2="-0.5" transform="matrix(0.707235 -0.706979 0.707235 0.706979 530.654 1262.35)" stroke="white"/>
</g>
<defs>
<clipPath id="clip0_2_4992">
<rect width="1209" height="669" fill="white" transform="translate(-30 -82)"/>
</clipPath>
</defs>
</svg>
