<svg width="1209" height="669" viewBox="0 0 1209 669" fill="none" xmlns="http://www.w3.org/2000/svg">
<g opacity="0.05" clip-path="url(#clip0_4_12953)">
<line y1="-0.5" x2="1644.96" y2="-0.5" transform="matrix(0.707235 -0.706979 0.707235 0.706979 -408.82 375.225)" stroke="black"/>
<line y1="-0.5" x2="1644.96" y2="-0.5" transform="matrix(0.707235 -0.706979 0.707235 0.706979 -402.945 381.099)" stroke="black"/>
<line y1="-0.5" x2="1644.96" y2="-0.5" transform="matrix(0.707235 -0.706979 0.707235 0.706979 -397.068 386.972)" stroke="black"/>
<line y1="-0.5" x2="1644.96" y2="-0.5" transform="matrix(0.707235 -0.706979 0.707235 0.706979 -391.193 392.845)" stroke="black"/>
<line y1="-0.5" x2="1644.96" y2="-0.5" transform="matrix(0.707235 -0.706979 0.707235 0.706979 -385.318 398.719)" stroke="black"/>
<line y1="-0.5" x2="1644.96" y2="-0.5" transform="matrix(0.707235 -0.706979 0.707235 0.706979 -379.441 404.592)" stroke="black"/>
<line y1="-0.5" x2="1644.96" y2="-0.5" transform="matrix(0.707235 -0.706979 0.707235 0.706979 -373.566 410.465)" stroke="black"/>
<line y1="-0.5" x2="1644.96" y2="-0.5" transform="matrix(0.707235 -0.706979 0.707235 0.706979 -367.691 416.339)" stroke="black"/>
<line y1="-0.5" x2="1644.96" y2="-0.5" transform="matrix(0.707235 -0.706979 0.707235 0.706979 -361.814 422.212)" stroke="black"/>
<line y1="-0.5" x2="1644.96" y2="-0.5" transform="matrix(0.707235 -0.706979 0.707235 0.706979 -355.939 428.086)" stroke="black"/>
<line y1="-0.5" x2="1644.96" y2="-0.5" transform="matrix(0.707235 -0.706979 0.707235 0.706979 -350.064 433.959)" stroke="black"/>
<line y1="-0.5" x2="1644.96" y2="-0.5" transform="matrix(0.707235 -0.706979 0.707235 0.706979 -344.189 439.833)" stroke="black"/>
<line y1="-0.5" x2="1644.96" y2="-0.5" transform="matrix(0.707235 -0.706979 0.707235 0.706979 -338.312 445.707)" stroke="black"/>
<line y1="-0.5" x2="1644.96" y2="-0.5" transform="matrix(0.707235 -0.706979 0.707235 0.706979 -332.438 451.58)" stroke="black"/>
<line y1="-0.5" x2="1644.96" y2="-0.5" transform="matrix(0.707235 -0.706979 0.707235 0.706979 -326.562 457.454)" stroke="black"/>
<line y1="-0.5" x2="1644.96" y2="-0.5" transform="matrix(0.707235 -0.706979 0.707235 0.706979 -320.686 463.326)" stroke="black"/>
<line y1="-0.5" x2="1644.96" y2="-0.5" transform="matrix(0.707235 -0.706979 0.707235 0.706979 -314.811 469.201)" stroke="black"/>
<line y1="-0.5" x2="1644.96" y2="-0.5" transform="matrix(0.707235 -0.706979 0.707235 0.706979 -308.936 475.074)" stroke="black"/>
<line y1="-0.5" x2="1644.96" y2="-0.5" transform="matrix(0.707235 -0.706979 0.707235 0.706979 -303.059 480.947)" stroke="black"/>
<line y1="-0.5" x2="1644.96" y2="-0.5" transform="matrix(0.707235 -0.706979 0.707235 0.706979 -297.184 486.82)" stroke="black"/>
<line y1="-0.5" x2="1644.96" y2="-0.5" transform="matrix(0.707235 -0.706979 0.707235 0.706979 -291.309 492.694)" stroke="black"/>
<line y1="-0.5" x2="1644.96" y2="-0.5" transform="matrix(0.707235 -0.706979 0.707235 0.706979 -285.432 498.568)" stroke="black"/>
<line y1="-0.5" x2="1644.96" y2="-0.5" transform="matrix(0.707235 -0.706979 0.707235 0.706979 -279.557 504.441)" stroke="black"/>
<line y1="-0.5" x2="1644.96" y2="-0.5" transform="matrix(0.707235 -0.706979 0.707235 0.706979 -273.682 510.315)" stroke="black"/>
<line y1="-0.5" x2="1644.96" y2="-0.5" transform="matrix(0.707235 -0.706979 0.707235 0.706979 -267.807 516.188)" stroke="black"/>
<line y1="-0.5" x2="1644.96" y2="-0.5" transform="matrix(0.707235 -0.706979 0.707235 0.706979 -261.93 522.062)" stroke="black"/>
<line y1="-0.5" x2="1644.96" y2="-0.5" transform="matrix(0.707235 -0.706979 0.707235 0.706979 -256.055 527.936)" stroke="black"/>
<line y1="-0.5" x2="1644.96" y2="-0.5" transform="matrix(0.707235 -0.706979 0.707235 0.706979 -250.178 533.809)" stroke="black"/>
<line y1="-0.5" x2="1644.96" y2="-0.5" transform="matrix(0.707235 -0.706979 0.707235 0.706979 -244.303 539.682)" stroke="black"/>
<line y1="-0.5" x2="1644.96" y2="-0.5" transform="matrix(0.707235 -0.706979 0.707235 0.706979 -238.428 545.555)" stroke="black"/>
<line y1="-0.5" x2="1644.96" y2="-0.5" transform="matrix(0.707235 -0.706979 0.707235 0.706979 -232.553 551.43)" stroke="black"/>
<line y1="-0.5" x2="1644.96" y2="-0.5" transform="matrix(0.707235 -0.706979 0.707235 0.706979 -226.676 557.303)" stroke="black"/>
<line y1="-0.5" x2="1644.96" y2="-0.5" transform="matrix(0.707235 -0.706979 0.707235 0.706979 -220.801 563.176)" stroke="black"/>
<line y1="-0.5" x2="1644.96" y2="-0.5" transform="matrix(0.707235 -0.706979 0.707235 0.706979 -214.926 569.049)" stroke="black"/>
<line y1="-0.5" x2="1644.96" y2="-0.5" transform="matrix(0.707235 -0.706979 0.707235 0.706979 -209.049 574.923)" stroke="black"/>
<line y1="-0.5" x2="1644.96" y2="-0.5" transform="matrix(0.707235 -0.706979 0.707235 0.706979 -203.174 580.797)" stroke="black"/>
<line y1="-0.5" x2="1644.96" y2="-0.5" transform="matrix(0.707235 -0.706979 0.707235 0.706979 -197.299 586.67)" stroke="black"/>
<line y1="-0.5" x2="1644.96" y2="-0.5" transform="matrix(0.707235 -0.706979 0.707235 0.706979 -191.424 592.543)" stroke="black"/>
<line y1="-0.5" x2="1644.96" y2="-0.5" transform="matrix(0.707235 -0.706979 0.707235 0.706979 -185.547 598.417)" stroke="black"/>
<line y1="-0.5" x2="1644.96" y2="-0.5" transform="matrix(0.707235 -0.706979 0.707235 0.706979 -179.672 604.291)" stroke="black"/>
<line y1="-0.5" x2="1644.96" y2="-0.5" transform="matrix(0.707235 -0.706979 0.707235 0.706979 -173.797 610.164)" stroke="black"/>
<line y1="-0.5" x2="1644.96" y2="-0.5" transform="matrix(0.707235 -0.706979 0.707235 0.706979 -167.92 616.037)" stroke="black"/>
<line y1="-0.5" x2="1644.96" y2="-0.5" transform="matrix(0.707235 -0.706979 0.707235 0.706979 -162.045 621.911)" stroke="black"/>
<line y1="-0.5" x2="1644.96" y2="-0.5" transform="matrix(0.707235 -0.706979 0.707235 0.706979 -156.17 627.784)" stroke="black"/>
<line y1="-0.5" x2="1644.96" y2="-0.5" transform="matrix(0.707235 -0.706979 0.707235 0.706979 -150.293 633.658)" stroke="black"/>
<line y1="-0.5" x2="1644.96" y2="-0.5" transform="matrix(0.707235 -0.706979 0.707235 0.706979 -144.418 639.532)" stroke="black"/>
<line y1="-0.5" x2="1644.96" y2="-0.5" transform="matrix(0.707234 -0.706979 0.707235 0.706979 -138.543 645.404)" stroke="black"/>
<line y1="-0.5" x2="1644.96" y2="-0.5" transform="matrix(0.707235 -0.706979 0.707235 0.706979 -132.666 651.278)" stroke="black"/>
<line y1="-0.5" x2="1644.96" y2="-0.5" transform="matrix(0.707235 -0.706979 0.707235 0.706979 -126.791 657.152)" stroke="black"/>
<line y1="-0.5" x2="1644.96" y2="-0.5" transform="matrix(0.707235 -0.706979 0.707235 0.706979 -120.916 663.025)" stroke="black"/>
<line y1="-0.5" x2="1644.96" y2="-0.5" transform="matrix(0.707234 -0.706979 0.707235 0.706979 -115.039 668.898)" stroke="black"/>
<line y1="-0.5" x2="1644.96" y2="-0.5" transform="matrix(0.707235 -0.706979 0.707235 0.706979 -109.164 674.772)" stroke="black"/>
<line y1="-0.5" x2="1644.96" y2="-0.5" transform="matrix(0.707235 -0.706979 0.707235 0.706979 -103.289 680.646)" stroke="black"/>
<line y1="-0.5" x2="1644.96" y2="-0.5" transform="matrix(0.707235 -0.706979 0.707235 0.706979 -97.4121 686.52)" stroke="black"/>
<line y1="-0.5" x2="1644.96" y2="-0.5" transform="matrix(0.707235 -0.706979 0.707235 0.706979 -91.5371 692.393)" stroke="black"/>
<line y1="-0.5" x2="1644.96" y2="-0.5" transform="matrix(0.707235 -0.706979 0.707235 0.706979 -85.6622 698.266)" stroke="black"/>
<line y1="-0.5" x2="1644.96" y2="-0.5" transform="matrix(0.707235 -0.706979 0.707235 0.706979 -79.7871 704.14)" stroke="black"/>
<line y1="-0.5" x2="1644.96" y2="-0.5" transform="matrix(0.707235 -0.706979 0.707235 0.706979 -73.9102 710.013)" stroke="black"/>
<line y1="-0.5" x2="1644.96" y2="-0.5" transform="matrix(0.707235 -0.706979 0.707235 0.706979 -68.0352 715.887)" stroke="black"/>
<line y1="-0.5" x2="1644.96" y2="-0.5" transform="matrix(0.707235 -0.706979 0.707235 0.706979 -62.1602 721.76)" stroke="black"/>
<line y1="-0.5" x2="1644.96" y2="-0.5" transform="matrix(0.707235 -0.706979 0.707235 0.706979 -56.2832 727.633)" stroke="black"/>
<line y1="-0.5" x2="1644.96" y2="-0.5" transform="matrix(0.707235 -0.706979 0.707235 0.706979 -50.4082 733.507)" stroke="black"/>
<line y1="-0.5" x2="1644.96" y2="-0.5" transform="matrix(0.707235 -0.706979 0.707235 0.706979 -44.5332 739.381)" stroke="black"/>
<line y1="-0.5" x2="1644.96" y2="-0.5" transform="matrix(0.707235 -0.706979 0.707235 0.706979 -38.6562 745.254)" stroke="black"/>
<line y1="-0.5" x2="1644.96" y2="-0.5" transform="matrix(0.707235 -0.706979 0.707235 0.706979 -32.7812 751.127)" stroke="black"/>
<line y1="-0.5" x2="1644.96" y2="-0.5" transform="matrix(0.707235 -0.706979 0.707235 0.706979 -26.9062 757.001)" stroke="black"/>
<line y1="-0.5" x2="1644.96" y2="-0.5" transform="matrix(0.707235 -0.706979 0.707235 0.706979 -21.0312 762.874)" stroke="black"/>
<line y1="-0.5" x2="1644.96" y2="-0.5" transform="matrix(0.707235 -0.706979 0.707235 0.706979 -15.1543 768.749)" stroke="black"/>
<line y1="-0.5" x2="1644.96" y2="-0.5" transform="matrix(0.707234 -0.706979 0.707235 0.706979 -9.27917 774.621)" stroke="black"/>
<line y1="-0.5" x2="1644.96" y2="-0.5" transform="matrix(0.707235 -0.706979 0.707235 0.706979 -3.40234 780.495)" stroke="black"/>
<line y1="-0.5" x2="1644.96" y2="-0.5" transform="matrix(0.707234 -0.706979 0.707235 0.706979 2.47266 786.368)" stroke="black"/>
<line y1="-0.5" x2="1644.96" y2="-0.5" transform="matrix(0.707235 -0.706979 0.707235 0.706979 8.34766 792.242)" stroke="black"/>
<line y1="-0.5" x2="1644.96" y2="-0.5" transform="matrix(0.707234 -0.706979 0.707235 0.706979 14.2227 798.115)" stroke="black"/>
<line y1="-0.5" x2="1644.96" y2="-0.5" transform="matrix(0.707235 -0.706979 0.707235 0.706979 20.0996 803.989)" stroke="black"/>
<line y1="-0.5" x2="1644.96" y2="-0.5" transform="matrix(0.707235 -0.706979 0.707235 0.706979 25.9746 809.862)" stroke="black"/>
<line y1="-0.5" x2="1644.96" y2="-0.5" transform="matrix(0.707235 -0.706979 0.707235 0.706979 31.8496 815.736)" stroke="black"/>
<line y1="-0.5" x2="1644.96" y2="-0.5" transform="matrix(0.707235 -0.706979 0.707235 0.706979 37.7266 821.61)" stroke="black"/>
<line y1="-0.5" x2="1644.96" y2="-0.5" transform="matrix(0.707235 -0.706979 0.707235 0.706979 43.6016 827.482)" stroke="black"/>
<line y1="-0.5" x2="1644.96" y2="-0.5" transform="matrix(0.707235 -0.706979 0.707235 0.706979 49.4766 833.356)" stroke="black"/>
<line y1="-0.5" x2="1644.96" y2="-0.5" transform="matrix(0.707235 -0.706979 0.707235 0.706979 55.3516 839.229)" stroke="black"/>
<line y1="-0.5" x2="1644.96" y2="-0.5" transform="matrix(0.707235 -0.706979 0.707235 0.706979 61.2285 845.104)" stroke="black"/>
<line y1="-0.5" x2="1644.96" y2="-0.5" transform="matrix(0.707235 -0.706979 0.707235 0.706979 67.1035 850.977)" stroke="black"/>
<line y1="-0.5" x2="1644.96" y2="-0.5" transform="matrix(0.707235 -0.706979 0.707235 0.706979 72.9785 856.85)" stroke="black"/>
<line y1="-0.5" x2="1644.96" y2="-0.5" transform="matrix(0.707235 -0.706979 0.707235 0.706979 78.8553 862.724)" stroke="black"/>
<line y1="-0.5" x2="1644.96" y2="-0.5" transform="matrix(0.707235 -0.706979 0.707235 0.706979 84.7305 868.597)" stroke="black"/>
<line y1="-0.5" x2="1644.96" y2="-0.5" transform="matrix(0.707235 -0.706979 0.707235 0.706979 90.6055 874.471)" stroke="black"/>
<line y1="-0.5" x2="1644.96" y2="-0.5" transform="matrix(0.707235 -0.706979 0.707235 0.706979 96.4824 880.344)" stroke="black"/>
<line y1="-0.5" x2="1644.96" y2="-0.5" transform="matrix(0.707235 -0.706979 0.707235 0.706979 102.358 886.218)" stroke="black"/>
<line y1="-0.5" x2="1644.96" y2="-0.5" transform="matrix(0.707235 -0.706979 0.707235 0.706979 108.232 892.091)" stroke="black"/>
<line y1="-0.5" x2="1644.96" y2="-0.5" transform="matrix(0.707235 -0.706979 0.707235 0.706979 114.109 897.964)" stroke="black"/>
<line y1="-0.5" x2="1644.96" y2="-0.5" transform="matrix(0.707235 -0.706979 0.707235 0.706979 119.984 903.837)" stroke="black"/>
<line y1="-0.5" x2="1644.96" y2="-0.5" transform="matrix(0.707235 -0.706979 0.707235 0.706979 125.859 909.712)" stroke="black"/>
<line y1="-0.5" x2="1644.96" y2="-0.5" transform="matrix(0.707235 -0.706979 0.707235 0.706979 131.736 915.585)" stroke="black"/>
<line y1="-0.5" x2="1644.96" y2="-0.5" transform="matrix(0.707234 -0.706979 0.707235 0.706979 137.611 921.458)" stroke="black"/>
<line y1="-0.5" x2="1644.96" y2="-0.5" transform="matrix(0.707235 -0.706979 0.707235 0.706979 143.486 927.332)" stroke="black"/>
<line y1="-0.5" x2="1644.96" y2="-0.5" transform="matrix(0.707235 -0.706979 0.707235 0.706979 149.363 933.206)" stroke="black"/>
<line y1="-0.5" x2="1644.96" y2="-0.5" transform="matrix(0.707235 -0.706979 0.707235 0.706979 155.238 939.079)" stroke="black"/>
<line y1="-0.5" x2="1644.96" y2="-0.5" transform="matrix(0.707235 -0.706979 0.707235 0.706979 161.113 944.953)" stroke="black"/>
<line y1="-0.5" x2="1644.96" y2="-0.5" transform="matrix(0.707235 -0.706979 0.707235 0.706979 166.988 950.826)" stroke="black"/>
<line y1="-0.5" x2="1644.96" y2="-0.5" transform="matrix(0.707235 -0.706979 0.707235 0.706979 172.865 956.699)" stroke="black"/>
<line y1="-0.5" x2="1644.96" y2="-0.5" transform="matrix(0.707235 -0.706979 0.707235 0.706979 178.74 962.573)" stroke="black"/>
<line y1="-0.5" x2="1644.96" y2="-0.5" transform="matrix(0.707235 -0.706979 0.707235 0.706979 184.615 968.447)" stroke="black"/>
<line y1="-0.5" x2="1644.96" y2="-0.5" transform="matrix(0.707235 -0.706979 0.707235 0.706979 190.492 974.32)" stroke="black"/>
<line y1="-0.5" x2="1644.96" y2="-0.5" transform="matrix(0.707235 -0.706979 0.707235 0.706979 196.367 980.193)" stroke="black"/>
<line y1="-0.5" x2="1644.96" y2="-0.5" transform="matrix(0.707235 -0.706979 0.707235 0.706979 202.242 986.066)" stroke="black"/>
<line y1="-0.5" x2="1644.96" y2="-0.5" transform="matrix(0.707235 -0.706979 0.707235 0.706979 208.119 991.94)" stroke="black"/>
<line y1="-0.5" x2="1644.96" y2="-0.5" transform="matrix(0.707235 -0.706979 0.707235 0.706979 213.994 997.814)" stroke="black"/>
<line y1="-0.5" x2="1644.96" y2="-0.5" transform="matrix(0.707235 -0.706979 0.707235 0.706979 219.869 1003.69)" stroke="black"/>
<line y1="-0.5" x2="1644.96" y2="-0.5" transform="matrix(0.707235 -0.706979 0.707235 0.706979 225.744 1009.56)" stroke="black"/>
<line y1="-0.5" x2="1644.96" y2="-0.5" transform="matrix(0.707235 -0.706979 0.707235 0.706979 231.621 1015.43)" stroke="black"/>
<line y1="-0.5" x2="1644.96" y2="-0.5" transform="matrix(0.707234 -0.706979 0.707235 0.706979 237.496 1021.31)" stroke="black"/>
<line y1="-0.5" x2="1644.96" y2="-0.5" transform="matrix(0.707235 -0.706979 0.707235 0.706979 243.371 1027.18)" stroke="black"/>
<line y1="-0.5" x2="1644.96" y2="-0.5" transform="matrix(0.707235 -0.706979 0.707235 0.706979 249.248 1033.05)" stroke="black"/>
<line y1="-0.5" x2="1644.96" y2="-0.5" transform="matrix(0.707235 -0.706979 0.707235 0.706979 255.123 1038.93)" stroke="black"/>
<line y1="-0.5" x2="1644.96" y2="-0.5" transform="matrix(0.707235 -0.706979 0.707235 0.706979 261 1044.8)" stroke="black"/>
<line y1="-0.5" x2="1644.96" y2="-0.5" transform="matrix(0.707235 -0.706979 0.707235 0.706979 266.875 1050.68)" stroke="black"/>
<line y1="-0.5" x2="1644.96" y2="-0.5" transform="matrix(0.707235 -0.706979 0.707235 0.706979 272.75 1056.55)" stroke="black"/>
<line y1="-0.5" x2="1644.96" y2="-0.5" transform="matrix(0.707235 -0.706979 0.707235 0.706979 278.625 1062.42)" stroke="black"/>
<line y1="-0.5" x2="1644.96" y2="-0.5" transform="matrix(0.707235 -0.706979 0.707235 0.706979 284.502 1068.3)" stroke="black"/>
<line y1="-0.5" x2="1644.96" y2="-0.5" transform="matrix(0.707235 -0.706979 0.707235 0.706979 290.377 1074.17)" stroke="black"/>
<line y1="-0.5" x2="1644.96" y2="-0.5" transform="matrix(0.707235 -0.706979 0.707235 0.706979 296.252 1080.04)" stroke="black"/>
<line y1="-0.5" x2="1644.96" y2="-0.5" transform="matrix(0.707235 -0.706979 0.707235 0.706979 302.129 1085.92)" stroke="black"/>
<line y1="-0.5" x2="1644.96" y2="-0.5" transform="matrix(0.707235 -0.706979 0.707235 0.706979 308.004 1091.79)" stroke="black"/>
<line y1="-0.5" x2="1644.96" y2="-0.5" transform="matrix(0.707234 -0.706979 0.707235 0.706979 313.879 1097.66)" stroke="black"/>
<line y1="-0.5" x2="1644.96" y2="-0.5" transform="matrix(0.707235 -0.706979 0.707235 0.706979 319.754 1103.54)" stroke="black"/>
<line y1="-0.5" x2="1644.96" y2="-0.5" transform="matrix(0.707235 -0.706979 0.707235 0.706979 325.631 1109.41)" stroke="black"/>
<line y1="-0.5" x2="1644.96" y2="-0.5" transform="matrix(0.707235 -0.706979 0.707235 0.706979 331.506 1115.28)" stroke="black"/>
<line y1="-0.5" x2="1644.96" y2="-0.5" transform="matrix(0.707235 -0.706979 0.707235 0.706979 337.381 1121.16)" stroke="black"/>
<line y1="-0.5" x2="1644.96" y2="-0.5" transform="matrix(0.707235 -0.706979 0.707235 0.706979 343.258 1127.03)" stroke="black"/>
<line y1="-0.5" x2="1644.96" y2="-0.5" transform="matrix(0.707235 -0.706979 0.707235 0.706979 349.133 1132.9)" stroke="black"/>
<line y1="-0.5" x2="1644.96" y2="-0.5" transform="matrix(0.707235 -0.706979 0.707235 0.706979 355.008 1138.78)" stroke="black"/>
<line y1="-0.5" x2="1644.96" y2="-0.5" transform="matrix(0.707235 -0.706979 0.707235 0.706979 360.885 1144.65)" stroke="black"/>
<line y1="-0.5" x2="1644.96" y2="-0.5" transform="matrix(0.707235 -0.706979 0.707235 0.706979 366.76 1150.52)" stroke="black"/>
<line y1="-0.5" x2="1644.96" y2="-0.5" transform="matrix(0.707235 -0.706979 0.707235 0.706979 372.635 1156.4)" stroke="black"/>
<line y1="-0.5" x2="1644.96" y2="-0.5" transform="matrix(0.707235 -0.706979 0.707235 0.706979 378.512 1162.27)" stroke="black"/>
<line y1="-0.5" x2="1644.96" y2="-0.5" transform="matrix(0.707235 -0.706979 0.707235 0.706979 384.387 1168.14)" stroke="black"/>
<line y1="-0.5" x2="1644.96" y2="-0.5" transform="matrix(0.707235 -0.706979 0.707235 0.706979 390.262 1174.02)" stroke="black"/>
<line y1="-0.5" x2="1644.96" y2="-0.5" transform="matrix(0.707235 -0.706979 0.707235 0.706979 396.137 1179.89)" stroke="black"/>
<line y1="-0.5" x2="1644.96" y2="-0.5" transform="matrix(0.707235 -0.706979 0.707235 0.706979 402.014 1185.76)" stroke="black"/>
<line y1="-0.5" x2="1644.96" y2="-0.5" transform="matrix(0.707235 -0.706979 0.707235 0.706979 407.889 1191.64)" stroke="black"/>
<line y1="-0.5" x2="1644.96" y2="-0.5" transform="matrix(0.707235 -0.706979 0.707235 0.706979 413.766 1197.51)" stroke="black"/>
<line y1="-0.5" x2="1644.96" y2="-0.5" transform="matrix(0.707235 -0.706979 0.707235 0.706979 419.641 1203.39)" stroke="black"/>
<line y1="-0.5" x2="1644.96" y2="-0.5" transform="matrix(0.707234 -0.706979 0.707235 0.706979 425.516 1209.26)" stroke="black"/>
<line y1="-0.5" x2="1644.96" y2="-0.5" transform="matrix(0.707234 -0.706979 0.707235 0.706979 431.391 1215.13)" stroke="black"/>
<line y1="-0.5" x2="1644.96" y2="-0.5" transform="matrix(0.707235 -0.706979 0.707235 0.706979 437.268 1221.01)" stroke="black"/>
<line y1="-0.5" x2="1644.96" y2="-0.5" transform="matrix(0.707234 -0.706979 0.707235 0.706979 443.143 1226.88)" stroke="black"/>
<line y1="-0.5" x2="1644.96" y2="-0.5" transform="matrix(0.707234 -0.706979 0.707235 0.706979 449.018 1232.75)" stroke="black"/>
<line y1="-0.5" x2="1644.96" y2="-0.5" transform="matrix(0.707235 -0.706979 0.707235 0.706979 454.895 1238.63)" stroke="black"/>
<line y1="-0.5" x2="1644.96" y2="-0.5" transform="matrix(0.707235 -0.706979 0.707235 0.706979 460.77 1244.5)" stroke="black"/>
<line y1="-0.5" x2="1644.96" y2="-0.5" transform="matrix(0.707235 -0.706979 0.707235 0.706979 466.645 1250.37)" stroke="black"/>
<line y1="-0.5" x2="1644.96" y2="-0.5" transform="matrix(0.707235 -0.706979 0.707235 0.706979 472.52 1256.25)" stroke="black"/>
<line y1="-0.5" x2="1644.96" y2="-0.5" transform="matrix(0.707235 -0.706979 0.707235 0.706979 478.396 1262.12)" stroke="black"/>
<line y1="-0.5" x2="1644.96" y2="-0.5" transform="matrix(0.707235 -0.706979 0.707235 0.706979 484.271 1267.99)" stroke="black"/>
<line y1="-0.5" x2="1644.96" y2="-0.5" transform="matrix(0.707235 -0.706979 0.707235 0.706979 490.146 1273.87)" stroke="black"/>
<line y1="-0.5" x2="1644.96" y2="-0.5" transform="matrix(0.707235 -0.706979 0.707235 0.706979 496.023 1279.74)" stroke="black"/>
<line y1="-0.5" x2="1644.96" y2="-0.5" transform="matrix(0.707235 -0.706979 0.707235 0.706979 501.898 1285.61)" stroke="black"/>
<line y1="-0.5" x2="1644.96" y2="-0.5" transform="matrix(0.707235 -0.706979 0.707235 0.706979 507.773 1291.49)" stroke="black"/>
<line y1="-0.5" x2="1644.96" y2="-0.5" transform="matrix(0.707235 -0.706979 0.707235 0.706979 513.65 1297.36)" stroke="black"/>
<line y1="-0.5" x2="1644.96" y2="-0.5" transform="matrix(0.707235 -0.706979 0.707235 0.706979 519.525 1303.23)" stroke="black"/>
<line y1="-0.5" x2="1644.96" y2="-0.5" transform="matrix(0.707235 -0.706979 0.707235 0.706979 525.4 1309.11)" stroke="black"/>
<line y1="-0.5" x2="1644.96" y2="-0.5" transform="matrix(0.707235 -0.706979 0.707235 0.706979 531.277 1314.98)" stroke="black"/>
<line y1="-0.5" x2="1644.96" y2="-0.5" transform="matrix(0.707235 -0.706979 0.707235 0.706979 537.152 1320.86)" stroke="black"/>
<line y1="-0.5" x2="1644.96" y2="-0.5" transform="matrix(0.707235 -0.706979 0.707235 0.706979 543.027 1326.73)" stroke="black"/>
<line y1="-0.5" x2="1644.96" y2="-0.5" transform="matrix(0.707234 -0.706979 0.707235 0.706979 548.904 1332.6)" stroke="black"/>
<line y1="-0.5" x2="1644.96" y2="-0.5" transform="matrix(0.707235 -0.706979 0.707235 0.706979 554.779 1338.48)" stroke="black"/>
<line y1="-0.5" x2="1644.96" y2="-0.5" transform="matrix(0.707235 -0.706979 0.707235 0.706979 560.654 1344.35)" stroke="black"/>
</g>
<defs>
<clipPath id="clip0_4_12953">
<rect width="1209" height="669" fill="white"/>
</clipPath>
</defs>
</svg>
