<svg width="269" height="353" viewBox="0 0 269 353" fill="none" xmlns="http://www.w3.org/2000/svg">
<path d="M29.5714 146.678C13.2655 146.678 -2.90901e-05 160.01 -2.90901e-05 176.417C-2.90901e-05 192.701 13.2489 206.073 29.5714 206.1C45.905 206.1 59.1539 192.801 59.1539 176.417C59.1539 160.01 45.905 146.678 29.5714 146.678Z" fill="#235197"/>
<path d="M29.5715 279.498C13.2655 279.498 1.4275e-06 292.796 1.4275e-06 309.136C1.4275e-06 325.532 13.2655 338.903 29.5715 338.903C45.905 338.903 59.154 325.615 59.154 309.22C59.154 292.796 45.905 279.498 29.5715 279.498Z" fill="#235197"/>
<path d="M29.5715 13.8921C13.2655 13.8921 1.4275e-06 27.2575 1.4275e-06 43.5864C1.4275e-06 59.9763 13.2489 73.292 29.5715 73.3585C45.905 73.3585 59.154 59.9763 59.154 43.5864C59.154 27.2575 45.905 13.8921 29.5715 13.8921Z" fill="#235197"/>

<path d="M120.372 273.332C100.633 273.332 84.5921 289.417 84.5921 309.219C84.5921 328.949 100.633 345.073 120.372 345.073C140.06 345.073 156.118 328.949 156.118 309.219C156.118 289.417 140.06 273.332 120.372 273.332Z" fill="#235197"/>
<path d="M120.372 140.529C100.633 140.529 84.5921 156.614 84.5921 176.405C84.5921 196.224 100.633 212.303 120.372 212.303C140.06 212.303 156.118 196.224 156.118 176.405C156.118 156.614 140.06 140.529 120.372 140.529Z" fill="#235197"/>
<path d="M120.372 7.78223C100.633 7.78223 84.5921 23.8231 84.5921 43.5862C84.5921 63.3992 100.633 79.4845 120.372 79.4845C140.06 79.4845 156.118 63.3992 156.118 43.5862C156.118 23.8231 140.11 7.78223 120.372 7.78223Z" fill="#235197"/>

<path d="M224.967 265.577C200.991 265.577 181.529 285.13 181.529 309.219C181.529 333.247 200.991 352.756 224.967 352.756C248.937 352.756 268.411 333.247 268.411 309.219C268.411 285.13 248.987 265.577 224.967 265.577Z" fill="#235197"/>
<path d="M224.967 87.2006C248.932 87.2006 268.405 67.6868 268.405 43.581C268.405 19.5363 248.932 0 224.967 0C200.985 0 181.523 19.5363 181.523 43.581C181.523 67.6868 200.985 87.2006 224.967 87.2006Z" fill="#235197"/>
<path d="M224.968 220.008C200.977 220.008 181.529 200.489 181.529 176.411C181.529 152.333 200.977 132.813 224.968 132.813C248.958 132.813 268.406 152.333 268.406 176.411C268.406 200.489 248.958 220.008 224.968 220.008Z" fill="#235197"/>
</svg>
