<svg width="1025" height="688" viewBox="0 0 1025 688" fill="none" xmlns="http://www.w3.org/2000/svg">
<g opacity="0.05" clip-path="url(#clip0_4_12582)">
<line y1="-0.5" x2="2737.17" y2="-0.5" transform="matrix(0.707235 -0.706979 0.707235 0.706979 -1116.9 1147.4)" stroke="black"/>
<line y1="-0.5" x2="2737.17" y2="-0.5" transform="matrix(0.707235 -0.706979 0.707235 0.706979 -1107.13 1157.17)" stroke="black"/>
<line y1="-0.5" x2="2737.17" y2="-0.5" transform="matrix(0.707235 -0.706979 0.707235 0.706979 -1097.35 1166.95)" stroke="black"/>
<line y1="-0.5" x2="2737.17" y2="-0.5" transform="matrix(0.707235 -0.706979 0.707235 0.706979 -1087.57 1176.72)" stroke="black"/>
<line y1="-0.5" x2="2737.17" y2="-0.5" transform="matrix(0.707235 -0.706979 0.707235 0.706979 -1077.79 1186.49)" stroke="black"/>
<line y1="-0.5" x2="2737.17" y2="-0.5" transform="matrix(0.707235 -0.706979 0.707235 0.706979 -1068.02 1196.26)" stroke="black"/>
<line y1="-0.5" x2="2737.17" y2="-0.5" transform="matrix(0.707235 -0.706979 0.707235 0.706979 -1058.24 1206.04)" stroke="black"/>
<line y1="-0.5" x2="2737.17" y2="-0.5" transform="matrix(0.707235 -0.706979 0.707235 0.706979 -1048.46 1215.81)" stroke="black"/>
<line y1="-0.5" x2="2737.17" y2="-0.5" transform="matrix(0.707235 -0.706979 0.707235 0.706979 -1038.69 1225.59)" stroke="black"/>
<line y1="-0.5" x2="2737.17" y2="-0.5" transform="matrix(0.707235 -0.706979 0.707235 0.706979 -1028.91 1235.36)" stroke="black"/>
<line y1="-0.5" x2="2737.17" y2="-0.5" transform="matrix(0.707235 -0.706979 0.707235 0.706979 -1019.13 1245.13)" stroke="black"/>
<line y1="-0.5" x2="2737.17" y2="-0.5" transform="matrix(0.707235 -0.706979 0.707235 0.706979 -1009.36 1254.91)" stroke="black"/>
<line y1="-0.5" x2="2737.17" y2="-0.5" transform="matrix(0.707235 -0.706979 0.707235 0.706979 -999.578 1264.68)" stroke="black"/>
<line y1="-0.5" x2="2737.17" y2="-0.5" transform="matrix(0.707235 -0.706979 0.707235 0.706979 -989.803 1274.45)" stroke="black"/>
<line y1="-0.5" x2="2737.17" y2="-0.5" transform="matrix(0.707235 -0.706979 0.707235 0.706979 -980.027 1284.23)" stroke="black"/>
<line y1="-0.5" x2="2737.17" y2="-0.5" transform="matrix(0.707235 -0.706979 0.707235 0.706979 -970.248 1294)" stroke="black"/>
<line y1="-0.5" x2="2737.17" y2="-0.5" transform="matrix(0.707235 -0.706979 0.707235 0.706979 -960.473 1303.77)" stroke="black"/>
<line y1="-0.5" x2="2737.17" y2="-0.5" transform="matrix(0.707235 -0.706979 0.707235 0.706979 -950.696 1313.55)" stroke="black"/>
<line y1="-0.5" x2="2737.17" y2="-0.5" transform="matrix(0.707235 -0.706979 0.707235 0.706979 -940.917 1323.32)" stroke="black"/>
<line y1="-0.5" x2="2737.17" y2="-0.5" transform="matrix(0.707235 -0.706979 0.707235 0.706979 -931.141 1333.09)" stroke="black"/>
<line y1="-0.5" x2="2737.17" y2="-0.5" transform="matrix(0.707235 -0.706979 0.707235 0.706979 -921.365 1342.87)" stroke="black"/>
<line y1="-0.5" x2="2737.17" y2="-0.5" transform="matrix(0.707235 -0.706979 0.707235 0.706979 -911.586 1352.64)" stroke="black"/>
<line y1="-0.5" x2="2737.17" y2="-0.5" transform="matrix(0.707235 -0.706979 0.707235 0.706979 -901.811 1362.41)" stroke="black"/>
<line y1="-0.5" x2="2737.17" y2="-0.5" transform="matrix(0.707235 -0.706979 0.707235 0.706979 -892.035 1372.19)" stroke="black"/>
<line y1="-0.5" x2="2737.17" y2="-0.5" transform="matrix(0.707235 -0.706979 0.707235 0.706979 -882.259 1381.96)" stroke="black"/>
<line y1="-0.5" x2="2737.17" y2="-0.5" transform="matrix(0.707235 -0.706979 0.707235 0.706979 -872.479 1391.73)" stroke="black"/>
<line y1="-0.5" x2="2737.17" y2="-0.5" transform="matrix(0.707235 -0.706979 0.707235 0.706979 -862.703 1401.51)" stroke="black"/>
<line y1="-0.5" x2="2737.17" y2="-0.5" transform="matrix(0.707235 -0.706979 0.707235 0.706979 -852.924 1411.28)" stroke="black"/>
<line y1="-0.5" x2="2737.17" y2="-0.5" transform="matrix(0.707235 -0.706979 0.707235 0.706979 -843.148 1421.05)" stroke="black"/>
<line y1="-0.5" x2="2737.17" y2="-0.5" transform="matrix(0.707235 -0.706979 0.707235 0.706979 -833.373 1430.82)" stroke="black"/>
<line y1="-0.5" x2="2737.17" y2="-0.5" transform="matrix(0.707235 -0.706979 0.707235 0.706979 -823.597 1440.6)" stroke="black"/>
<line y1="-0.5" x2="2737.17" y2="-0.5" transform="matrix(0.707235 -0.706979 0.707235 0.706979 -813.818 1450.37)" stroke="black"/>
<line y1="-0.5" x2="2737.17" y2="-0.5" transform="matrix(0.707235 -0.706979 0.707235 0.706979 -804.042 1460.15)" stroke="black"/>
<line y1="-0.5" x2="2737.17" y2="-0.5" transform="matrix(0.707235 -0.706979 0.707235 0.706979 -794.266 1469.92)" stroke="black"/>
<line y1="-0.5" x2="2737.17" y2="-0.5" transform="matrix(0.707235 -0.706979 0.707235 0.706979 -784.486 1479.69)" stroke="black"/>
<line y1="-0.5" x2="2737.17" y2="-0.5" transform="matrix(0.707235 -0.706979 0.707235 0.706979 -774.711 1489.47)" stroke="black"/>
<line y1="-0.5" x2="2737.17" y2="-0.5" transform="matrix(0.707235 -0.706979 0.707235 0.706979 -764.936 1499.24)" stroke="black"/>
<line y1="-0.5" x2="2737.17" y2="-0.5" transform="matrix(0.707235 -0.706979 0.707235 0.706979 -755.159 1509.01)" stroke="black"/>
<line y1="-0.5" x2="2737.17" y2="-0.5" transform="matrix(0.707235 -0.706979 0.707235 0.706979 -745.38 1518.79)" stroke="black"/>
<line y1="-0.5" x2="2737.17" y2="-0.5" transform="matrix(0.707235 -0.706979 0.707235 0.706979 -735.604 1528.56)" stroke="black"/>
<line y1="-0.5" x2="2737.17" y2="-0.5" transform="matrix(0.707235 -0.706979 0.707235 0.706979 -725.828 1538.33)" stroke="black"/>
<line y1="-0.5" x2="2737.17" y2="-0.5" transform="matrix(0.707235 -0.706979 0.707235 0.706979 -716.049 1548.11)" stroke="black"/>
<line y1="-0.5" x2="2737.17" y2="-0.5" transform="matrix(0.707235 -0.706979 0.707235 0.706979 -706.273 1557.88)" stroke="black"/>
<line y1="-0.5" x2="2737.17" y2="-0.5" transform="matrix(0.707235 -0.706979 0.707235 0.706979 -696.498 1567.65)" stroke="black"/>
<line y1="-0.5" x2="2737.17" y2="-0.5" transform="matrix(0.707235 -0.706979 0.707235 0.706979 -686.719 1577.43)" stroke="black"/>
<line y1="-0.5" x2="2737.17" y2="-0.5" transform="matrix(0.707235 -0.706979 0.707235 0.706979 -676.942 1587.2)" stroke="black"/>
<line y1="-0.5" x2="2737.17" y2="-0.5" transform="matrix(0.707234 -0.706979 0.707235 0.706979 -667.166 1596.97)" stroke="black"/>
<line y1="-0.5" x2="2737.17" y2="-0.5" transform="matrix(0.707235 -0.706979 0.707235 0.706979 -657.388 1606.75)" stroke="black"/>
<line y1="-0.5" x2="2737.17" y2="-0.5" transform="matrix(0.707235 -0.706979 0.707235 0.706979 -647.611 1616.52)" stroke="black"/>
<line y1="-0.5" x2="2737.17" y2="-0.5" transform="matrix(0.707235 -0.706979 0.707235 0.706979 -637.836 1626.29)" stroke="black"/>
<line y1="-0.5" x2="2737.17" y2="-0.5" transform="matrix(0.707234 -0.706979 0.707235 0.706979 -628.057 1636.07)" stroke="black"/>
<line y1="-0.5" x2="2737.17" y2="-0.5" transform="matrix(0.707235 -0.706979 0.707235 0.706979 -618.281 1645.84)" stroke="black"/>
<line y1="-0.5" x2="2737.17" y2="-0.5" transform="matrix(0.707235 -0.706979 0.707235 0.706979 -608.505 1655.61)" stroke="black"/>
<line y1="-0.5" x2="2737.17" y2="-0.5" transform="matrix(0.707235 -0.706979 0.707235 0.706979 -598.726 1665.39)" stroke="black"/>
<line y1="-0.5" x2="2737.17" y2="-0.5" transform="matrix(0.707235 -0.706979 0.707235 0.706979 -588.949 1675.16)" stroke="black"/>
<line y1="-0.5" x2="2737.17" y2="-0.5" transform="matrix(0.707235 -0.706979 0.707235 0.706979 -579.174 1684.93)" stroke="black"/>
<line y1="-0.5" x2="2737.17" y2="-0.5" transform="matrix(0.707235 -0.706979 0.707235 0.706979 -569.398 1694.71)" stroke="black"/>
<line y1="-0.5" x2="2737.17" y2="-0.5" transform="matrix(0.707235 -0.706979 0.707235 0.706979 -559.619 1704.48)" stroke="black"/>
<line y1="-0.5" x2="2737.17" y2="-0.5" transform="matrix(0.707235 -0.706979 0.707235 0.706979 -549.843 1714.25)" stroke="black"/>
<line y1="-0.5" x2="2737.17" y2="-0.5" transform="matrix(0.707235 -0.706979 0.707235 0.706979 -540.067 1724.03)" stroke="black"/>
<line y1="-0.5" x2="2737.17" y2="-0.5" transform="matrix(0.707235 -0.706979 0.707235 0.706979 -530.288 1733.8)" stroke="black"/>
<line y1="-0.5" x2="2737.17" y2="-0.5" transform="matrix(0.707235 -0.706979 0.707235 0.706979 -520.512 1743.57)" stroke="black"/>
<line y1="-0.5" x2="2737.17" y2="-0.5" transform="matrix(0.707235 -0.706979 0.707235 0.706979 -510.736 1753.35)" stroke="black"/>
<line y1="-0.5" x2="2737.17" y2="-0.5" transform="matrix(0.707235 -0.706979 0.707235 0.706979 -500.957 1763.12)" stroke="black"/>
<line y1="-0.5" x2="2737.17" y2="-0.5" transform="matrix(0.707235 -0.706979 0.707235 0.706979 -491.182 1772.89)" stroke="black"/>
<line y1="-0.5" x2="2737.17" y2="-0.5" transform="matrix(0.707235 -0.706979 0.707235 0.706979 -481.405 1782.67)" stroke="black"/>
<line y1="-0.5" x2="2737.17" y2="-0.5" transform="matrix(0.707235 -0.706979 0.707235 0.706979 -471.629 1792.44)" stroke="black"/>
<line y1="-0.5" x2="2737.17" y2="-0.5" transform="matrix(0.707235 -0.706979 0.707235 0.706979 -461.851 1802.21)" stroke="black"/>
<line y1="-0.5" x2="2737.17" y2="-0.5" transform="matrix(0.707234 -0.706979 0.707235 0.706979 -452.074 1811.99)" stroke="black"/>
<line y1="-0.5" x2="2737.17" y2="-0.5" transform="matrix(0.707235 -0.706979 0.707235 0.706979 -442.295 1821.76)" stroke="black"/>
<line y1="-0.5" x2="2737.17" y2="-0.5" transform="matrix(0.707234 -0.706979 0.707235 0.706979 -432.52 1831.53)" stroke="black"/>
<line y1="-0.5" x2="2737.17" y2="-0.5" transform="matrix(0.707235 -0.706979 0.707235 0.706979 -422.744 1841.31)" stroke="black"/>
<line y1="-0.5" x2="2737.17" y2="-0.5" transform="matrix(0.707234 -0.706979 0.707235 0.706979 -412.968 1851.08)" stroke="black"/>
<line y1="-0.5" x2="2737.17" y2="-0.5" transform="matrix(0.707235 -0.706979 0.707235 0.706979 -403.188 1860.85)" stroke="black"/>
<line y1="-0.5" x2="2737.17" y2="-0.5" transform="matrix(0.707235 -0.706979 0.707235 0.706979 -393.412 1870.63)" stroke="black"/>
<line y1="-0.5" x2="2737.17" y2="-0.5" transform="matrix(0.707235 -0.706979 0.707235 0.706979 -383.637 1880.4)" stroke="black"/>
<line y1="-0.5" x2="2737.17" y2="-0.5" transform="matrix(0.707235 -0.706979 0.707235 0.706979 -373.857 1890.17)" stroke="black"/>
<line y1="-0.5" x2="2737.17" y2="-0.5" transform="matrix(0.707235 -0.706979 0.707235 0.706979 -364.082 1899.95)" stroke="black"/>
<line y1="-0.5" x2="2737.17" y2="-0.5" transform="matrix(0.707235 -0.706979 0.707235 0.706979 -354.307 1909.72)" stroke="black"/>
<line y1="-0.5" x2="2737.17" y2="-0.5" transform="matrix(0.707235 -0.706979 0.707235 0.706979 -344.53 1919.49)" stroke="black"/>
<line y1="-0.5" x2="2737.17" y2="-0.5" transform="matrix(0.707235 -0.706979 0.707235 0.706979 -334.751 1929.27)" stroke="black"/>
<line y1="-0.5" x2="2737.17" y2="-0.5" transform="matrix(0.707235 -0.706979 0.707235 0.706979 -324.975 1939.04)" stroke="black"/>
<line y1="-0.5" x2="2737.17" y2="-0.5" transform="matrix(0.707235 -0.706979 0.707235 0.706979 -315.199 1948.81)" stroke="black"/>
<line y1="-0.5" x2="2737.17" y2="-0.5" transform="matrix(0.707235 -0.706979 0.707235 0.706979 -305.42 1958.59)" stroke="black"/>
<line y1="-0.5" x2="2737.17" y2="-0.5" transform="matrix(0.707235 -0.706979 0.707235 0.706979 -295.645 1968.36)" stroke="black"/>
<line y1="-0.5" x2="2737.17" y2="-0.5" transform="matrix(0.707235 -0.706979 0.707235 0.706979 -285.868 1978.13)" stroke="black"/>
<line y1="-0.5" x2="2737.17" y2="-0.5" transform="matrix(0.707235 -0.706979 0.707235 0.706979 -276.09 1987.91)" stroke="black"/>
<line y1="-0.5" x2="2737.17" y2="-0.5" transform="matrix(0.707235 -0.706979 0.707235 0.706979 -266.313 1997.68)" stroke="black"/>
<line y1="-0.5" x2="2737.17" y2="-0.5" transform="matrix(0.707235 -0.706979 0.707235 0.706979 -256.537 2007.45)" stroke="black"/>
<line y1="-0.5" x2="2737.17" y2="-0.5" transform="matrix(0.707235 -0.706979 0.707235 0.706979 -246.758 2017.23)" stroke="black"/>
<line y1="-0.5" x2="2737.17" y2="-0.5" transform="matrix(0.707235 -0.706979 0.707235 0.706979 -236.982 2027)" stroke="black"/>
<line y1="-0.5" x2="2737.17" y2="-0.5" transform="matrix(0.707235 -0.706979 0.707235 0.706979 -227.207 2036.77)" stroke="black"/>
<line y1="-0.5" x2="2737.17" y2="-0.5" transform="matrix(0.707235 -0.706979 0.707235 0.706979 -217.428 2046.55)" stroke="black"/>
<line y1="-0.5" x2="2737.17" y2="-0.5" transform="matrix(0.707234 -0.706979 0.707235 0.706979 -207.652 2056.32)" stroke="black"/>
<line y1="-0.5" x2="2737.17" y2="-0.5" transform="matrix(0.707235 -0.706979 0.707235 0.706979 -197.876 2066.09)" stroke="black"/>
<line y1="-0.5" x2="2737.17" y2="-0.5" transform="matrix(0.707235 -0.706979 0.707235 0.706979 -188.097 2075.87)" stroke="black"/>
<line y1="-0.5" x2="2737.17" y2="-0.5" transform="matrix(0.707235 -0.706979 0.707235 0.706979 -178.32 2085.64)" stroke="black"/>
<line y1="-0.5" x2="2737.17" y2="-0.5" transform="matrix(0.707235 -0.706979 0.707235 0.706979 -168.545 2095.41)" stroke="black"/>
<line y1="-0.5" x2="2737.17" y2="-0.5" transform="matrix(0.707235 -0.706979 0.707235 0.706979 -158.77 2105.19)" stroke="black"/>
<line y1="-0.5" x2="2737.17" y2="-0.5" transform="matrix(0.707235 -0.706979 0.707235 0.706979 -148.99 2114.96)" stroke="black"/>
<line y1="-0.5" x2="2737.17" y2="-0.5" transform="matrix(0.707235 -0.706979 0.707235 0.706979 -139.214 2124.73)" stroke="black"/>
<line y1="-0.5" x2="2737.17" y2="-0.5" transform="matrix(0.707235 -0.706979 0.707235 0.706979 -129.438 2134.51)" stroke="black"/>
<line y1="-0.5" x2="2737.17" y2="-0.5" transform="matrix(0.707235 -0.706979 0.707235 0.706979 -119.659 2144.28)" stroke="black"/>
<line y1="-0.5" x2="2737.17" y2="-0.5" transform="matrix(0.707235 -0.706979 0.707235 0.706979 -109.883 2154.05)" stroke="black"/>
<line y1="-0.5" x2="2737.17" y2="-0.5" transform="matrix(0.707235 -0.706979 0.707235 0.706979 -100.107 2163.83)" stroke="black"/>
<line y1="-0.5" x2="2737.17" y2="-0.5" transform="matrix(0.707235 -0.706979 0.707235 0.706979 -90.3281 2173.6)" stroke="black"/>
<line y1="-0.5" x2="2737.17" y2="-0.5" transform="matrix(0.707235 -0.706979 0.707235 0.706979 -80.5527 2183.37)" stroke="black"/>
<line y1="-0.5" x2="2737.17" y2="-0.5" transform="matrix(0.707235 -0.706979 0.707235 0.706979 -70.7764 2193.15)" stroke="black"/>
<line y1="-0.5" x2="2737.17" y2="-0.5" transform="matrix(0.707235 -0.706979 0.707235 0.706979 -61 2202.92)" stroke="black"/>
<line y1="-0.5" x2="2737.17" y2="-0.5" transform="matrix(0.707235 -0.706979 0.707235 0.706979 -51.2217 2212.69)" stroke="black"/>
<line y1="-0.5" x2="2737.17" y2="-0.5" transform="matrix(0.707234 -0.706979 0.707235 0.706979 -41.4453 2222.47)" stroke="black"/>
<line y1="-0.5" x2="2737.17" y2="-0.5" transform="matrix(0.707235 -0.706979 0.707235 0.706979 -31.6699 2232.24)" stroke="black"/>
<line y1="-0.5" x2="2737.17" y2="-0.5" transform="matrix(0.707235 -0.706979 0.707235 0.706979 -21.8906 2242.01)" stroke="black"/>
<line y1="-0.5" x2="2737.17" y2="-0.5" transform="matrix(0.707235 -0.706979 0.707235 0.706979 -12.1152 2251.79)" stroke="black"/>
<line y1="-0.5" x2="2737.17" y2="-0.5" transform="matrix(0.707235 -0.706979 0.707235 0.706979 -2.33594 2261.56)" stroke="black"/>
<line y1="-0.5" x2="2737.17" y2="-0.5" transform="matrix(0.707235 -0.706979 0.707235 0.706979 7.44043 2271.33)" stroke="black"/>
<line y1="-0.5" x2="2737.17" y2="-0.5" transform="matrix(0.707235 -0.706979 0.707235 0.706979 17.2168 2281.11)" stroke="black"/>
<line y1="-0.5" x2="2737.17" y2="-0.5" transform="matrix(0.707235 -0.706979 0.707235 0.706979 26.9922 2290.88)" stroke="black"/>
<line y1="-0.5" x2="2737.17" y2="-0.5" transform="matrix(0.707235 -0.706979 0.707235 0.706979 36.7715 2300.65)" stroke="black"/>
<line y1="-0.5" x2="2737.17" y2="-0.5" transform="matrix(0.707235 -0.706979 0.707235 0.706979 46.5469 2310.43)" stroke="black"/>
<line y1="-0.5" x2="2737.17" y2="-0.5" transform="matrix(0.707235 -0.706979 0.707235 0.706979 56.3232 2320.2)" stroke="black"/>
<line y1="-0.5" x2="2737.17" y2="-0.5" transform="matrix(0.707235 -0.706979 0.707235 0.706979 66.1016 2329.97)" stroke="black"/>
<line y1="-0.5" x2="2737.17" y2="-0.5" transform="matrix(0.707235 -0.706979 0.707235 0.706979 75.8779 2339.75)" stroke="black"/>
<line y1="-0.5" x2="2737.17" y2="-0.5" transform="matrix(0.707234 -0.706979 0.707235 0.706979 85.6543 2349.52)" stroke="black"/>
<line y1="-0.5" x2="2737.17" y2="-0.5" transform="matrix(0.707235 -0.706979 0.707235 0.706979 95.4297 2359.3)" stroke="black"/>
<line y1="-0.5" x2="2737.17" y2="-0.5" transform="matrix(0.707235 -0.706979 0.707235 0.706979 105.209 2369.07)" stroke="black"/>
<line y1="-0.5" x2="2737.17" y2="-0.5" transform="matrix(0.707235 -0.706979 0.707235 0.706979 114.984 2378.84)" stroke="black"/>
<line y1="-0.5" x2="2737.17" y2="-0.5" transform="matrix(0.707235 -0.706979 0.707235 0.706979 124.761 2388.61)" stroke="black"/>
<line y1="-0.5" x2="2737.17" y2="-0.5" transform="matrix(0.707235 -0.706979 0.707235 0.706979 134.54 2398.39)" stroke="black"/>
<line y1="-0.5" x2="2737.17" y2="-0.5" transform="matrix(0.707235 -0.706979 0.707235 0.706979 144.315 2408.16)" stroke="black"/>
<line y1="-0.5" x2="2737.17" y2="-0.5" transform="matrix(0.707235 -0.706979 0.707235 0.706979 154.092 2417.93)" stroke="black"/>
<line y1="-0.5" x2="2737.17" y2="-0.5" transform="matrix(0.707235 -0.706979 0.707235 0.706979 163.871 2427.71)" stroke="black"/>
<line y1="-0.5" x2="2737.17" y2="-0.5" transform="matrix(0.707235 -0.706979 0.707235 0.706979 173.646 2437.48)" stroke="black"/>
<line y1="-0.5" x2="2737.17" y2="-0.5" transform="matrix(0.707235 -0.706979 0.707235 0.706979 183.422 2447.26)" stroke="black"/>
<line y1="-0.5" x2="2737.17" y2="-0.5" transform="matrix(0.707235 -0.706979 0.707235 0.706979 193.201 2457.03)" stroke="black"/>
<line y1="-0.5" x2="2737.17" y2="-0.5" transform="matrix(0.707235 -0.706979 0.707235 0.706979 202.978 2466.8)" stroke="black"/>
<line y1="-0.5" x2="2737.17" y2="-0.5" transform="matrix(0.707235 -0.706979 0.707235 0.706979 212.754 2476.57)" stroke="black"/>
<line y1="-0.5" x2="2737.17" y2="-0.5" transform="matrix(0.707235 -0.706979 0.707235 0.706979 222.529 2486.35)" stroke="black"/>
<line y1="-0.5" x2="2737.17" y2="-0.5" transform="matrix(0.707235 -0.706979 0.707235 0.706979 232.309 2496.12)" stroke="black"/>
<line y1="-0.5" x2="2737.17" y2="-0.5" transform="matrix(0.707235 -0.706979 0.707235 0.706979 242.084 2505.89)" stroke="black"/>
<line y1="-0.5" x2="2737.17" y2="-0.5" transform="matrix(0.707235 -0.706979 0.707235 0.706979 251.863 2515.67)" stroke="black"/>
<line y1="-0.5" x2="2737.17" y2="-0.5" transform="matrix(0.707235 -0.706979 0.707235 0.706979 261.639 2525.44)" stroke="black"/>
<line y1="-0.5" x2="2737.17" y2="-0.5" transform="matrix(0.707234 -0.706979 0.707235 0.706979 271.415 2535.22)" stroke="black"/>
<line y1="-0.5" x2="2737.17" y2="-0.5" transform="matrix(0.707234 -0.706979 0.707235 0.706979 281.191 2544.99)" stroke="black"/>
<line y1="-0.5" x2="2737.17" y2="-0.5" transform="matrix(0.707235 -0.706979 0.707235 0.706979 290.97 2554.76)" stroke="black"/>
<line y1="-0.5" x2="2737.17" y2="-0.5" transform="matrix(0.707234 -0.706979 0.707235 0.706979 300.746 2564.53)" stroke="black"/>
<line y1="-0.5" x2="2737.17" y2="-0.5" transform="matrix(0.707234 -0.706979 0.707235 0.706979 310.521 2574.31)" stroke="black"/>
<line y1="-0.5" x2="2737.17" y2="-0.5" transform="matrix(0.707235 -0.706979 0.707235 0.706979 320.301 2584.08)" stroke="black"/>
<line y1="-0.5" x2="2737.17" y2="-0.5" transform="matrix(0.707235 -0.706979 0.707235 0.706979 330.076 2593.85)" stroke="black"/>
<line y1="-0.5" x2="2737.17" y2="-0.5" transform="matrix(0.707235 -0.706979 0.707235 0.706979 339.853 2603.63)" stroke="black"/>
<line y1="-0.5" x2="2737.17" y2="-0.5" transform="matrix(0.707235 -0.706979 0.707235 0.706979 349.629 2613.4)" stroke="black"/>
<line y1="-0.5" x2="2737.17" y2="-0.5" transform="matrix(0.707235 -0.706979 0.707235 0.706979 359.408 2623.17)" stroke="black"/>
</g>
<defs>
<clipPath id="clip0_4_12582">
<rect width="1025" height="688" fill="white"/>
</clipPath>
</defs>
</svg>
