<svg width="48" height="48" viewBox="0 0 48 48" fill="none" xmlns="http://www.w3.org/2000/svg">
<path d="M5.28059 24.8158H7.16262V27.1408C7.16262 27.4064 7.37724 27.621 7.64276 27.621H7.90828V42.741C7.90828 43.0065 8.1229 43.2211 8.38841 43.2211H12.5884C12.8539 43.2211 13.0686 43.0065 13.0686 42.741V27.621H13.3344C13.5999 27.621 13.8145 27.4064 13.8145 27.1408L13.8139 24.8158H20.675V27.1408C20.675 27.4064 20.8897 27.621 21.1552 27.621H21.481V42.741C21.481 43.0065 21.6956 43.2211 21.9611 43.2211H26.1611C26.4266 43.2211 26.6412 43.0065 26.6412 42.741V27.621H26.8471C27.1127 27.621 27.3273 27.4064 27.3273 27.1408L27.327 24.8158H34.308V27.1408C34.308 27.4064 34.5226 27.621 34.7881 27.621H35.0539V42.741C35.0539 43.0065 35.2686 43.2211 35.5341 43.2211H39.7341C39.9996 43.2211 40.2142 43.0065 40.2142 42.741V27.621H40.4797C40.7453 27.621 40.9599 27.4064 40.9599 27.1408L40.9595 24.8158H42.7204C42.9859 24.8158 43.2005 24.6012 43.2005 24.3357V21.7555C43.2005 21.49 42.9859 21.2754 42.7204 21.2754H40.9582L40.9585 9.93197C40.9585 9.76254 40.8691 9.60618 40.7248 9.52014L32.9633 4.88959C32.8889 4.84506 32.8039 4.82129 32.7172 4.82129H15.4046C15.3179 4.82129 15.2332 4.84473 15.1585 4.88959L7.397 9.52014C7.25202 9.60652 7.16329 9.76288 7.16329 9.93197V21.2763L5.28092 21.2759C5.0154 21.2759 4.80078 21.4905 4.80078 21.7561V24.3362C4.80078 24.6011 5.0154 24.816 5.28092 24.816L5.28059 24.8158ZM12.1079 29.4806H10.6856C10.4201 29.4806 10.2054 29.6952 10.2054 29.9607C10.2054 30.2262 10.4201 30.4409 10.6856 30.4409H12.1079V35.8368H10.6856C10.4201 35.8368 10.2054 36.0514 10.2054 36.317C10.2054 36.5825 10.4201 36.7971 10.6856 36.7971H12.1079V42.2614H8.86782V39.9666H10.4877C10.7532 39.9666 10.9678 39.7519 10.9678 39.4864C10.9678 39.2209 10.7532 39.0063 10.4877 39.0063H8.86782V33.6096H10.4877C10.7532 33.6096 10.9678 33.395 10.9678 33.1295C10.9678 32.864 10.7532 32.6494 10.4877 32.6494H8.86782V27.6207H12.1079V29.4806ZM12.8536 26.6604H8.12255V24.8158H12.8536V26.6604ZM25.6807 29.4806H24.2584C23.9928 29.4806 23.7782 29.6952 23.7782 29.9607C23.7782 30.2262 23.9928 30.4409 24.2584 30.4409L25.6807 30.4405V35.8368H24.2584C23.9928 35.8368 23.7782 36.0515 23.7782 36.317C23.7782 36.5825 23.9928 36.7971 24.2584 36.7971L25.6807 36.7968V42.2611H22.4406V39.9662H24.0604C24.326 39.9662 24.5406 39.7516 24.5406 39.4861C24.5406 39.2206 24.326 39.006 24.0604 39.006L22.4406 39.0063V33.6096H24.0604C24.326 33.6096 24.5406 33.395 24.5406 33.1295C24.5406 32.864 24.326 32.6494 24.0604 32.6494H22.4406V27.6207H25.6807V29.4806ZM26.3664 26.6604H21.6351V24.8158H26.3664V26.6604ZM39.2527 29.4806H37.83C37.5645 29.4806 37.3499 29.6952 37.3499 29.9607C37.3499 30.2262 37.5645 30.4409 37.83 30.4409H39.2527V35.8368H37.83C37.5645 35.8368 37.3499 36.0514 37.3499 36.317C37.3499 36.5825 37.5645 36.7971 37.83 36.7971H39.2527V42.2614H36.0126V39.9666H37.6324C37.898 39.9666 38.1126 39.7519 38.1126 39.4864C38.1126 39.2209 37.898 39.0063 37.6324 39.0063H36.0126V33.6096H37.6324C37.898 33.6096 38.1126 33.395 38.1126 33.1295C38.1126 32.864 37.898 32.6494 37.6324 32.6494H36.0126V27.6207H39.2527V29.4806ZM39.998 26.6604H35.267L35.2674 24.8158H39.9983L39.998 26.6604ZM8.12258 10.2033L15.5362 5.77998H32.5848L39.9984 10.2033V21.275H38.5894V11.603C38.5894 11.4336 38.5 11.2772 38.3557 11.1912L31.7138 7.22884C31.6395 7.18431 31.5545 7.16053 31.4678 7.16053H16.652C16.5653 7.16053 16.4806 7.18397 16.4059 7.22884L9.76411 11.1912C9.61914 11.2775 9.5304 11.4339 9.5304 11.603V21.275H8.12143L8.12177 10.2033H8.12258ZM31.7403 8.36178L37.2311 11.6374L31.7403 19.961V8.36178ZM16.3589 19.9606L10.8742 11.646L16.3585 8.37447L16.3589 19.9606ZM10.4901 12.8082L16.0752 21.2748H10.4901V12.8082ZM17.3188 9.92573L23.2468 21.2752H17.3188V9.92573ZM17.4587 8.12007H30.6399L24.0496 20.7381L17.4587 8.12007ZM30.7796 9.92573V21.2752H24.8516L30.7796 9.92573ZM37.629 12.7764V21.2752H32.0228L37.629 12.7764ZM5.75959 22.2358H42.2396V23.8557H5.75959V22.2358Z" fill="#7B7C7C"/>
</svg>
