<svg width="48" height="48" viewBox="0 0 48 48" fill="none" xmlns="http://www.w3.org/2000/svg">
<g clip-path="url(#clip0_4_2139)">
<path d="M47.2974 35.4839C47.6818 35.4839 48.0005 35.1651 48.0005 34.7808V13.7431C48.0005 13.3587 47.6818 13.0399 47.2974 13.0399C46.913 13.0399 46.5943 13.3587 46.5943 13.7431V14.5399H45.9849L31.1066 6.03682C30.4316 5.65244 29.5973 5.65244 28.9128 6.03682L22.8753 9.48682L19.6034 8.08059C19.0503 7.84621 18.4222 7.84621 17.8691 8.08059L2.8125 14.5399H1.40627V13.7431C1.40627 13.3587 1.08752 13.0399 0.703149 13.0399C0.31878 13.0399 2.5504e-05 13.3493 2.5504e-05 13.7431V34.7808C2.5504e-05 35.1651 0.31878 35.4839 0.703149 35.4839H1.83749L3.05626 37.2746C2.55939 37.7996 2.25939 38.5121 2.25939 39.2902C2.25939 39.8621 2.41876 40.3871 2.70001 40.8371H0.703123C0.318746 40.8371 0 41.1558 0 41.5402C0 41.9246 0.318754 42.2433 0.703123 42.2433H47.2966C47.6809 42.2433 47.9997 41.9246 47.9997 41.5402C47.9997 41.1558 47.6809 40.8371 47.2966 40.8371H45.4684C45.7497 40.3871 45.9091 39.8527 45.9091 39.2902C45.9091 38.5121 45.6091 37.7996 45.1122 37.2746L46.331 35.4839H47.2974ZM29.6163 7.26504C29.86 7.12441 30.1694 7.12441 30.4131 7.26504L43.1537 14.54H34.6694L27.7881 11.5963C27.7788 11.5963 27.7694 11.5869 27.7694 11.5869L24.5069 10.19L29.6163 7.26504ZM18.4228 9.37438C18.6197 9.29 18.8541 9.29 19.051 9.37438L28.5387 13.4431C28.548 13.4431 28.5574 13.4525 28.5668 13.4525L31.0887 14.5306H6.38582L18.4228 9.37438ZM1.40683 15.9463H46.5945V17.5494H1.40683V15.9463ZM42.7134 22.7619V34.0779H40.2384V18.9562H42.7134V22.7619ZM38.8322 18.9557V34.0868H36.3572V18.9557H38.8322ZM34.9509 18.9557V34.0868H32.4759V18.9557H34.9509ZM31.0603 18.9557V34.0868H28.5853V18.9557H31.0603ZM27.1791 18.9557V34.0868H24.7041V18.9557H27.1791ZM23.2978 18.9557V34.0868H20.8228V18.9557H23.2978ZM19.4166 18.9557V34.0868H16.9416V18.9557H19.4166ZM15.5354 18.9557V34.0868H13.0604V18.9557H15.5354ZM11.6541 18.9557V34.0868H9.1698V18.9557H11.6541ZM5.28849 30.2717V18.9471H7.76349V34.0783H5.28849V30.2717ZM1.40726 34.0779V18.9562H3.88226V34.0874H1.40726V34.0779ZM5.21349 40.8467C4.36036 40.8467 3.6666 40.1529 3.6666 39.2998C3.6666 38.4467 4.36035 37.7529 5.21349 37.7529C6.06662 37.7529 6.76037 38.4467 6.76037 39.2998C6.76037 40.1529 6.06662 40.8467 5.21349 40.8467ZM7.72594 40.8467C8.00719 40.3967 8.16657 39.8623 8.16657 39.2998V39.2529H9.76968V39.2998C9.76968 39.8717 9.92906 40.3967 10.2103 40.8467H7.72594ZM12.7322 40.8467C11.879 40.8467 11.1853 40.1529 11.1853 39.2998C11.1853 38.4467 11.879 37.7529 12.7322 37.7529C13.5853 37.7529 14.2791 38.4467 14.2791 39.2998C14.2791 40.1529 13.5853 40.8467 12.7322 40.8467ZM15.2446 40.8467C15.5259 40.3967 15.6853 39.8623 15.6853 39.2998V39.2529H32.4853V39.2998C32.4853 39.8717 32.6446 40.3967 32.9259 40.8467H15.2446ZM35.4381 40.8467C34.5849 40.8467 33.8912 40.1529 33.8912 39.2998C33.8912 38.4467 34.5849 37.7529 35.4381 37.7529C36.2912 37.7529 36.9849 38.4467 36.9849 39.2998C36.9849 40.1529 36.2912 40.8467 35.4381 40.8467ZM37.9505 40.8467C38.2318 40.3967 38.3911 39.8623 38.3911 39.2998V39.2529H39.9943V39.2998C39.9943 39.8717 40.1536 40.3967 40.4349 40.8467H37.9505ZM42.9567 40.8467C42.1036 40.8467 41.4099 40.1529 41.4099 39.2998C41.4099 38.4467 42.1036 37.7529 42.9567 37.7529C43.8099 37.7529 44.5036 38.4467 44.5036 39.2998C44.5036 40.1529 43.8099 40.8467 42.9567 40.8467ZM43.9317 36.4967C43.6224 36.3842 43.2942 36.3279 42.9474 36.3279C41.8412 36.3279 40.8849 36.9373 40.3693 37.8279H37.9974C37.4912 36.9279 36.5255 36.3279 35.4193 36.3279C34.3131 36.3279 33.3568 36.9373 32.8412 37.8279H15.3006C14.7944 36.9279 13.8287 36.3279 12.7225 36.3279C11.6163 36.3279 10.66 36.9373 10.1444 37.8279H7.78191C7.27567 36.9279 6.31003 36.3279 5.2038 36.3279C4.85692 36.3279 4.5288 36.3842 4.21946 36.4967L3.5257 35.4842H44.6257L43.9317 36.4967ZM44.1192 34.0779V18.9562H46.5942V34.0874H44.1192V34.0779Z" fill="#7B7C7C"/>
</g>
<defs>
<clipPath id="clip0_4_2139">
<rect width="48" height="48" fill="white"/>
</clipPath>
</defs>
</svg>
