<svg width="48" height="48" viewBox="0 0 48 48" fill="none" xmlns="http://www.w3.org/2000/svg">
<path d="M20.16 2.88039V4.80022H23.5199V6.96013C23.5199 7.36727 23.4834 7.6281 23.31 7.8903C23.1362 8.15247 22.7887 8.44376 22.0798 8.76013L22.0802 8.76047C22.0748 8.76515 22.0701 8.77018 22.0651 8.7752C20.3937 9.55031 19.2 11.2375 19.2 13.2601C19.2 15.0759 20.1418 16.6799 21.5552 17.5502L9.46517 24.0002H4.80008C4.5349 24.0005 4.31995 24.2152 4.31995 24.4803V44.6403C4.31995 44.9055 4.5349 45.1205 4.80008 45.1205H43.2001C43.4653 45.1205 43.6802 44.9055 43.6802 44.6403V24.4803C43.6802 24.2152 43.4653 24.0005 43.2001 24.0002H38.535L26.445 17.5502C27.8579 16.68 28.8002 15.0759 28.8002 13.2601V13.2604C28.8018 13.1319 28.7523 13.008 28.6619 12.9166C28.5718 12.8248 28.4486 12.7736 28.32 12.7736C28.1918 12.7736 28.0686 12.8248 27.9782 12.9166C27.8881 13.008 27.8382 13.1319 27.8402 13.2604C27.8402 14.9721 26.8327 16.4111 25.4101 16.9954L24.2251 16.3656V16.3652C24.124 16.3113 24.0068 16.2952 23.895 16.3204C23.8532 16.3297 23.813 16.3451 23.7751 16.3652L22.5902 16.995C21.1675 16.4108 20.1601 14.9717 20.1601 13.2601C20.1601 11.6145 21.1193 10.2715 22.47 9.64503C23.2732 9.28643 23.7925 8.90139 24.1049 8.42994C24.4173 7.95851 24.4799 7.44457 24.4799 6.96011V4.8002H27.8398V2.88037H20.1596L20.16 2.88039ZM22.6798 18.0458C23.1 18.171 23.5407 18.2407 23.9997 18.2407C24.4587 18.2407 24.8997 18.1707 25.3195 18.0458L36.4795 24.001H11.5195L22.6795 18.0458H22.6798ZM5.27983 24.9606H9.11992V44.1606H5.27983V24.9606ZM10.0798 24.9606H13.9199V44.1606H10.0798V24.9606ZM14.8798 24.9606H18.7199V44.1606H14.8798V24.9606ZM19.6798 24.9606H23.5199V44.1606H19.6798V24.9606ZM24.4798 24.9606H28.3199V44.1606H24.4798V24.9606ZM29.2798 24.9606H33.1199V44.1606H29.2798V24.9606ZM34.0798 24.9606H37.9199V44.1606H34.0798V24.9606ZM38.8798 24.9606H42.7199V44.1606H38.8798V24.9606Z" fill="#7B7C7C"/>
</svg>
