<svg width="48" height="48" viewBox="0 0 48 48" fill="none" xmlns="http://www.w3.org/2000/svg">
<path d="M42.2832 37.1838C42.2829 37.1842 42.2822 37.1842 42.2812 37.1838H34.7812C34.6476 37.1838 34.5207 37.1272 34.4317 37.0275C34.3426 36.928 34.3004 36.7951 34.3155 36.6628L35.0528 30.1124L35.5155 22.4805L35.9039 10.4505C35.9039 10.4461 35.9042 10.4418 35.9046 10.4374L36.1885 5.74986C36.2036 5.50243 36.4085 5.30957 36.6562 5.30957H40.4062C40.6574 5.30957 40.8636 5.50745 40.8746 5.75823L41.7077 24.9968L45.0937 24.9961C45.3526 24.9961 45.5625 25.2061 45.5625 25.4649V29.2149C45.5625 29.4737 45.3526 29.6836 45.0937 29.6836H42.0067L42.7426 36.6232C42.7486 36.6526 42.7516 36.6838 42.7516 36.7149C42.752 36.9737 42.542 37.1837 42.2832 37.1837L42.2832 37.1838ZM35.3059 36.2463H41.7603L41.02 29.2646C41.006 29.1323 41.0488 29.0008 41.1375 28.9016C41.2263 28.8029 41.3532 28.7463 41.4861 28.7463H44.625V25.9338H41.2584C41.0073 25.9338 40.8011 25.7359 40.79 25.4855L39.957 6.24692H37.0969L36.8401 10.4875L36.4518 22.5175C36.4518 22.5218 36.4514 22.5262 36.4511 22.5309L35.9873 30.1815C35.9867 30.1896 35.986 30.1976 35.9853 30.2057L35.3059 36.2463Z" fill="#7B7C7C"/>
<path d="M23.5314 12.8094C21.0694 12.8094 18.6487 12.1304 16.3364 10.7908C14.3325 9.62994 12.4779 7.99605 10.974 6.06611C10.8149 5.86187 10.8514 5.56723 11.0557 5.40819C11.2599 5.24914 11.5546 5.28564 11.7136 5.48988C14.8278 9.48596 19.2457 11.8716 23.5319 11.8716C29.1613 11.8716 32.5002 10.2001 36.2913 5.48414C36.4534 5.28224 36.7487 5.25043 36.9502 5.41249C37.1521 5.57454 37.184 5.86985 37.0219 6.07142C33.0734 10.9833 29.4171 12.8093 23.5313 12.8093L23.5314 12.8094Z" fill="#7B7C7C"/>
<path d="M46.0312 11.0761C45.9559 11.0761 45.8792 11.0577 45.8082 11.0195C43.6436 9.84627 41.6481 8.13335 40.0365 6.06549C39.8775 5.86125 39.914 5.56661 40.1182 5.40757C40.3225 5.24852 40.6168 5.28502 40.7762 5.48926C42.3086 7.45564 44.203 9.08326 46.2549 10.1951C46.4825 10.3184 46.5669 10.603 46.4437 10.8306C46.359 10.9873 46.1976 11.0761 46.0312 11.0761L46.0312 11.0761Z" fill="#7B7C7C"/>
<path d="M1.96916 11.0761C1.80275 11.0761 1.64137 10.9873 1.55666 10.8306C1.43344 10.603 1.51782 10.3187 1.7455 10.1951C3.79698 9.08317 5.6917 7.45598 7.22418 5.48926C7.38322 5.28502 7.67787 5.24853 7.88211 5.40757C8.08635 5.56661 8.12284 5.86125 7.9638 6.06549C6.35229 8.13335 4.35677 9.84626 2.19215 11.0195C2.12116 11.058 2.04449 11.0761 1.96915 11.0761L1.96916 11.0761Z" fill="#7B7C7C"/>
<path d="M13.2188 37.1838H5.71878C5.58585 37.1838 5.45929 37.1272 5.37023 37.0285C5.2815 36.9297 5.23864 36.7978 5.25271 36.6655L5.993 29.6838H2.90625C2.64744 29.6838 2.4375 29.4739 2.4375 29.2151V25.4651C2.4375 25.2063 2.64743 24.9963 2.90625 24.9963H6.29265L7.12569 5.75775C7.13641 5.50696 7.34299 5.30908 7.5941 5.30908H11.3441C11.5919 5.30908 11.7971 5.50227 11.8118 5.74937L12.0958 10.4369C12.0961 10.4413 12.0961 10.446 12.0964 10.4506L12.4614 22.0924L12.9476 30.1127L13.6848 36.6631C13.6999 36.7957 13.6574 36.9283 13.5687 37.0277C13.4793 37.1275 13.352 37.1844 13.2188 37.1844L13.2188 37.1838ZM6.23975 36.2463H12.6941L12.0141 30.2051C12.0131 30.1971 12.0124 30.1891 12.0121 30.181L11.5249 22.142C11.5246 22.1376 11.5246 22.1329 11.5243 22.1282L11.1593 10.4865L10.9025 6.24632L8.0428 6.24599L7.20976 25.4846C7.19905 25.7354 6.99246 25.9329 6.74135 25.9329L3.3751 25.9332V28.7457H6.51438C6.64731 28.7457 6.77386 28.8023 6.86293 28.901C6.95166 28.9998 6.99452 29.1317 6.98045 29.264L6.23975 36.2463Z" fill="#7B7C7C"/>
<path d="M45.093 29.6836H2.90528C2.64646 29.6836 2.43652 29.4737 2.43652 29.2148V25.4648C2.43652 25.206 2.64646 24.9961 2.90528 24.9961H45.093C45.3518 24.9961 45.5618 25.206 45.5618 25.4648V29.2148C45.5618 29.4737 45.3518 29.6836 45.093 29.6836ZM3.37414 28.7461H44.6241V25.9336H3.37414V28.7461Z" fill="#7B7C7C"/>
<path d="M31.9688 19.3716C31.7099 19.3716 31.5 19.1617 31.5 18.9029V10.4653C31.5 10.2065 31.7099 9.99658 31.9688 9.99658C32.2276 9.99658 32.4375 10.2065 32.4375 10.4653V18.9029C32.4375 19.1617 32.2276 19.3716 31.9688 19.3716Z" fill="#7B7C7C"/>
<path d="M28.2188 20.3091C27.9599 20.3091 27.75 20.0992 27.75 19.8403V12.3403C27.75 12.0815 27.9599 11.8716 28.2188 11.8716C28.4776 11.8716 28.6875 12.0815 28.6875 12.3403V19.8403C28.6875 20.0992 28.4776 20.3091 28.2188 20.3091Z" fill="#7B7C7C"/>
<path d="M24.4688 22.184C24.2099 22.184 24 21.9741 24 21.7153V12.3398C24 12.081 24.2099 11.8711 24.4688 11.8711C24.7276 11.8711 24.9375 12.081 24.9375 12.3398V21.7153C24.9375 21.9741 24.7276 22.184 24.4688 22.184Z" fill="#7B7C7C"/>
<path d="M20.7188 20.3091C20.4599 20.3091 20.25 20.0992 20.25 19.8403V12.3403C20.25 12.0815 20.4599 11.8716 20.7188 11.8716C20.9776 11.8716 21.1875 12.0815 21.1875 12.3403V19.8403C21.1875 20.0992 20.9776 20.3091 20.7188 20.3091Z" fill="#7B7C7C"/>
<path d="M16.9688 19.3716C16.7099 19.3716 16.5 19.1617 16.5 18.9028V11.4028C16.5 11.144 16.7099 10.9341 16.9688 10.9341C17.2276 10.9341 17.4375 11.144 17.4375 11.4028V18.9028C17.4375 19.1617 17.2276 19.3716 16.9688 19.3716Z" fill="#7B7C7C"/>
<path d="M46.031 39.9961H1.96875C1.70994 39.9961 1.5 39.7862 1.5 39.5273C1.5 39.2685 1.70993 39.0586 1.96875 39.0586H46.031C46.2899 39.0586 46.4998 39.2685 46.4998 39.5273C46.4998 39.7862 46.2899 39.9961 46.031 39.9961Z" fill="#7B7C7C"/>
<path d="M16.2174 45.504C14.4536 45.504 13.0497 44.6023 12.9616 44.5448C12.9566 44.5415 12.9519 44.5381 12.9469 44.5348C11.9237 43.8062 10.9226 43.5808 9.97168 43.8638C9.28128 44.0694 8.87042 44.4762 8.86674 44.4802C8.68593 44.6653 8.38928 44.669 8.20379 44.4882C8.01863 44.3074 8.01495 44.0104 8.19575 43.8253C8.21785 43.8028 10.429 41.5984 13.4819 43.7647C13.6601 43.8788 16.271 45.496 18.5625 43.7777C18.7697 43.6224 19.0634 43.6642 19.2187 43.8715C19.3741 44.0787 19.3322 44.3724 19.125 44.5277C18.1483 45.2603 17.1341 45.5041 16.2174 45.5041L16.2174 45.504Z" fill="#7B7C7C"/>
<path d="M26.5299 45.504C24.7661 45.504 23.3622 44.6023 23.2741 44.5448C23.2691 44.5415 23.2644 44.5381 23.2594 44.5348C22.2361 43.8062 21.2351 43.5808 20.2842 43.8638C19.5938 44.0694 19.1829 44.4762 19.1792 44.4802C18.9984 44.6653 18.7014 44.669 18.5163 44.4882C18.3311 44.3074 18.3275 44.0104 18.5083 43.8253C18.5304 43.8028 20.7415 41.5984 23.7944 43.7647C23.9725 43.8788 26.5838 45.496 28.875 43.7777C29.0822 43.6224 29.3758 43.6642 29.5312 43.8715C29.6865 44.0787 29.6447 44.3724 29.4374 44.5277C28.4607 45.2603 27.4466 45.5041 26.5298 45.5041L26.5299 45.504Z" fill="#7B7C7C"/>
<path d="M36.8424 45.504C35.0786 45.504 33.6747 44.6023 33.5866 44.5448C33.5816 44.5415 33.5769 44.5381 33.5719 44.5348C32.5486 43.8062 31.5476 43.5808 30.5967 43.8638C29.9063 44.0694 29.4954 44.4762 29.4917 44.4802C29.3109 44.6653 29.0139 44.669 28.8288 44.4882C28.6436 44.3074 28.64 44.0104 28.8208 43.8253C28.8429 43.8028 31.0537 41.5984 34.1069 43.7647C34.285 43.8788 36.8963 45.496 39.1875 43.7777C39.3947 43.6224 39.6883 43.6642 39.8437 43.8715C39.999 44.0787 39.9572 44.3724 39.7499 44.5277C38.7732 45.2603 37.7591 45.5041 36.8423 45.5041L36.8424 45.504Z" fill="#7B7C7C"/>
<path d="M38.5311 6.24654C38.2723 6.24654 38.0624 6.03661 38.0624 5.77779V2.96534C38.0624 2.70652 38.2723 2.49658 38.5311 2.49658C38.79 2.49658 38.9999 2.70651 38.9999 2.96534V5.77779C38.9999 6.0366 38.79 6.24654 38.5311 6.24654Z" fill="#7B7C7C"/>
<path d="M9.46875 6.24654C9.20994 6.24654 9 6.03661 9 5.77779V2.96534C9 2.70652 9.20993 2.49658 9.46875 2.49658C9.72758 2.49658 9.93751 2.70651 9.93751 2.96534V5.77779C9.93751 6.0366 9.72758 6.24654 9.46875 6.24654Z" fill="#7B7C7C"/>
</svg>
