<svg width="48" height="48" viewBox="0 0 48 48" fill="none" xmlns="http://www.w3.org/2000/svg">
<path d="M39.5001 46.5309V43.1086L32.6774 43.1083L30.5453 24.5409L35.2866 19.1834V21.1451C34.4693 21.3631 33.8627 22.1024 33.8627 22.9873C33.8627 24.0424 34.7212 24.9011 35.7762 24.9011C36.8312 24.9011 37.69 24.0426 37.69 22.9873C37.69 22.1027 37.0833 21.3631 36.2664 21.1451V18.0761L36.8637 17.4011H29.7253L29.1919 12.7575L32.654 8.84375V10.8185C31.9696 11.0295 31.4674 11.6606 31.4674 12.4136C31.4674 13.338 32.2194 14.0897 33.1439 14.0897C34.0684 14.0897 34.82 13.3377 34.82 12.4136C34.82 11.6609 34.3181 11.0297 33.6334 10.8185V7.73649L34.229 7.0635L28.5384 7.06383L28.235 4.42341H29.2636L29.2639 0.490234H18.7331V4.42375H19.762L19.4586 7.06418H13.7664L14.3643 7.73918V10.8192C13.68 11.0302 13.1777 11.6613 13.1777 12.4143C13.1777 13.3387 13.9297 14.0904 14.8542 14.0904C15.7787 14.0904 16.5303 13.3384 16.5303 12.4143C16.5303 11.6616 16.0285 11.0304 15.3437 10.8192V8.84515L18.8048 12.7529L18.2707 17.4015L11.1324 17.4018L11.7307 18.0775V21.1458C10.9137 21.3638 10.3067 22.1031 10.3067 22.988C10.3067 24.043 11.1652 24.9018 12.2205 24.9018C13.2756 24.9018 14.134 24.0433 14.134 22.988C14.134 22.1031 13.5273 21.3638 12.7104 21.1458V19.1837L17.4431 24.5275L15.3173 43.1095L8.49798 43.1092V46.5314L1.69141 46.5317V47.5114H46.3074V46.5317L39.5001 46.5309ZM36.7104 22.9869C36.7104 23.5021 36.2915 23.921 35.7762 23.921C35.2613 23.921 34.8424 23.5021 34.8424 22.9869C34.8424 22.4719 35.2612 22.0527 35.7762 22.0527C36.2915 22.0527 36.7104 22.4716 36.7104 22.9869ZM33.8409 12.4131C33.8409 12.7972 33.5282 13.1099 33.1441 13.1099C32.7598 13.1099 32.4474 12.7972 32.4474 12.4131C32.4474 12.0288 32.7601 11.7164 33.1441 11.7164C33.5282 11.716 33.8409 12.0288 33.8409 12.4131ZM15.5503 12.4131C15.5503 12.7972 15.2376 13.1099 14.8536 13.1099C14.4692 13.1099 14.1568 12.7972 14.1568 12.4131C14.1568 12.0288 14.4695 11.7164 14.8536 11.7164C15.2379 11.716 15.5503 12.0288 15.5503 12.4131ZM13.154 22.9869C13.154 23.5021 12.7352 23.921 12.2202 23.921C11.7049 23.921 11.286 23.5021 11.286 22.9869C11.286 22.4719 11.7049 22.0527 12.2202 22.0527C12.7351 22.0527 13.154 22.4716 13.154 22.9869ZM25.0194 9.74229L27.6906 8.26671L28.0526 11.4177L25.0194 9.74229ZM27.0113 11.9619H21.0012L24.0056 10.3025L27.0113 11.9619ZM24.0066 9.18283L21.9434 8.04309H26.0681L24.0066 9.18283ZM22.9927 9.74332L19.9435 11.4292L20.3071 8.26072L22.9927 9.74332ZM27.3504 12.9412L24.009 14.7858L20.6671 12.9412H27.3504ZM28.2963 13.5386L28.7396 17.3971L25.0228 15.3456L28.2963 13.5386ZM18.5874 23.2166L19.1144 18.6459L22.994 20.7865L18.5874 23.2166ZM24.0078 21.3459L28.2892 23.7094L19.7225 23.7098L24.0078 21.3459ZM20.6623 18.3811H27.3491L24.0082 20.2269L20.6623 18.3811ZM29.3135 24.6891L23.9985 31.7532L18.6839 24.6891H29.3135ZM29.7052 25.7981L31.5414 41.7795L24.6116 32.5687L29.7052 25.7981ZM25.0224 20.7868L25.0217 20.7865L28.8836 18.6526L29.4069 23.2062L25.0224 20.7868ZM26.7182 17.4018H21.2978L24.0082 15.9058L26.7182 17.4018ZM23.3858 32.5681L16.4583 41.7755L18.2918 25.7975L23.3858 32.5681ZM23.9988 33.383L31.3163 43.109H16.6823L23.9988 33.383ZM34.6891 18.3813L30.3953 23.2329L29.8382 18.3813H34.6891ZM32.0553 8.04332L29.0423 11.4491L28.6512 8.04332H32.0553ZM19.7125 1.4698H28.2839V3.44389H19.7125V1.4698ZM27.249 4.4236L27.5524 7.06403L20.4444 7.0637L20.7474 4.42327L27.249 4.4236ZM15.9424 8.04332H19.3455L18.9548 11.4448L15.9424 8.04332ZM19.7021 13.5283L22.9944 15.3457L19.2705 17.4012L19.2578 17.4015L19.7021 13.5283ZM18.1575 18.3809L18.0641 19.1928L18.0648 19.1925L17.5997 23.2271L13.308 18.3809L18.1575 18.3809ZM9.47726 46.5312V44.0883H38.5207V46.5312H9.47726Z" fill="#7B7C7C"/>
</svg>
