<svg width="48" height="48" viewBox="0 0 48 48" fill="none" xmlns="http://www.w3.org/2000/svg">
<path d="M42 36.75H6C3.10577 36.75 0.75 39.1058 0.75 42C0.75 44.8942 3.10577 47.25 6 47.25H42C44.8942 47.25 47.25 44.8942 47.25 42C47.25 39.1058 44.8942 36.75 42 36.75ZM42 45.75H6C3.93214 45.75 2.25 44.0679 2.25 42C2.25 39.9321 3.93214 38.25 6 38.25H42C44.0679 38.25 45.75 39.9321 45.75 42C45.75 44.0679 44.0679 45.75 42 45.75Z" fill="#7B7C7C"/>
<path d="M42 39.75C40.7595 39.75 39.75 40.7595 39.75 42C39.75 43.2405 40.7595 44.25 42 44.25C43.2405 44.25 44.25 43.2405 44.25 42C44.25 40.7595 43.2405 39.75 42 39.75ZM42 42.75C41.5862 42.75 41.25 42.4138 41.25 42C41.25 41.5862 41.5862 41.25 42 41.25C42.4138 41.25 42.75 41.5862 42.75 42C42.75 42.4138 42.4138 42.75 42 42.75Z" fill="#7B7C7C"/>
<path d="M36 39.75C34.7595 39.75 33.75 40.7595 33.75 42C33.75 43.2405 34.7595 44.25 36 44.25C37.2405 44.25 38.25 43.2405 38.25 42C38.25 40.7595 37.2405 39.75 36 39.75ZM36 42.75C35.5862 42.75 35.25 42.4138 35.25 42C35.25 41.5862 35.5862 41.25 36 41.25C36.4138 41.25 36.75 41.5862 36.75 42C36.75 42.4138 36.4138 42.75 36 42.75Z" fill="#7B7C7C"/>
<path d="M30 39.75C28.7595 39.75 27.75 40.7595 27.75 42C27.75 43.2405 28.7595 44.25 30 44.25C31.2405 44.25 32.25 43.2405 32.25 42C32.25 40.7595 31.2405 39.75 30 39.75ZM30 42.75C29.5862 42.75 29.25 42.4138 29.25 42C29.25 41.5862 29.5862 41.25 30 41.25C30.4138 41.25 30.75 41.5862 30.75 42C30.75 42.4138 30.4138 42.75 30 42.75Z" fill="#7B7C7C"/>
<path d="M24 39.75C22.7595 39.75 21.75 40.7595 21.75 42C21.75 43.2405 22.7595 44.25 24 44.25C25.2405 44.25 26.25 43.2405 26.25 42C26.25 40.7595 25.2405 39.75 24 39.75ZM24 42.75C23.5862 42.75 23.25 42.4138 23.25 42C23.25 41.5862 23.5862 41.25 24 41.25C24.4138 41.25 24.75 41.5862 24.75 42C24.75 42.4138 24.4138 42.75 24 42.75Z" fill="#7B7C7C"/>
<path d="M18 39.75C16.7595 39.75 15.75 40.7595 15.75 42C15.75 43.2405 16.7595 44.25 18 44.25C19.2405 44.25 20.25 43.2405 20.25 42C20.25 40.7595 19.2405 39.75 18 39.75ZM18 42.75C17.5862 42.75 17.25 42.4138 17.25 42C17.25 41.5862 17.5862 41.25 18 41.25C18.4138 41.25 18.75 41.5862 18.75 42C18.75 42.4138 18.4138 42.75 18 42.75Z" fill="#7B7C7C"/>
<path d="M12 39.75C10.7595 39.75 9.75 40.7595 9.75 42C9.75 43.2405 10.7595 44.25 12 44.25C13.2405 44.25 14.25 43.2405 14.25 42C14.25 40.7595 13.2405 39.75 12 39.75ZM12 42.75C11.5862 42.75 11.25 42.4138 11.25 42C11.25 41.5862 11.5862 41.25 12 41.25C12.4138 41.25 12.75 41.5862 12.75 42C12.75 42.4138 12.4138 42.75 12 42.75Z" fill="#7B7C7C"/>
<path d="M6 39.75C4.75946 39.75 3.75 40.7595 3.75 42C3.75 43.2405 4.75946 44.25 6 44.25C7.24054 44.25 8.25 43.2405 8.25 42C8.25 40.7595 7.24054 39.75 6 39.75ZM6 42.75C5.58616 42.75 5.25 42.4138 5.25 42C5.25 41.5862 5.58616 41.25 6 41.25C6.41384 41.25 6.75 41.5862 6.75 42C6.75 42.4138 6.41384 42.75 6 42.75Z" fill="#7B7C7C"/>
<path d="M19.9869 23.25L15.75 26.6401V35.2501H17.25V27.36L20.5131 24.7501H27.4868L30.7499 27.36V35.2501H32.2499V26.6401L28.0131 23.25H19.9869Z" fill="#7B7C7C"/>
<path d="M18.75 27.75H29.25V29.25H18.75V27.75Z" fill="#7B7C7C"/>
<path d="M18.75 33.75H29.25V35.25H18.75V33.75Z" fill="#7B7C7C"/>
<path d="M10.0985 17.2498L11.792 19.7901L14.042 18.2901L16.6259 22.166L17.8738 21.3343L15.2899 17.4584L17.5399 15.9584L15.7962 13.3431L16.5448 9.60209L10.9114 0.749512H0.75V9.23592L6.35923 17.2495L10.0985 17.2498ZM12.2072 17.7095L11.5389 16.7074L14.791 14.5391L15.4593 15.5412L12.2072 17.7095ZM14.3253 13.0484L10.2723 15.7498H7.14039L5.04939 12.7625L13.1912 7.12609L14.955 9.89878L14.3253 13.0484ZM2.24988 2.25015H10.088L12.3846 5.85984L4.18848 11.5337L2.24988 8.76375V2.25015Z" fill="#7B7C7C"/>
<path d="M18.75 17.25H20.25V18.75H18.75V17.25Z" fill="#7B7C7C"/>
<path d="M19.5 20.25H21V21.75H19.5V20.25Z" fill="#7B7C7C"/>
<path d="M13.5 22.5H15V24H13.5V22.5Z" fill="#7B7C7C"/>
<path d="M10.5 21H12V22.5H10.5V21Z" fill="#7B7C7C"/>
<path d="M37.089 0.75L31.4559 9.60171L32.2046 13.3427L30.4608 15.958L32.7108 17.458L30.127 21.3339L31.3749 22.1656L33.9587 18.2897L36.2087 19.7897L37.9019 17.2504H41.6405L47.2508 9.23684V0.750437L37.089 0.75ZM35.7932 17.7094L32.5412 15.5411L33.2095 14.539L36.4615 16.7073L35.7932 17.7094ZM40.8601 15.7497H37.7275L33.6752 13.0484L33.045 9.89906L34.8088 7.12637L42.9507 12.7628L40.8601 15.7497ZM45.7509 8.76334L43.8123 11.534L35.6155 5.85943L37.9127 2.24974H45.7509V8.76334Z" fill="#7B7C7C"/>
<path d="M26.25 15.75H27.75V17.25H26.25V15.75Z" fill="#7B7C7C"/>
<path d="M27.75 19.5H29.25V21H27.75V19.5Z" fill="#7B7C7C"/>
<path d="M31.5 23.25H33V24.75H31.5V23.25Z" fill="#7B7C7C"/>
<path d="M34.5 21H36V22.5H34.5V21Z" fill="#7B7C7C"/>
</svg>
