<svg width="48" height="48" viewBox="0 0 48 48" fill="none" xmlns="http://www.w3.org/2000/svg">
<path d="M38.019 37.9269H37.7261V36.3305C37.7261 36.0124 37.4682 35.7546 37.1502 35.7546H35.8728L31.4412 17.9723H34.7201C35.0381 17.9723 35.296 17.7145 35.296 17.3964L35.2963 5.79328C35.2963 5.4752 35.0385 5.21738 34.7204 5.21738H26.8367C26.6659 5.21738 26.5035 5.29338 26.3944 5.42464L23.1175 9.35678L12.4924 5.71195C12.4498 4.89833 11.7785 4.25146 10.9546 4.25146C10.1031 4.25146 9.41239 4.94187 9.41239 5.79329C9.41239 6.44117 9.81251 6.99466 10.3784 7.22301V15.7298C10.0094 15.9334 9.7593 16.3258 9.7593 16.7768C9.7593 17.2523 10.0375 17.6614 10.4393 17.8542V18.9564C10.4393 19.2745 10.6971 19.5323 11.0152 19.5323C11.4465 19.5323 11.7974 19.8832 11.7974 20.3145C11.7974 20.7457 11.4465 21.0966 11.0152 21.0966C10.7711 21.0966 10.5455 20.9858 10.3958 20.7926C10.2013 20.5408 9.83933 20.4946 9.58787 20.6895C9.33642 20.884 9.28988 21.246 9.48475 21.4974C9.85406 21.9749 10.4118 22.2487 11.0152 22.2487C12.0816 22.2487 12.9494 21.3809 12.9494 20.3145C12.9494 19.4484 12.3772 18.7137 11.591 18.468V17.7869C11.9262 17.575 12.1492 17.2023 12.1492 16.7768C12.1492 16.3255 11.899 15.933 11.5297 15.7295L11.5304 7.27888L20.3101 16.9003V17.3958C20.3101 17.7139 20.5679 17.9717 20.886 17.9717H24.3139L19.8826 35.7549H18.4184C18.1003 35.7549 17.8425 36.0127 17.8425 36.3308V37.9272H17.4112C17.0932 37.9272 16.8353 38.185 16.8353 38.5031V43.197C16.8353 43.5151 17.0932 43.7729 17.4112 43.7729H38.0187C38.3367 43.7729 38.5946 43.5151 38.5946 43.197V38.5031C38.5942 38.1854 38.3364 37.9276 38.0183 37.9276L38.019 37.9269ZM36.5743 37.9269H34.5209V36.9064H36.5743V37.9269ZM33.9446 35.7542C33.6265 35.7542 33.3687 36.0121 33.3687 36.3301V37.9266H29.8386L28.6176 36.7055L33.6647 31.6584L34.6855 35.7539L33.9446 35.7542ZM28.2098 37.9269H27.3968L27.8033 37.5205L28.2098 37.9269ZM27.9075 25.2661L33.1678 30.5264L27.803 35.8913L22.5426 30.6306L27.9075 25.2661ZM22.8229 28.7217L24.5265 21.8853L27.0928 24.4517L22.8229 28.7217ZM28.7221 24.4514L31.241 21.9322L32.9134 28.6424L28.7221 24.4514ZM17.0067 8.47773L14.7191 9.06333L12.8991 7.06876L17.0067 8.47773ZM18.4689 9.29268L18.6306 13.349L15.5991 10.0273L18.4689 9.29268ZM19.8359 14.6702L19.625 9.37634L22.3283 10.3038L20.4446 12.5641C20.3585 12.6676 20.311 12.7982 20.311 12.9328V15.1908L19.8359 14.6702ZM21.4631 13.1411L27.1065 6.36862H34.1445V16.8189H21.463L21.4631 13.1411ZM30.254 17.9713L30.9163 20.6281L27.9075 23.6368L24.8516 20.5809L25.5018 17.9713L30.254 17.9713ZM22.0612 31.7781L26.9888 36.7057L25.7677 37.9267H22.2002V36.3303C22.2002 36.0122 21.9424 35.7544 21.6243 35.7544H21.0705L22.0612 31.7781ZM18.995 36.9062H21.0484V37.9267H18.995V36.9062ZM37.4433 42.6206H17.9878V39.0789H37.4441L37.4433 42.6206Z" fill="#7B7C7C"/>
<path d="M29.2856 7.771H28.0512C27.9521 7.771 27.858 7.8162 27.7957 7.89354L24.8493 11.5666C24.7706 11.665 24.7552 11.7996 24.8094 11.9131C24.864 12.0266 24.9788 12.0989 25.1047 12.0989H29.2856C29.4664 12.0989 29.6131 11.9523 29.6131 11.7715L29.6134 8.09846C29.6131 7.91765 29.4664 7.771 29.2856 7.771L29.2856 7.771Z" fill="#7B7C7C"/>
<path d="M32.4913 7.771H31.3499C31.1691 7.771 31.0225 7.91764 31.0225 8.09845V11.7715C31.0225 11.9523 31.1691 12.0989 31.3499 12.0989H32.4913C32.6721 12.0989 32.8187 11.9523 32.8187 11.7715L32.8191 8.09845C32.8191 7.91764 32.6724 7.771 32.4913 7.771V7.771Z" fill="#7B7C7C"/>
</svg>
