<svg width="48" height="48" viewBox="0 0 48 48" fill="none" xmlns="http://www.w3.org/2000/svg">
<path d="M45.8927 8.19029C45.4782 8.19029 45.1427 8.52612 45.1427 8.94029V9.00022H37.3199C37.3069 8.60647 37.1448 8.23248 36.8662 7.95425C36.5877 7.67568 36.2137 7.51329 35.8199 7.50023H33.8552C33.6593 6.87746 33.2702 6.33306 32.7442 5.94597C32.2182 5.55892 31.5831 5.34966 30.9302 5.34764H30.0975V4.07264C30.0975 3.50981 29.8738 2.9701 29.4757 2.57196C29.0779 2.17386 28.5379 1.9502 27.975 1.9502H19.9802C19.417 1.9502 18.8773 2.17386 18.4792 2.57196C18.0811 2.97006 17.8574 3.50976 17.8574 4.07264V5.31019H17.0324C16.3738 5.3142 15.734 5.52883 15.2059 5.92291C14.6782 6.317 14.2908 6.86979 14.1 7.50022H12.1802C11.7864 7.51328 11.4125 7.67567 11.1339 7.95424C10.8553 8.23248 10.6933 8.60648 10.6802 9.00021H2.83503V8.95535C2.8963 8.72968 2.8491 8.48861 2.70713 8.30311C2.56517 8.11728 2.34485 8.00847 2.11148 8.00847C1.87778 8.00847 1.65746 8.11728 1.5155 8.30311C1.37354 8.48861 1.32633 8.72968 1.3876 8.95535V13.2528C1.32633 13.4781 1.37354 13.7192 1.5155 13.905C1.65746 14.0905 1.87778 14.1993 2.11148 14.1993C2.34486 14.1993 2.56517 14.0905 2.70713 13.905C2.84909 13.7192 2.8963 13.4781 2.83503 13.2528V13.2079L10.6726 13.2076V13.4179C10.6605 13.8297 10.8109 14.2301 11.0918 14.5318C11.3723 14.8335 11.7607 15.0126 12.1725 15.0304H13.935V18.7804C13.937 19.5983 14.2635 20.3824 14.8427 20.9604C15.422 21.5383 16.2068 21.8627 17.0251 21.8627H18.6375C18.5783 22.0653 18.5458 22.2746 18.5401 22.4852C18.5394 22.976 18.7122 23.4514 19.0276 23.8278C18.7129 24.2071 18.5408 24.6846 18.5408 25.1778C18.5408 25.6706 18.7129 26.1481 19.0276 26.5278C18.7132 26.9075 18.5408 27.3846 18.5401 27.8778C18.524 28.4128 18.7212 28.9325 19.0882 29.3223C19.4555 29.712 19.9624 29.9397 20.4974 29.9554H21.3V36.1579V36.1576C20.9083 36.3304 20.5738 36.6113 20.3361 36.9672C20.098 37.3231 19.9668 37.7396 19.9574 38.1679V38.9179L16.4475 42.0003H14.6699C14.2558 42.0003 13.9199 42.3361 13.9199 42.7503V45.3679C13.9199 45.5668 13.9989 45.7573 14.1396 45.8982C14.2805 46.0389 14.471 46.1179 14.6699 46.1179H33.3299C33.5288 46.1179 33.7193 46.0389 33.8603 45.8982C34.0009 45.7573 34.0799 45.5668 34.0799 45.3679V42.7503C34.0799 42.5514 34.0009 42.3605 33.8603 42.2199C33.7193 42.0793 33.5288 42.0003 33.3299 42.0003H31.5524L28.0425 38.8503V38.1602C28.0331 37.7323 27.9018 37.3158 27.6638 36.9595C27.4261 36.6036 27.0916 36.3227 26.6998 36.1502V29.9326H27.4947C28.0301 29.9172 28.537 29.6892 28.9039 29.2998C29.2712 28.9101 29.4684 28.3905 29.4524 27.8553C29.4514 27.3622 29.2793 26.8851 28.9649 26.5053C29.2796 26.1257 29.4517 25.6482 29.4517 25.1553C29.4517 24.6622 29.2796 24.1847 28.9649 23.8053C29.2722 23.4391 29.4443 22.9783 29.4524 22.5002C29.4467 22.2892 29.4139 22.08 29.3549 21.8777H30.9299C31.7553 21.8777 32.5461 21.5469 33.1253 20.959C33.7049 20.371 34.0243 19.5755 34.0123 18.7501V15.0001H35.8197C36.2315 14.9827 36.6199 14.8036 36.9008 14.5016C37.1814 14.1999 37.332 13.7998 37.3196 13.3876V13.1777H45.1648V13.2226C45.1035 13.4482 45.1508 13.6893 45.2927 13.8748C45.4347 14.0603 45.655 14.1694 45.8884 14.1694C46.1221 14.1694 46.3424 14.0603 46.4843 13.8748C46.6263 13.6893 46.6735 13.4482 46.6123 13.2226V8.91772C46.6009 8.52364 46.2861 8.20556 45.8924 8.19016L45.8927 8.19029ZM40.7328 11.7153L40.1479 10.4101H41.7677L42.3526 11.7153H40.7328ZM19.3128 4.07266C19.3108 3.89454 19.3801 3.72277 19.5057 3.59587C19.6309 3.46897 19.802 3.39766 19.9804 3.39766H27.9753C28.3479 3.39766 28.6503 3.7 28.6503 4.07266V5.3102H19.3126L19.3128 4.07266ZM5.64737 11.7153L6.2323 10.4101H7.85213L7.2672 11.7153H5.64737ZM2.83491 10.4101H4.65L4.05736 11.7153H2.8349L2.83491 10.4101ZM8.83491 11.7153L9.41984 10.4101H10.65V11.7153H8.83491ZM12.1651 13.5455V13.5451C12.1172 13.5043 12.0921 13.443 12.0975 13.3804V9.07522C12.0944 9.01428 12.1159 8.95469 12.1574 8.91015H13.9198V13.5451L12.1651 13.5455ZM28.0051 25.1555C28.0315 25.4682 27.8065 25.7461 27.4948 25.7853H20.5051C20.2044 25.728 19.9868 25.4652 19.9868 25.1591C19.9868 24.8531 20.2044 24.59 20.5051 24.5327H27.4952H27.4948C27.8032 24.5719 28.0272 24.8454 28.0051 25.1555H28.0051ZM26.5948 38.1455V38.6403L23.925 39.458L21.4052 38.708V38.1679V38.1682C21.4715 37.6288 21.9603 37.2438 22.5 37.3058H25.5C26.032 37.2432 26.5175 37.6155 26.5948 38.1455V38.1455ZM20.8573 40.0355L23.2724 40.7855V42.0006H18.6375L20.8573 40.0355ZM32.6096 44.6032H15.3596V43.4407H32.6096V44.6032ZM29.3846 42.0006H24.7497V40.7256L27.1798 39.9756L29.3846 42.0006ZM25.2445 35.8731H22.7547V29.9481H25.2448L25.2445 35.8731ZM27.4945 28.5006H20.5047C20.195 28.4581 19.972 28.1822 19.9945 27.8705C19.9724 27.5605 20.1964 27.2872 20.5047 27.2481H27.4948H27.4945C27.8029 27.2872 28.0269 27.5605 28.0048 27.8705C28.0272 28.1822 27.8042 28.4581 27.4945 28.5006H27.4945ZM28.0044 22.5006H28.0048C28.0268 22.8107 27.8029 23.0842 27.4945 23.1231H20.5047C20.1964 23.0842 19.9724 22.8107 19.9945 22.5006C19.9767 22.205 20.1776 21.9405 20.4672 21.8782H27.5323H27.532C27.8216 21.9405 28.0225 22.205 28.0048 22.5006H28.0044ZM32.5647 18.7506C32.5627 19.1836 32.3899 19.5984 32.0835 19.9044C31.7775 20.2108 31.3627 20.3836 30.9297 20.3856H17.032C16.5978 20.3856 16.1812 20.2135 15.8735 19.9071C15.5655 19.6008 15.3917 19.1849 15.3897 18.7507V8.39294C15.3897 7.95734 15.5628 7.53949 15.8708 7.23143C16.1789 6.92337 16.5964 6.75029 17.032 6.75029H30.9297C31.3626 6.7523 31.7775 6.92507 32.0835 7.23143C32.3899 7.53745 32.5626 7.9523 32.5647 8.38523L32.5647 18.7506ZM35.8798 13.3731C35.8828 13.434 35.861 13.4936 35.8195 13.5382H34.0121V8.91061H35.8121C35.86 8.95146 35.8851 9.01307 35.8798 9.07568V13.3809L35.8798 13.3731ZM37.3272 10.3731H38.5574L39.1423 11.6783H37.3272L37.3272 10.3731ZM43.9423 11.6783L43.3497 10.3731H45.1648V11.6783H43.9423Z" fill="#7B7C7C"/>
<path d="M18.585 9.12793C18.1708 9.12793 17.835 9.46376 17.835 9.87793V13.8004C17.7788 14.0244 17.8293 14.2621 17.9713 14.4443C18.1132 14.6264 18.3315 14.7329 18.5626 14.7329C18.7936 14.7329 19.0119 14.6264 19.1539 14.4443C19.2958 14.2621 19.3464 14.0244 19.2901 13.8004V9.85556C19.2791 9.46683 18.973 9.15109 18.585 9.12799L18.585 9.12793Z" fill="#7B7C7C"/>
<path d="M22.1786 9.12793C21.7644 9.12793 21.4286 9.46376 21.4286 9.87793V13.8004C21.3673 14.0257 21.4146 14.2671 21.5565 14.4526C21.6985 14.6381 21.9188 14.7469 22.1522 14.7469C22.3859 14.7469 22.6062 14.6381 22.7481 14.4526C22.8901 14.2671 22.9373 14.0257 22.8761 13.8004V9.85556C22.8653 9.46951 22.5637 9.15478 22.1786 9.12799V9.12793Z" fill="#7B7C7C"/>
<path d="M25.7783 9.12793C25.3641 9.12793 25.0283 9.46376 25.0283 9.87793V13.8004C25.112 14.1342 25.4117 14.3679 25.7559 14.3679C26.0997 14.3679 26.3997 14.1342 26.4831 13.8004V9.85556C26.4724 9.46683 26.1664 9.15109 25.7783 9.12799V9.12793Z" fill="#7B7C7C"/>
<path d="M29.3778 9.12793C28.9637 9.12793 28.6278 9.46376 28.6278 9.87793V13.8004C28.5666 14.0257 28.6138 14.2671 28.7557 14.4526C28.8977 14.6381 29.118 14.7469 29.3514 14.7469C29.5851 14.7469 29.8054 14.6381 29.9474 14.4526C30.0893 14.2671 30.1365 14.0257 30.0753 13.8004V9.85556C30.0646 9.46951 29.7629 9.15478 29.3778 9.12799V9.12793Z" fill="#7B7C7C"/>
<path d="M20.5059 16.9281H20.2507C19.9243 17.0169 19.6973 17.3135 19.6973 17.6517C19.6973 17.9902 19.9243 18.2868 20.2507 18.3756H20.4982C20.7238 18.4368 20.9649 18.3896 21.1504 18.2477C21.3359 18.1057 21.445 17.8854 21.445 17.6517C21.445 17.4183 21.3359 17.198 21.1504 17.056C20.9649 16.9141 20.7238 16.8669 20.4982 16.9281H20.5059Z" fill="#7B7C7C"/>
<path d="M24.1054 16.9276H23.8577C23.6323 16.8664 23.3913 16.9136 23.2054 17.0555C23.0199 17.1975 22.9111 17.4178 22.9111 17.6512C22.9111 17.8849 23.0199 18.1052 23.2054 18.2472C23.3913 18.3891 23.6323 18.4364 23.8577 18.3751H24.1054C24.4319 18.2864 24.6586 17.9897 24.6586 17.6512C24.6586 17.313 24.4319 17.0164 24.1054 16.9276Z" fill="#7B7C7C"/>
<path d="M27.6984 16.9276H27.4509C27.1245 17.0164 26.8975 17.313 26.8975 17.6512C26.8975 17.9897 27.1245 18.2864 27.4509 18.3751H27.6984C27.924 18.4364 28.1651 18.3891 28.3506 18.2472C28.5361 18.1052 28.6452 17.8849 28.6452 17.6512C28.6452 17.4178 28.5361 17.1975 28.3506 17.0555C28.1651 16.9136 27.924 16.8664 27.6984 16.9276Z" fill="#7B7C7C"/>
</svg>
