<svg width="32" height="32" viewBox="0 0 32 32" fill="none" xmlns="http://www.w3.org/2000/svg">
<path d="M27.9449 22.4625H4.05514C2.92197 22.4625 2 21.5432 2 20.4128V5.57272C2 4.43955 2.92204 3.51758 4.05514 3.51758H27.9449C29.078 3.51758 30 4.43962 30 5.57272V20.4128C30 21.5432 29.078 22.4625 27.9449 22.4625ZM4.05514 4.63758C3.53943 4.63758 3.12001 5.05704 3.12001 5.57272V20.4128C3.12001 20.9252 3.53946 21.3425 4.05514 21.3425H27.9449C28.4606 21.3425 28.88 20.9252 28.88 20.4128V5.57272C28.88 5.05701 28.4605 4.63758 27.9449 4.63758H4.05514Z" fill="white"/>
<path d="M16 18.8953C12.7455 18.8953 10.0975 16.2452 10.0975 12.9874C10.0975 9.73294 12.7455 7.08496 16 7.08496C19.2544 7.08496 21.9024 9.73294 21.9024 12.9874C21.9024 16.2452 19.2544 18.8953 16 18.8953ZM16 8.20483C13.3629 8.20483 11.2175 10.3502 11.2175 12.9873C11.2175 15.6276 13.3629 17.7751 16 17.7751C18.637 17.7751 20.7824 15.6275 20.7824 12.9873C20.7824 10.3502 18.637 8.20483 16 8.20483Z" fill="white"/>
<path d="M14.6335 15.9334C14.4492 15.9334 14.2655 15.8825 14.1014 15.7813C13.7995 15.5948 13.6196 15.2722 13.6196 14.9178V11.0623C13.6196 10.7085 13.7996 10.3858 14.1009 10.1999C14.4022 10.0129 14.7708 9.99649 15.088 10.1551L18.9386 12.0828C19.2848 12.2567 19.4991 12.6045 19.4991 12.9912C19.4991 13.3773 19.2842 13.7246 18.9386 13.8974L15.088 15.8251C14.9442 15.8973 14.7883 15.9334 14.6336 15.9334L14.6335 15.9334ZM14.7396 11.2335V14.7466L18.249 12.9901L14.7396 11.2335Z" fill="white"/>
<path d="M27.6943 27.0824H11.0181C10.7086 27.0824 10.4581 26.8319 10.4581 26.5224C10.4581 26.2129 10.7086 25.9624 11.0181 25.9624H27.6943C28.0039 25.9624 28.2543 26.2129 28.2543 26.5224C28.2543 26.8319 28.0039 27.0824 27.6943 27.0824Z" fill="white"/>
<path d="M8.21804 27.0824H4.3144C4.00486 27.0824 3.75439 26.8319 3.75439 26.5224C3.75439 26.2129 4.00486 25.9624 4.3144 25.9624H8.21804C8.52757 25.9624 8.77804 26.2129 8.77804 26.5224C8.77804 26.8319 8.52757 27.0824 8.21804 27.0824Z" fill="white"/>
<path d="M9.61597 28.4825C8.53481 28.4825 7.6554 27.6032 7.6554 26.5225C7.6554 25.4418 8.53474 24.5625 9.61597 24.5625C10.6966 24.5625 11.576 25.4418 11.576 26.5225C11.576 27.6032 10.6966 28.4825 9.61597 28.4825ZM9.61597 25.6825C9.15276 25.6825 8.7754 26.0593 8.7754 26.5225C8.7754 26.9934 9.14454 27.3625 9.61597 27.3625C10.0792 27.3625 10.456 26.9857 10.456 26.5225C10.456 26.0593 10.0792 25.6825 9.61597 25.6825Z" fill="white"/>
</svg>
