<svg width="29" height="31" viewBox="0 0 29 31" fill="none" xmlns="http://www.w3.org/2000/svg">
<path fill-rule="evenodd" clip-rule="evenodd" d="M6.8252 16.8174V19.324C6.8252 19.5761 7.02921 19.7801 7.28122 19.7801C7.53189 19.7801 7.73725 19.5761 7.73725 19.324V16.8174C7.73725 16.5653 7.53189 16.3613 7.28122 16.3613C7.02921 16.3613 6.8252 16.5653 6.8252 16.8174Z" fill="white"/>
<path fill-rule="evenodd" clip-rule="evenodd" d="M10.5109 16.8174V19.324C10.5109 19.5761 10.7149 19.7801 10.9669 19.7801C11.2189 19.7801 11.4229 19.5761 11.4229 19.324V16.8174C11.4229 16.5653 11.2189 16.3613 10.9669 16.3613C10.7149 16.3613 10.5109 16.5653 10.5109 16.8174Z" fill="white"/>
<path fill-rule="evenodd" clip-rule="evenodd" d="M14.196 15.5639V19.324C14.196 19.576 14.4001 19.78 14.6521 19.78C14.9041 19.78 15.1081 19.576 15.1081 19.324V15.5639C15.1081 15.3119 14.9041 15.1079 14.6521 15.1079C14.4001 15.1079 14.196 15.3119 14.196 15.5639Z" fill="white"/>
<path fill-rule="evenodd" clip-rule="evenodd" d="M17.8811 14.1963V19.3241C17.8811 19.5761 18.0865 19.7802 18.3371 19.7802C18.5891 19.7802 18.7932 19.5761 18.7932 19.3241V14.1963C18.7932 13.9443 18.5891 13.7402 18.3371 13.7402C18.0865 13.7402 17.8811 13.9443 17.8811 14.1963Z" fill="white"/>
<path fill-rule="evenodd" clip-rule="evenodd" d="M2.83709 7.37742V21.9654C2.83709 22.7214 3.45046 23.3335 4.20515 23.3335H24.72C25.476 23.3335 26.0881 22.7214 26.0881 21.9654V7.37742C26.0881 7.12675 25.884 6.92139 25.632 6.92139C25.38 6.92139 25.176 7.12675 25.176 7.37742V21.9654C25.176 22.2174 24.972 22.4214 24.72 22.4214H4.20512C3.95311 22.4214 3.74909 22.2174 3.74909 21.9654V7.37742C3.74909 7.12675 3.54508 6.92139 3.29306 6.92139C3.0424 6.92139 2.83704 7.12675 2.83704 7.37742H2.83709Z" fill="white"/>
<path fill-rule="evenodd" clip-rule="evenodd" d="M28.3669 2.36284C28.3669 2.00011 28.2229 1.65209 27.9669 1.39609C27.7108 1.14007 27.3629 0.996094 27.0001 0.996094H1.92641C1.56234 0.996094 1.21566 1.14007 0.95835 1.39609C0.702321 1.65212 0.55835 2.00009 0.55835 2.36284V4.64272C0.55835 5.00545 0.702321 5.35347 0.95835 5.60947C1.21572 5.86683 1.56235 6.0108 1.92641 6.0108H27.0001C27.3628 6.0108 27.7109 5.86683 27.9669 5.60947C28.2229 5.35344 28.3669 5.00547 28.3669 4.64272V2.36284ZM27.4561 2.36284V4.64272C27.4561 4.76415 27.4081 4.87866 27.3215 4.96549C27.2363 5.05076 27.1202 5.09875 27.0001 5.09875H1.92638C1.80495 5.09875 1.6891 5.05076 1.60361 4.96549C1.51834 4.87888 1.47036 4.76415 1.47036 4.64272V2.36284C1.47036 2.24275 1.51835 2.1269 1.60361 2.04141C1.68888 1.9548 1.80495 1.90681 1.92638 1.90681H27.0001C27.1202 1.90681 27.236 1.9548 27.3215 2.04141C27.4081 2.12668 27.4561 2.24275 27.4561 2.36284V2.36284Z" fill="white"/>
<path fill-rule="evenodd" clip-rule="evenodd" d="M12.2759 24.36L7.24269 29.3932C7.06412 29.5718 7.06412 29.86 7.24269 30.0385C7.41993 30.2158 7.70944 30.2158 7.88669 30.0385L12.92 25.0053C13.0985 24.8267 13.0985 24.5385 12.92 24.36C12.7427 24.1827 12.4532 24.1827 12.2759 24.36V24.36Z" fill="white"/>
<path fill-rule="evenodd" clip-rule="evenodd" d="M16.0051 25.0053L21.0384 30.0385C21.2156 30.2158 21.5051 30.2158 21.6824 30.0385C21.8609 29.86 21.8609 29.5718 21.6824 29.3932L16.6504 24.36C16.4719 24.1827 16.1824 24.1827 16.0051 24.36C15.8279 24.5385 15.8279 24.8267 16.0051 25.0053V25.0053Z" fill="white"/>
<path fill-rule="evenodd" clip-rule="evenodd" d="M14.0068 24.6831V29.7163C14.0068 29.9683 14.2109 30.1724 14.4629 30.1724C14.7149 30.1724 14.9189 29.9683 14.9189 29.7163V24.6831C14.9189 24.4311 14.7149 24.2271 14.4629 24.2271C14.2109 24.2271 14.0068 24.4311 14.0068 24.6831V24.6831Z" fill="white"/>
<path fill-rule="evenodd" clip-rule="evenodd" d="M20.544 9.56389L18.9654 11.1425C18.8802 11.2277 18.7641 11.2757 18.6427 11.2757H14.9641C14.6014 11.2757 14.2533 11.4197 13.996 11.6771C13.4188 12.2543 12.0601 13.6116 11.4827 14.1891C11.3974 14.2757 11.2813 14.3237 11.1612 14.3237H7.28135C7.02933 14.3237 6.82532 14.5277 6.82532 14.7784C6.82532 15.0304 7.02933 15.2344 7.28135 15.2344H11.1612C11.524 15.2344 11.872 15.0905 12.128 14.8344L14.6413 12.3211C14.7266 12.2358 14.8427 12.1878 14.9641 12.1878H18.6427C19.0054 12.1878 19.3534 12.0438 19.6094 11.7878L21.1893 10.2079V10.5186C21.1893 10.7706 21.3933 10.9747 21.6453 10.9747C21.896 10.9747 22.1 10.7706 22.1 10.5186V9.10788C22.1 8.85587 21.896 8.65186 21.6453 8.65186H19.9947C19.7426 8.65186 19.5386 8.85587 19.5386 9.10788C19.5386 9.35855 19.7426 9.56391 19.9947 9.56391L20.544 9.56389Z" fill="white"/>
<path fill-rule="evenodd" clip-rule="evenodd" d="M3.29319 3.95893H10.5812C10.8332 3.95893 11.0372 3.75492 11.0372 3.5029C11.0372 3.25089 10.8332 3.04688 10.5812 3.04688H3.29319C3.04252 3.04688 2.83716 3.25089 2.83716 3.5029C2.83716 3.75492 3.04252 3.95893 3.29319 3.95893Z" fill="white"/>
<path fill-rule="evenodd" clip-rule="evenodd" d="M13.8069 3.95893H16.2002C16.4522 3.95893 16.6562 3.75492 16.6562 3.5029C16.6562 3.25089 16.4522 3.04688 16.2002 3.04688H13.8069C13.5548 3.04688 13.3508 3.25089 13.3508 3.5029C13.3508 3.75492 13.5548 3.95893 13.8069 3.95893Z" fill="white"/>
</svg>
