<svg width="32" height="32" viewBox="0 0 32 32" fill="none" xmlns="http://www.w3.org/2000/svg">
<path fill-rule="evenodd" clip-rule="evenodd" d="M27.196 25.981V24.2276C27.196 23.977 26.992 23.7729 26.74 23.7729C26.488 23.7729 26.2839 23.977 26.2839 24.2276V25.981C26.2839 26.233 26.488 26.437 26.74 26.437C26.992 26.437 27.196 26.233 27.196 25.981Z" fill="white"/>
<path fill-rule="evenodd" clip-rule="evenodd" d="M8.37363 14.8808H10.1964C10.4484 14.8808 10.6524 14.6768 10.6524 14.4248C10.6524 14.1728 10.4484 13.9688 10.1964 13.9688H8.37363C8.12162 13.9688 7.9176 14.1728 7.9176 14.4248C7.9176 14.6768 8.12162 14.8808 8.37363 14.8808Z" fill="white"/>
<path fill-rule="evenodd" clip-rule="evenodd" d="M8.37363 16.705H12.1082C12.3602 16.705 12.5642 16.4997 12.5642 16.249C12.5642 15.997 12.3602 15.793 12.1082 15.793H8.37363C8.12162 15.793 7.9176 15.997 7.9176 16.249C7.9176 16.4997 8.12162 16.705 8.37363 16.705V16.705Z" fill="white"/>
<path fill-rule="evenodd" clip-rule="evenodd" d="M18.1999 15.5649H20.7066C20.9586 15.5649 21.1626 15.3609 21.1626 15.1089C21.1626 14.8568 20.9586 14.6528 20.7066 14.6528H18.1999C17.9479 14.6528 17.7439 14.8568 17.7439 15.1089C17.7439 15.3609 17.9479 15.5649 18.1999 15.5649Z" fill="white"/>
<path fill-rule="evenodd" clip-rule="evenodd" d="M19.6479 3.25576C19.6479 3.07049 19.5358 2.90375 19.364 2.833C19.1919 2.76358 18.9946 2.80509 18.8653 2.93836L14.7066 7.2223C14.5787 7.35422 14.5426 7.54886 14.6133 7.71694C14.6854 7.88636 14.8506 7.99551 15.0334 7.99551H18.2814C18.6441 7.99551 18.9922 7.85154 19.2482 7.59551C19.5042 7.33815 19.6482 6.99014 19.6482 6.62745V3.25534L19.6479 3.25576ZM18.7372 4.37988V6.62788C18.7372 6.74931 18.6892 6.86515 18.6026 6.95064C18.5173 7.03591 18.4012 7.0839 18.2811 7.0839H16.1117L18.7369 4.3799L18.7372 4.37988Z" fill="white"/>
<path fill-rule="evenodd" clip-rule="evenodd" d="M15.0187 10.2331H6.39988C5.14119 10.2331 4.12 11.2532 4.12 12.5117V24.2265C4.12 24.4785 4.32536 24.6826 4.57602 24.6826C4.82803 24.6826 5.03205 24.4785 5.03205 24.2265V12.5117C5.03205 11.757 5.64542 11.1436 6.40011 11.1436H15.019C15.2696 11.1436 15.475 10.9396 15.475 10.6876C15.475 10.4369 15.2696 10.2329 15.019 10.2329L15.0187 10.2331Z" fill="white"/>
<path fill-rule="evenodd" clip-rule="evenodd" d="M13.2039 12.0557H7.3119C6.5559 12.0557 5.94385 12.6678 5.94385 13.4238V23.3146C5.94385 24.0706 6.5559 24.6827 7.3119 24.6827H24.0039C24.7599 24.6827 25.3719 24.0706 25.3719 23.3146V22.3986C25.3719 22.1479 25.1679 21.9439 24.9159 21.9439C24.6652 21.9439 24.4599 22.1479 24.4599 22.3986V23.3146C24.4599 23.5666 24.2559 23.7706 24.0039 23.7706H7.31188C7.05986 23.7706 6.85585 23.5666 6.85585 23.3146V13.4238C6.85585 13.1717 7.05986 12.9677 7.31188 12.9677H13.2039C13.4559 12.9677 13.6599 12.7637 13.6599 12.5117C13.6599 12.2597 13.4559 12.0557 13.2039 12.0557L13.2039 12.0557Z" fill="white"/>
<path fill-rule="evenodd" clip-rule="evenodd" d="M30.2548 27.8735V26.9628C30.2548 26.2068 29.6428 25.5947 28.8881 25.5947H19.8909C19.3735 25.5947 18.9003 25.8867 18.6682 26.3507C18.5856 26.5161 18.4934 26.6987 18.4108 26.8641C18.3336 27.0188 18.1762 27.1161 18.0041 27.1161H13.7293C13.5559 27.1161 13.3987 27.0188 13.3213 26.8641C13.2387 26.6987 13.1465 26.5161 13.0639 26.3507C12.8333 25.8867 12.3599 25.5947 11.8412 25.5947H2.44631C1.6903 25.5947 1.07825 26.2068 1.07825 26.9628V27.8735C1.07825 29.1336 2.09836 30.1534 3.35813 30.1534H27.9753C29.234 30.1534 30.2539 29.1333 30.2539 27.8735H30.2548ZM29.3441 26.9628V27.8735C29.3441 28.6295 28.7307 29.2416 27.976 29.2416H3.35886C2.60285 29.2416 1.9908 28.6295 1.9908 27.8735V26.9628C1.9908 26.7108 2.19481 26.5068 2.44683 26.5068H11.8417C12.0138 26.5068 12.1723 26.6041 12.2497 26.7588L12.5058 27.2708C12.7377 27.7349 13.2111 28.0282 13.7299 28.0282H18.0047C18.5221 28.0282 18.9953 27.7349 19.2274 27.2708L19.4834 26.7588C19.5607 26.6041 19.7194 26.5068 19.8915 26.5068H28.8886C29.1393 26.5068 29.3447 26.7108 29.3447 26.9628H29.3441Z" fill="white"/>
<path fill-rule="evenodd" clip-rule="evenodd" d="M28.888 2.7998H26.1853C25.9346 2.7998 25.7292 3.00382 25.7292 3.25583C25.7292 3.50784 25.9346 3.71186 26.1853 3.71186H28.888C29.1386 3.71186 29.344 3.50784 29.344 3.25583C29.344 3.00382 29.1386 2.7998 28.888 2.7998Z" fill="white"/>
<path fill-rule="evenodd" clip-rule="evenodd" d="M14.5771 9.36386V21.4919C14.5771 22.2465 15.1891 22.8586 15.9451 22.8586H28.888C29.6427 22.8586 30.2547 22.2465 30.2547 21.4919V4.16786C30.2547 3.41186 29.6427 2.7998 28.888 2.7998C28.636 2.7998 28.4319 3.00382 28.4319 3.25583C28.4319 3.50784 28.636 3.71186 28.888 3.71186C29.1386 3.71186 29.344 3.91588 29.344 4.16789V21.4919C29.344 21.7426 29.1386 21.9479 28.888 21.9479H15.9451C15.6931 21.9479 15.4891 21.7426 15.4891 21.4919V10.6879V9.36377C15.4891 9.11176 15.2851 8.90775 15.0331 8.90775C14.781 8.90775 14.577 9.11176 14.577 9.36377L14.5771 9.36386ZM24.3199 2.79986H19.192C18.9414 2.79986 18.7373 3.00388 18.7373 3.25589C18.7373 3.5079 18.9414 3.71192 19.192 3.71192H24.3199C24.5719 3.71192 24.7759 3.5079 24.7759 3.25589C24.7759 3.00388 24.5719 2.79986 24.3199 2.79986Z" fill="white"/>
<path fill-rule="evenodd" clip-rule="evenodd" d="M28.4319 3.02774V2.34379C28.4319 1.98107 28.2879 1.63305 28.0305 1.37705C27.7812 1.12772 27.4439 0.983748 27.0919 0.977051H27.0359C26.6839 0.983747 26.3466 1.12772 26.0973 1.37705C25.8399 1.63308 25.6959 1.98105 25.6959 2.34379V5.30785C25.6959 5.67058 25.8399 6.01859 26.0973 6.27459C26.3439 6.52125 26.6745 6.66388 27.0225 6.67459H27.1051C27.841 6.65317 28.4316 6.04939 28.4316 5.30785V5.17459C28.4316 4.92258 28.2276 4.71857 27.9756 4.71857C27.7236 4.71857 27.5196 4.92258 27.5196 5.17459V5.30785C27.5196 5.5545 27.3222 5.75584 27.0769 5.76388H27.0504C26.9343 5.75986 26.8238 5.71187 26.741 5.63062C26.6557 5.54402 26.6077 5.42794 26.6077 5.30786V2.3438C26.6077 2.22371 26.6557 2.10786 26.741 2.02237C26.8249 1.93844 26.937 1.89045 27.0544 1.88777H27.0731C27.1905 1.89045 27.3024 1.93844 27.3865 2.02237C27.4718 2.10764 27.5198 2.22371 27.5198 2.3438V3.02774C27.5198 3.27975 27.7238 3.48377 27.9758 3.48377C28.2278 3.48377 28.4318 3.27975 28.4318 3.02774L28.4319 3.02774Z" fill="white"/>
<path fill-rule="evenodd" clip-rule="evenodd" d="M18.1999 13.7412H26.6331C26.8851 13.7412 27.0891 13.5371 27.0891 13.2851C27.0891 13.0331 26.8851 12.8291 26.6331 12.8291H18.1999C17.9479 12.8291 17.7439 13.0331 17.7439 13.2851C17.7439 13.5371 17.9479 13.7412 18.1999 13.7412Z" fill="white"/>
<path fill-rule="evenodd" clip-rule="evenodd" d="M18.1999 10.0947H26.6331C26.8851 10.0947 27.0891 9.89066 27.0891 9.63865C27.0891 9.38663 26.8851 9.18262 26.6331 9.18262H18.1999C17.9479 9.18262 17.7439 9.38663 17.7439 9.63865C17.7439 9.89066 17.9479 10.0947 18.1999 10.0947Z" fill="white"/>
<path fill-rule="evenodd" clip-rule="evenodd" d="M18.1999 11.9171H26.6331C26.8851 11.9171 27.0891 11.713 27.0891 11.4624C27.0891 11.2104 26.8851 11.0063 26.6331 11.0063H18.1999C17.9479 11.0063 17.7439 11.2104 17.7439 11.4624C17.7439 11.713 17.9479 11.9171 18.1999 11.9171Z" fill="white"/>
</svg>
