<svg width="224" height="52" viewBox="0 0 224 52" fill="none" xmlns="http://www.w3.org/2000/svg">
<g opacity="0.7">
<path d="M83.4467 45.5222L84.7616 45.7059C84.6167 46.6142 84.2493 47.3226 83.6558 47.8369C83.062 48.3515 82.3306 48.6072 81.4662 48.6072C80.3833 48.6072 79.5115 48.2518 78.8534 47.5405C78.1936 46.8292 77.8652 45.8107 77.8652 44.4858C77.8652 43.6261 78.0077 42.8765 78.2906 42.2318C78.573 41.5899 79.0041 41.106 79.5852 40.7863C80.1638 40.4637 80.7933 40.3028 81.4762 40.3028C82.3351 40.3028 83.0413 40.5202 83.5863 40.958C84.1346 41.3953 84.4862 42.0168 84.6394 42.82L83.3399 43.02C83.2148 42.4853 82.9953 42.0833 82.6768 41.8123C82.3608 41.5437 81.9785 41.4078 81.5296 41.4078C80.8517 41.4078 80.3012 41.651 79.8755 42.137C79.4527 42.6259 79.2414 43.3933 79.2414 44.4471C79.2414 45.5167 79.4452 46.2921 79.8527 46.7751C80.2636 47.259 80.7957 47.5022 81.4509 47.5022C81.9806 47.5022 82.4221 47.3409 82.7737 47.0158C83.1278 46.6936 83.3523 46.1948 83.4467 45.5222ZM85.9925 44.455C85.9925 42.9842 86.4 41.8942 87.2183 41.1858C87.8988 40.5972 88.7321 40.3028 89.7136 40.3028C90.8015 40.3028 91.6936 40.6612 92.3873 41.377C93.0777 42.0908 93.4244 43.0815 93.4244 44.3424C93.4244 45.3659 93.2711 46.169 92.9655 46.7552C92.6594 47.3409 92.2138 47.7965 91.6274 48.1212C91.0438 48.4459 90.404 48.6072 89.7136 48.6072C88.602 48.6072 87.705 48.2517 87.0191 47.538C86.3337 46.8242 85.9925 45.7957 85.9925 44.455ZM87.3683 44.4575C87.3683 45.476 87.5902 46.238 88.0338 46.7423C88.4798 47.2486 89.0377 47.5022 89.7136 47.5022C90.3812 47.5022 90.9366 47.2486 91.3826 46.7394C91.8262 46.2305 92.0481 45.4552 92.0481 44.4143C92.0481 43.4315 91.8237 42.6874 91.378 42.1827C90.932 41.6764 90.3762 41.4232 89.7136 41.4232C89.0377 41.4232 88.4798 41.6739 88.0338 42.1781C87.5902 42.682 87.3683 43.4419 87.3683 44.4575ZM100.775 47.4407C100.275 47.868 99.7935 48.167 99.3318 48.3436C98.8704 48.5199 98.3763 48.6072 97.8462 48.6072C96.9744 48.6072 96.3039 48.3952 95.8355 47.9678C95.3663 47.5429 95.1319 46.9984 95.1319 46.3353C95.1319 45.9466 95.2209 45.5912 95.3969 45.269C95.575 44.9464 95.8069 44.6903 96.0927 44.4962C96.3805 44.3016 96.7019 44.1528 97.061 44.0534C97.326 43.9844 97.7261 43.9175 98.2591 43.8514C99.3446 43.7234 100.148 43.5675 100.66 43.3883C100.665 43.2041 100.668 43.0861 100.668 43.0378C100.668 42.4903 100.54 42.1041 100.285 41.8784C99.941 41.5745 99.4291 41.4232 98.7507 41.4232C98.1162 41.4232 97.6474 41.5359 97.3467 41.7583C97.0436 41.9811 96.8216 42.3752 96.6762 42.9431L95.3613 42.7585C95.481 42.1931 95.6773 41.7354 95.9523 41.3874C96.2277 41.0395 96.6253 40.7734 97.1451 40.5839C97.6627 40.3972 98.2666 40.3028 98.9499 40.3028C99.6279 40.3028 100.181 40.3822 100.606 40.5435C101.029 40.7044 101.343 40.904 101.542 41.1467C101.741 41.3899 101.881 41.6972 101.962 42.068C102.006 42.2983 102.029 42.7127 102.029 43.3089V45.0998C102.029 46.3507 102.057 47.1414 102.113 47.4769C102.167 47.8115 102.278 48.1312 102.442 48.4384H101.035C100.9 48.1541 100.813 47.8215 100.775 47.4407ZM100.668 44.4471C100.178 44.6467 99.444 44.8158 98.4658 44.9539C97.9096 45.0333 97.5178 45.1226 97.2883 45.2224C97.0585 45.3222 96.8829 45.4681 96.7578 45.6577C96.6328 45.8493 96.5694 46.0618 96.5694 46.2971C96.5694 46.6525 96.704 46.9522 96.9773 47.19C97.2498 47.4278 97.6474 47.548 98.1701 47.548C98.6869 47.548 99.1487 47.4353 99.5537 47.2079C99.9563 46.9826 100.255 46.6733 100.443 46.2817C100.588 45.9774 100.66 45.5297 100.66 44.9389L100.668 44.4471ZM107.605 47.2337L107.788 48.4255C107.411 48.5053 107.072 48.5461 106.776 48.5461C106.29 48.5461 105.913 48.4692 105.642 48.3129C105.375 48.157 105.187 47.9549 105.077 47.7013C104.967 47.4482 104.914 46.9165 104.914 46.105V41.5155H103.92V40.4712H104.914V38.502L106.259 37.6905V40.4712H107.605V41.5155H106.259V46.1819C106.259 46.5681 106.282 46.8167 106.33 46.9264C106.376 47.0366 106.453 47.1235 106.56 47.19C106.667 47.254 106.82 47.2869 107.018 47.2869C107.167 47.2869 107.363 47.2694 107.605 47.2337ZM109.521 38.9825V37.4473H110.867V38.9825H109.521ZM109.521 48.4384V40.4712H110.867V48.4384H109.521ZM113.508 48.4384V40.4712H114.716V41.6024C115.297 40.7352 116.138 40.3028 117.237 40.3028C117.715 40.3028 118.154 40.3897 118.554 40.561C118.954 40.7327 119.255 40.9601 119.454 41.2394C119.652 41.5184 119.792 41.8505 119.872 42.2342C119.92 42.4853 119.946 42.9227 119.946 43.5471V48.4384H118.6V43.5978C118.6 43.0478 118.549 42.6358 118.444 42.3648C118.34 42.0937 118.154 41.8759 117.889 41.7125C117.624 41.5512 117.31 41.4693 116.953 41.4693C116.383 41.4693 115.89 41.651 115.475 42.0168C115.059 42.3802 114.853 43.0736 114.853 44.0917V48.4384H113.508ZM122.354 49.0986L123.654 49.2827C123.707 49.6872 123.86 49.9811 124.11 50.1678C124.444 50.416 124.9 50.5415 125.479 50.5415C126.1 50.5415 126.582 50.416 126.921 50.1678C127.26 49.9196 127.49 49.5692 127.609 49.1214C127.678 48.8475 127.711 48.2725 127.706 47.3946C127.117 48.0905 126.386 48.4384 125.509 48.4384C124.418 48.4384 123.572 48.0443 122.975 47.254C122.377 46.4663 122.078 45.5193 122.078 44.4164C122.078 43.6573 122.216 42.9555 122.489 42.3141C122.762 41.6714 123.159 41.1779 123.679 40.827C124.199 40.4766 124.811 40.3028 125.515 40.3028C126.45 40.3028 127.222 40.6865 127.828 41.4539V40.4712H129.067V47.3509C129.067 48.5918 128.942 49.4698 128.69 49.9861C128.44 50.5029 128.04 50.9123 127.498 51.2121C126.951 51.511 126.282 51.6619 125.486 51.6619C124.541 51.6619 123.778 51.4494 123.197 51.0225C122.614 50.5976 122.333 49.9558 122.354 49.0986ZM123.455 44.3195C123.455 45.3609 123.661 46.1208 124.074 46.5989C124.49 47.0774 125.007 47.3181 125.629 47.3181C126.248 47.3181 126.766 47.0798 127.186 46.6038C127.604 46.1283 127.814 45.3808 127.814 44.3631C127.814 43.3908 127.597 42.6562 127.166 42.1627C126.735 41.6685 126.215 41.4232 125.609 41.4232C125.01 41.4232 124.502 41.6664 124.082 42.1524C123.664 42.6383 123.455 43.36 123.455 44.3195ZM135.944 38.9825V37.4473H137.289V38.9825H135.944ZM135.944 48.4384V40.4712H137.289V48.4384H135.944ZM139.929 48.4384V40.4712H141.138V41.6024C141.719 40.7352 142.56 40.3028 143.658 40.3028C144.138 40.3028 144.576 40.3897 144.976 40.561C145.376 40.7327 145.677 40.9601 145.876 41.2394C146.075 41.5184 146.215 41.8505 146.294 42.2342C146.343 42.4853 146.368 42.9227 146.368 43.5471V48.4384H145.022V43.5978C145.022 43.0478 144.971 42.6358 144.866 42.3648C144.762 42.0937 144.576 41.8759 144.311 41.7125C144.046 41.5512 143.732 41.4693 143.376 41.4693C142.804 41.4693 142.312 41.651 141.897 42.0168C141.482 42.3802 141.275 43.0736 141.275 44.0917V48.4384H139.929ZM149.023 48.4384V40.4712H150.231V41.6024C150.812 40.7352 151.654 40.3028 152.752 40.3028C153.231 40.3028 153.67 40.3897 154.07 40.561C154.47 40.7327 154.771 40.9601 154.969 41.2394C155.168 41.5184 155.308 41.8505 155.387 42.2342C155.436 42.4853 155.461 42.9227 155.461 43.5471V48.4384H154.116V43.5978C154.116 43.0478 154.065 42.6358 153.96 42.3648C153.856 42.0937 153.67 41.8759 153.405 41.7125C153.14 41.5512 152.826 41.4693 152.469 41.4693C151.898 41.4693 151.406 41.651 150.99 42.0168C150.575 42.3802 150.369 43.0736 150.369 44.0917V48.4384H149.023ZM157.612 44.455C157.612 42.9842 158.02 41.8942 158.838 41.1858C159.519 40.5972 160.352 40.3028 161.333 40.3028C162.421 40.3028 163.314 40.6612 164.007 41.377C164.698 42.0908 165.045 43.0815 165.045 44.3424C165.045 45.3659 164.891 46.169 164.585 46.7552C164.279 47.3409 163.834 47.7965 163.247 48.1212C162.664 48.4459 162.024 48.6072 161.333 48.6072C160.222 48.6072 159.325 48.2517 158.639 47.538C157.954 46.8242 157.612 45.7957 157.612 44.455ZM158.988 44.4575C158.988 45.476 159.21 46.238 159.654 46.7423C160.1 47.2486 160.658 47.5022 161.333 47.5022C162.001 47.5022 162.557 47.2486 163.003 46.7394C163.446 46.2305 163.668 45.4552 163.668 44.4143C163.668 43.4315 163.444 42.6874 162.998 42.1827C162.552 41.6764 161.996 41.4232 161.333 41.4232C160.658 41.4232 160.1 41.6739 159.654 42.1781C159.21 42.682 158.988 43.4419 158.988 44.4575ZM169.38 48.4384L166.385 40.4712H167.825L169.522 45.2428C169.706 45.7574 169.876 46.2921 170.032 46.847C170.152 46.4276 170.318 45.9237 170.534 45.3326L172.298 40.4712H173.679L170.674 48.4384H169.38ZM180.629 47.4407C180.13 47.868 179.648 48.167 179.186 48.3436C178.725 48.5199 178.231 48.6072 177.701 48.6072C176.829 48.6072 176.159 48.3952 175.689 47.9678C175.221 47.5429 174.986 46.9984 174.986 46.3353C174.986 45.9466 175.075 45.5912 175.251 45.269C175.43 44.9464 175.662 44.6903 175.947 44.4962C176.235 44.3016 176.556 44.1528 176.916 44.0534C177.18 43.9844 177.581 43.9175 178.113 43.8514C179.199 43.7234 180.002 43.5675 180.514 43.3883C180.52 43.2041 180.522 43.0861 180.522 43.0378C180.522 42.4903 180.395 42.1041 180.139 41.8784C179.795 41.5745 179.283 41.4232 178.605 41.4232C177.971 41.4232 177.502 41.5359 177.201 41.7583C176.898 41.9811 176.676 42.3752 176.531 42.9431L175.216 42.7585C175.335 42.1931 175.532 41.7354 175.807 41.3874C176.082 41.0395 176.48 40.7734 176.999 40.5839C177.517 40.3972 178.121 40.3028 178.804 40.3028C179.482 40.3028 180.035 40.3822 180.461 40.5435C180.884 40.7044 181.198 40.904 181.396 41.1467C181.595 41.3899 181.735 41.6972 181.817 42.068C181.86 42.2983 181.883 42.7127 181.883 43.3089V45.0998C181.883 46.3507 181.912 47.1414 181.967 47.4769C182.021 47.8115 182.133 48.1312 182.296 48.4384H180.889C180.754 48.1541 180.668 47.8215 180.629 47.4407ZM180.522 44.4471C180.033 44.6467 179.298 44.8158 178.32 44.9539C177.764 45.0333 177.372 45.1226 177.143 45.2224C176.913 45.3222 176.737 45.4681 176.612 45.6577C176.487 45.8493 176.424 46.0618 176.424 46.2971C176.424 46.6525 176.559 46.9522 176.831 47.19C177.104 47.4278 177.502 47.548 178.024 47.548C178.541 47.548 179.003 47.4353 179.408 47.2079C179.811 46.9826 180.109 46.6733 180.298 46.2817C180.443 45.9774 180.514 45.5297 180.514 44.9389L180.522 44.4471ZM187.46 47.2337L187.643 48.4255C187.266 48.5053 186.927 48.5461 186.631 48.5461C186.144 48.5461 185.767 48.4692 185.497 48.3129C185.229 48.157 185.041 47.9549 184.931 47.7013C184.822 47.4482 184.768 46.9165 184.768 46.105V41.5155H183.774V40.4712H184.768V38.502L186.114 37.6905V40.4712H187.46V41.5155H186.114V46.1819C186.114 46.5681 186.137 46.8167 186.185 46.9264C186.231 47.0366 186.308 47.1235 186.415 47.19C186.521 47.254 186.674 47.2869 186.873 47.2869C187.021 47.2869 187.218 47.2694 187.46 47.2337ZM189.376 38.9825V37.4473H190.721V38.9825H189.376ZM189.376 48.4384V40.4712H190.721V48.4384H189.376ZM192.858 44.455C192.858 42.9842 193.265 41.8942 194.083 41.1858C194.764 40.5972 195.597 40.3028 196.579 40.3028C197.667 40.3028 198.559 40.6612 199.252 41.377C199.943 42.0908 200.289 43.0815 200.289 44.3424C200.289 45.3659 200.137 46.169 199.831 46.7552C199.524 47.3409 199.079 47.7965 198.492 48.1212C197.909 48.4459 197.269 48.6072 196.579 48.6072C195.467 48.6072 194.57 48.2517 193.885 47.538C193.199 46.8242 192.858 45.7957 192.858 44.455ZM194.233 44.4575C194.233 45.476 194.455 46.238 194.899 46.7423C195.345 47.2486 195.903 47.5022 196.579 47.5022C197.246 47.5022 197.802 47.2486 198.248 46.7394C198.692 46.2305 198.913 45.4552 198.913 44.4143C198.913 43.4315 198.689 42.6874 198.243 42.1827C197.797 41.6764 197.241 41.4232 196.579 41.4232C195.903 41.4232 195.345 41.6739 194.899 42.1781C194.455 42.682 194.233 43.4419 194.233 44.4575ZM202.456 48.4384V40.4712H203.664V41.6024C204.245 40.7352 205.086 40.3028 206.185 40.3028C206.664 40.3028 207.102 40.3897 207.502 40.561C207.902 40.7327 208.203 40.9601 208.402 41.2394C208.601 41.5184 208.741 41.8505 208.82 42.2342C208.868 42.4853 208.894 42.9227 208.894 43.5471V48.4384H207.548V43.5978C207.548 43.0478 207.497 42.6358 207.392 42.3648C207.288 42.0937 207.102 41.8759 206.837 41.7125C206.572 41.5512 206.258 41.4693 205.902 41.4693C205.331 41.4693 204.838 41.651 204.423 42.0168C204.008 42.3802 203.801 43.0736 203.801 44.0917V48.4384H202.456Z" fill="white"/>
<path d="M4.49069 14.208C3.26688 14.208 2.27127 15.2086 2.27127 16.44C2.27127 17.6622 3.26564 18.6658 4.49069 18.6678C5.71657 18.6678 6.71094 17.6697 6.71094 16.44C6.71094 15.2086 5.71657 14.208 4.49069 14.208Z" fill="white"/>
<path d="M11.3054 23.7129C9.82401 23.7129 8.62008 24.9201 8.62008 26.4063C8.62008 27.8871 9.82401 29.0972 11.3054 29.0972C12.7831 29.0972 13.9883 27.8871 13.9883 26.4063C13.9883 24.9201 12.7831 23.7129 11.3054 23.7129Z" fill="white"/>
<path d="M4.49069 24.1768C3.26688 24.1768 2.27127 25.1749 2.27127 26.4012C2.27127 27.6318 3.26688 28.6353 4.49069 28.6353C5.71657 28.6353 6.71094 27.638 6.71094 26.4075C6.71094 25.1749 5.71657 24.1768 4.49069 24.1768Z" fill="white"/>
<path d="M19.1554 23.1309C17.356 23.1309 15.8953 24.5984 15.8953 26.4063C15.8953 28.2097 17.356 29.6739 19.1554 29.6739C20.9545 29.6739 22.416 28.2097 22.416 26.4063C22.416 24.5984 20.9582 23.1309 19.1554 23.1309Z" fill="white"/>
<path d="M11.3054 13.7461C9.82401 13.7461 8.62008 14.9533 8.62008 16.4387C8.62008 17.9261 9.82401 19.1329 11.3054 19.1329C12.7831 19.1329 13.9883 17.9261 13.9883 16.4387C13.9883 14.9533 12.7831 13.7461 11.3054 13.7461Z" fill="white"/>
<path d="M4.49069 4.24219C3.26688 4.24219 2.27127 5.2453 2.27127 6.47083C2.27127 7.70094 3.26564 8.70032 4.49069 8.70531C5.71657 8.70531 6.71094 7.70094 6.71094 6.47083C6.71094 5.2453 5.71657 4.24219 4.49069 4.24219Z" fill="white"/>
<path d="M19.1551 9.74387C20.9538 9.74387 22.4153 8.2793 22.4153 6.4701C22.4153 4.66547 20.9538 3.19922 19.1551 3.19922C17.3552 3.19922 15.8945 4.66547 15.8945 6.4701C15.8945 8.2793 17.3552 9.74387 19.1551 9.74387Z" fill="white"/>
<path d="M11.3054 3.7832C9.82401 3.7832 8.62008 4.98712 8.62008 6.47039C8.62008 7.95741 9.82401 9.16466 11.3054 9.16466C12.7831 9.16466 13.9883 7.95741 13.9883 6.47039C13.9883 4.98712 12.7868 3.7832 11.3054 3.7832Z" fill="white"/>
<path d="M19.1558 19.7122C17.3553 19.7122 15.8957 18.2472 15.8957 16.4401C15.8957 14.633 17.3553 13.168 19.1558 13.168C20.9564 13.168 22.416 14.633 22.416 16.4401C22.416 18.2472 20.9564 19.7122 19.1558 19.7122Z" fill="white" stroke="white" stroke-width="0.000261308" stroke-miterlimit="10"/>
<path d="M38.2904 9.10448H34.1758V14.8011H38.2904C38.6958 14.8011 39.0814 14.7287 39.4442 14.5803C39.8061 14.4352 40.1263 14.2344 40.398 13.9729C40.6655 13.7115 40.8825 13.4134 41.0428 13.0725C41.1998 12.7362 41.2805 12.3608 41.2805 11.9513C41.2805 11.546 41.1998 11.1718 41.0428 10.8359C40.8825 10.4946 40.6655 10.1982 40.398 9.93384C40.1263 9.67775 39.8061 9.46947 39.4442 9.32564C39.0814 9.17639 38.6958 9.10448 38.2904 9.10448ZM38.7977 21.4542H34.0068V29.6746H26.9336V3.19922H38.7977C40.0666 3.19922 41.2863 3.41788 42.4501 3.84898C43.6184 4.28091 44.6509 4.88702 45.5471 5.65693C46.4387 6.431 47.1548 7.36345 47.687 8.45637C48.2192 9.5468 48.4867 10.7378 48.4867 12.039C48.4867 13.3589 48.2192 14.5857 47.687 15.7227C47.1548 16.8613 46.4387 17.8574 45.5471 18.7055C44.6509 19.5631 43.6184 20.2332 42.4501 20.7192C41.2863 21.2156 40.0666 21.4542 38.7977 21.4542Z" fill="white"/>
<path d="M62.5587 9.10448H58.4462V14.8011H62.5587C62.9667 14.8011 63.351 14.7287 63.7126 14.5803C64.0774 14.4352 64.3934 14.2344 64.6647 13.9729C64.9393 13.7115 65.153 13.4134 65.3112 13.0725C65.4694 12.7362 65.5493 12.3608 65.5493 11.9513C65.5493 11.546 65.4694 11.1718 65.3112 10.8359C65.153 10.4946 64.9393 10.1982 64.6647 9.93384C64.3934 9.67775 64.0774 9.46947 63.7126 9.32564C63.351 9.17639 62.9667 9.10448 62.5587 9.10448ZM67.6896 29.6746L63.1013 21.4924H58.6517L58.6823 29.6746H51.4082V3.19922H64.6311C65.2673 3.19922 65.9109 3.3227 66.5698 3.55716C67.2295 3.79537 67.8611 4.11629 68.474 4.51039C69.0857 4.91405 69.6506 5.36636 70.1737 5.86522C70.6935 6.36408 71.1345 6.87416 71.4977 7.39838C71.9525 8.05854 72.2983 8.82802 72.5364 9.69936C72.7737 10.5778 72.8913 11.4117 72.8913 12.2091C72.8913 13.5285 72.5853 14.7574 71.9748 15.8927C71.3606 17.0297 70.5116 17.9875 69.4233 18.7599L75.6102 29.6746H67.6896Z" fill="white"/>
<path d="M84.7555 3.19922H77.6504V29.675H84.7555V3.19922Z" fill="white"/>
<path d="M108.888 29.6746V16.0623L103.245 25.4102C103.176 25.5478 103.063 25.6375 102.909 25.6866C102.748 25.7307 102.611 25.7556 102.498 25.7556C102.362 25.7556 102.214 25.7307 102.054 25.6866C101.896 25.6375 101.782 25.5478 101.718 25.4102L96.0735 16.0623V29.6746H89.1738V3.19922H95.6296C95.8594 3.19922 96.0499 3.30606 96.2081 3.50644L102.464 13.985L108.754 3.50644C108.91 3.30606 109.089 3.19922 109.299 3.19922H115.787V29.6746H108.888Z" fill="white"/>
<path d="M131.456 12.8567L129.348 19.8512H133.533L131.456 12.8567ZM136.864 29.6746L135.502 26.0271H127.381L126.02 29.6746H118.576L128.33 3.19922H134.55L144.305 29.6746H136.864Z" fill="white"/>
<path d="M164.902 9.74968H157.662V29.6746H150.491V9.74968H143.25L142.775 9.27451V3.19922H165.38V9.27451L164.902 9.74968Z" fill="white"/>
<path d="M168.133 29.6746V3.19922H189.176V9.51312H174.999V13.3011H188.359V19.6146H174.999V23.4006H189.176V29.6746H168.133Z" fill="white"/>
<path d="M206.134 15.7227L216.571 29.6746H208.005L200.768 20.7741V29.6746H193.523V3.19922H200.768V12.108L208.005 3.19922H216.911L206.134 15.7227Z" fill="white"/>
<path d="M142.776 3.19922H165.381V9.78791H142.776V3.19922Z" fill="white"/>
</g>
</svg>
