<svg width="63" height="12" viewBox="0 0 63 12" fill="none" xmlns="http://www.w3.org/2000/svg">
<g clip-path="url(#clip0_429_419)">
<path fill-rule="evenodd" clip-rule="evenodd" d="M62.993 3.96906C62.989 4.19606 62.785 4.38006 62.535 4.38006H61.122C60.976 4.41206 60.828 4.44406 60.679 4.47506C60.575 4.55206 60.508 4.66706 60.508 4.79806V10.9001C60.508 11.1291 60.598 11.3181 60.346 11.3181H58.49C58.238 11.3181 58.032 11.1291 58.032 10.9001V5.02606V4.79806C58.032 4.75406 58.022 4.71306 58.009 4.67406C57.95 4.50406 57.83 4.38006 57.626 4.38006H55.996C55.744 4.38006 55.538 4.19206 55.538 3.96306V2.79806C55.538 2.56906 55.744 2.38106 55.996 2.38106H62.535C62.6 2.38106 62.662 2.39406 62.718 2.41606C62.88 2.48106 62.993 2.62806 62.993 2.79806V3.96306V3.96906ZM53.855 11.3151H52.294C52.042 11.3151 51.837 11.1281 51.837 10.8981V9.34806C51.837 9.11906 51.72 9.06106 51.577 9.21906C51.577 9.21906 51.577 9.21906 51.401 9.38806C51.225 9.55706 51.031 9.72506 50.819 9.89406C50.739 9.96006 50.655 10.0251 50.57 10.0911H50.571L50.57 10.0921C50.498 10.1491 50.425 10.2051 50.351 10.2621C50.292 10.3071 50.233 10.3491 50.174 10.3931C49.614 10.7681 48.646 11.3561 47.145 11.3151H46.454C46.202 11.3151 45.996 11.1281 45.996 10.8981V7.41306V6.37606V2.79606C45.996 2.56706 46.202 2.37906 46.454 2.37906H48.066C48.318 2.37906 48.524 2.56706 48.524 2.79606V6.16306V6.99106V8.35706C48.524 8.58606 48.668 8.68906 48.845 8.58506C48.845 8.58506 48.949 8.58506 49.116 8.47306C49.283 8.36106 49.455 8.23606 49.631 8.09906C49.913 7.89106 50.19 7.66006 50.463 7.40706C50.736 7.15406 50.991 6.89906 51.229 6.64206C51.278 6.58706 51.325 6.53306 51.372 6.47806C51.434 6.40606 51.495 6.33406 51.553 6.26306C51.654 6.13906 51.749 6.01606 51.837 5.89506V5.85706V2.79606C51.837 2.56706 52.042 2.37906 52.294 2.37906H53.855C54.106 2.37906 54.312 2.56706 54.312 2.79606V5.53106V5.71806V10.8981C54.312 11.1281 54.106 11.3151 53.855 11.3151ZM51.749 1.50906C51.305 1.76006 50.803 1.88506 50.241 1.88506C49.691 1.88506 49.194 1.76006 48.75 1.50906C48.551 1.39606 48.39 1.26506 48.262 1.11606C47.854 0.600061 48.399 0.487061 48.399 0.487061H51.948C52.269 0.487061 52.434 0.710061 52.314 0.981061C52.314 0.981061 52.192 1.25806 51.749 1.50906ZM44.302 11.3181H42.687C42.208 11.3181 42.071 11.0361 42.031 10.9081C42.027 10.8891 42.023 10.8701 42.019 10.8491C42.01 10.8061 42 10.7551 41.99 10.6991H39.371V8.68406H41.467C41.383 8.40906 41.298 8.13706 41.223 7.89806C41.194 7.80306 41.165 7.70906 41.14 7.62606C41.139 7.59806 41.135 7.57106 41.127 7.54206C41.127 7.54206 41.116 7.50706 41.058 7.34606C41.051 7.32706 41.044 7.30606 41.035 7.28306C40.956 7.06606 40.877 6.85706 40.797 6.65706L40.791 6.64206C40.652 6.30306 40.52 6.01206 40.395 5.77106C40.267 5.52706 40.185 5.36806 40.15 5.29506C39.92 5.74206 39.71 6.21106 39.514 6.69506C39.485 6.76706 39.453 6.83706 39.424 6.90906C39.271 7.30006 39.133 8.01306 39.002 8.40306C38.95 8.40706 38.899 8.41006 38.848 8.41406H38.514H38.363H36.227C36.367 7.97206 36.516 7.21406 36.673 6.78406C36.902 6.15306 37.149 5.53306 37.416 4.92906C37.805 4.05006 38.203 3.29606 38.611 2.66706C38.663 2.59206 38.846 2.38106 39.263 2.38106H41C41.252 2.38106 41.563 2.54306 41.691 2.73906C41.691 2.73906 42.147 3.44306 42.442 4.00106C42.736 4.55906 43.003 5.11906 43.241 5.68106C43.357 5.95606 43.465 6.22906 43.569 6.50006C43.711 6.87406 43.842 7.24506 43.963 7.61306C44.079 7.96906 44.189 8.32306 44.284 8.67406L44.287 8.68406H44.302V8.74306C44.509 9.51006 44.677 10.2191 44.806 10.8691C44.824 11.0111 44.804 11.3181 44.302 11.3181ZM35.504 4.21006C35.504 4.21006 35.504 4.21006 35.282 4.18306C35.06 4.15606 34.824 4.14706 34.573 4.15706C33.606 4.19306 32.872 4.46306 32.371 4.96806C31.881 5.46106 31.65 6.09206 31.674 6.85706C31.675 6.87306 31.674 6.88906 31.674 6.90606C31.709 7.66206 31.903 8.22106 32.257 8.58206C32.611 8.94306 32.994 9.19106 33.407 9.32506C33.626 9.38806 33.84 9.47706 34.049 9.49606C34.217 9.51306 34.367 9.52006 34.5 9.51906H38.148V10.8951V11.3781V11.4131H35.596L25.899 11.4261H25.762H25.76H25.571C25.423 11.4221 25.249 11.4101 25.142 11.4031C23.912 11.3091 22.98 10.9831 22.349 10.3271C21.554 9.50106 21.09 8.57306 20.957 7.54506C20.945 7.46706 20.934 7.38606 20.927 7.30306C20.918 7.22006 20.912 7.14006 20.909 7.06206C20.902 6.92106 20.902 6.78406 20.907 6.64806C20.942 5.49206 21.358 4.51706 22.159 3.72406C23.053 2.83706 24.342 2.36306 26.027 2.29906C26.372 2.28606 26.695 2.29106 26.994 2.31606C27.294 2.33906 27.579 2.37906 27.85 2.43106L27.918 3.92406C27.928 4.14906 27.768 4.30006 27.563 4.25806C27.563 4.25806 27.563 4.25806 27.341 4.23106C27.119 4.20506 26.883 4.19606 26.633 4.20506C25.665 4.24206 24.931 4.51206 24.431 5.01706C23.974 5.47606 23.743 6.05606 23.733 6.75206C23.732 6.82006 23.73 6.88606 23.734 6.95406C23.768 7.71006 23.962 8.27006 24.316 8.63206C24.67 8.99206 25.053 9.24006 25.466 9.37406C25.685 9.43706 25.899 9.47806 26.108 9.49806C26.276 9.51406 26.426 9.52106 26.56 9.52006L29.673 9.51406C29.252 8.89106 28.991 8.21906 28.898 7.49606C28.885 7.41806 28.875 7.33706 28.867 7.25406C28.859 7.17206 28.853 7.09106 28.849 7.01206C28.847 6.95806 28.847 6.90406 28.846 6.85206C28.825 5.58406 29.242 4.52506 30.099 3.67506C30.993 2.78906 32.283 2.31306 33.967 2.25006C34.313 2.23706 34.635 2.24306 34.935 2.26706C35.235 2.29106 35.519 2.33006 35.79 2.38206L35.858 3.87506C35.869 4.10006 35.709 4.25106 35.504 4.21006ZM18.429 10.3231C17.447 11.1151 16.243 11.5101 14.817 11.5101C13.373 11.5101 12.164 11.1151 11.191 10.3231C10.218 9.53306 9.732 8.37506 9.732 6.84906C9.732 6.57506 9.748 6.31406 9.779 6.06306C9.789 5.98606 9.804 5.91106 9.817 5.83506C9.991 4.79506 10.446 3.96806 11.191 3.36206C12.164 2.57106 13.373 2.17606 14.817 2.17606C16.243 2.17606 17.447 2.57106 18.429 3.36206C19.357 4.11006 19.846 5.19006 19.897 6.60206C19.899 6.68306 19.902 6.76506 19.902 6.84906C19.902 7.16106 19.88 7.45506 19.839 7.73606C19.68 8.83106 19.211 9.69406 18.429 10.3231ZM17.014 6.44206C16.959 5.90206 16.796 5.41906 16.521 4.99406C16.177 4.46406 15.609 4.20006 14.817 4.20006C14.007 4.20006 13.434 4.46406 13.1 4.99406C12.887 5.33206 12.744 5.70506 12.667 6.11406C12.634 6.29206 12.611 6.47606 12.603 6.66806C12.601 6.72806 12.598 6.78806 12.598 6.84906C12.598 7.55606 12.768 8.17406 13.107 8.70406C13.445 9.23406 14.016 9.49906 14.817 9.49906C15.609 9.49906 16.177 9.23406 16.521 8.70406C16.773 8.31406 16.932 7.87506 16.999 7.38906C17.023 7.21506 17.036 7.03506 17.036 6.84906C17.036 6.70906 17.027 6.57406 17.014 6.44206ZM4.601 9.29406C4.558 9.29406 4.515 9.29306 4.471 9.29206C4.159 9.28506 4.152 8.96306 4.152 8.96306V7.51206C4.152 7.33206 4.283 7.28706 4.351 7.27506L4.364 7.27406C4.379 7.27206 4.39 7.27206 4.39 7.27206L4.389 7.27106C4.721 7.22706 5.004 7.11806 5.235 6.94006C5.543 6.70306 5.698 6.34006 5.698 5.84906C5.698 5.79306 5.691 5.69906 5.678 5.56606C5.671 5.49406 5.651 5.41806 5.621 5.34006C5.597 5.27506 5.566 5.20806 5.526 5.13906C5.498 5.09006 5.467 5.04306 5.433 5.00006C5.425 4.99006 5.414 4.97906 5.405 4.96806C5.378 4.93706 5.35 4.90606 5.321 4.87706L5.306 4.86206L5.299 4.85906C4.885 4.48506 4.234 4.40306 3.967 4.38606L3.962 4.38306C3.947 4.38206 3.931 4.38306 3.916 4.38206C3.873 4.38006 3.847 4.38006 3.847 4.38006L3.848 4.38106C3.826 4.38006 3.805 4.38006 3.783 4.38006H2.986C2.734 4.38006 2.528 4.56706 2.528 4.79806V4.84606V10.9001C2.528 11.1291 2.322 11.3181 2.07 11.3181H0.458C0.206 11.3181 0 11.1291 0 10.9001V4.28406V2.79806C0 2.65506 0.08 2.52806 0.202 2.45306C0.275 2.40706 0.363 2.38106 0.458 2.38106H3.84C4.092 2.38106 4.502 2.40606 4.751 2.43706C4.751 2.43706 5.213 2.49606 5.767 2.62306H5.768C5.936 2.66206 6.111 2.70606 6.285 2.75806C6.874 2.96306 7.819 3.46006 8.333 4.61306C8.436 4.87106 8.505 5.13906 8.537 5.41606C8.546 5.48806 8.553 5.56306 8.557 5.63806C8.559 5.66606 8.559 5.69106 8.559 5.71806C8.56 5.74906 8.562 5.78206 8.562 5.81406C8.562 5.82906 8.564 5.84606 8.564 5.86206C8.564 6.82506 8.225 7.63806 7.547 8.30006C6.869 8.96206 5.887 9.29406 4.601 9.29406Z" fill="white" fill-opacity="0.7"/>
</g>
<defs>
<clipPath id="clip0_429_419">
<rect width="63" height="11" fill="white" fill-opacity="0.7" transform="translate(0 0.5)"/>
</clipPath>
</defs>
</svg>
