<svg width="58" height="58" viewBox="0 0 58 58" fill="none" xmlns="http://www.w3.org/2000/svg">
<rect width="58" height="58" rx="29" fill="#2859AC"/>
<path d="M40.9449 35.4625H17.0551C15.922 35.4625 15 34.5432 15 33.4128V18.5727C15 17.4396 15.922 16.5176 17.0551 16.5176H40.9449C42.078 16.5176 43 17.4396 43 18.5727V33.4128C43 34.5432 42.078 35.4625 40.9449 35.4625ZM17.0551 17.6376C16.5394 17.6376 16.12 18.057 16.12 18.5727V33.4128C16.12 33.9252 16.5395 34.3425 17.0551 34.3425H40.9449C41.4606 34.3425 41.88 33.9252 41.88 33.4128V18.5727C41.88 18.057 41.4605 17.6376 40.9449 17.6376H17.0551Z" fill="white"/>
<path d="M29 31.8953C25.7456 31.8953 23.0976 29.2452 23.0976 25.9874C23.0976 22.7329 25.7456 20.085 29 20.085C32.2545 20.085 34.9025 22.7329 34.9025 25.9874C34.9025 29.2452 32.2545 31.8953 29 31.8953ZM29 21.2048C26.363 21.2048 24.2176 23.3502 24.2176 25.9873C24.2176 28.6276 26.363 30.7751 29 30.7751C31.6371 30.7751 33.7824 28.6275 33.7824 25.9873C33.7824 23.3502 31.6371 21.2048 29 21.2048Z" fill="white"/>
<path d="M27.6335 28.9334C27.4492 28.9334 27.2655 28.8825 27.1014 28.7813C26.7995 28.5948 26.6196 28.2722 26.6196 27.9178V24.0623C26.6196 23.7085 26.7996 23.3858 27.1009 23.1999C27.4022 23.0129 27.7708 22.9965 28.088 23.1551L31.9386 25.0828C32.2848 25.2567 32.4991 25.6045 32.4991 25.9912C32.4991 26.3773 32.2842 26.7246 31.9386 26.8974L28.088 28.8251C27.9442 28.8973 27.7883 28.9334 27.6336 28.9334L27.6335 28.9334ZM27.7396 24.2335V27.7466L31.249 25.9901L27.7396 24.2335Z" fill="white"/>
<path d="M40.6943 40.0824H24.0181C23.7085 40.0824 23.4581 39.8319 23.4581 39.5224C23.4581 39.2129 23.7085 38.9624 24.0181 38.9624H40.6943C41.0038 38.9624 41.2543 39.2129 41.2543 39.5224C41.2543 39.8319 41.0038 40.0824 40.6943 40.0824Z" fill="white"/>
<path d="M21.218 40.0824H17.3144C17.0049 40.0824 16.7544 39.8319 16.7544 39.5224C16.7544 39.2129 17.0049 38.9624 17.3144 38.9624H21.218C21.5276 38.9624 21.778 39.2129 21.778 39.5224C21.778 39.8319 21.5276 40.0824 21.218 40.0824Z" fill="white"/>
<path d="M22.616 41.4825C21.5348 41.4825 20.6554 40.6032 20.6554 39.5225C20.6554 38.4418 21.5347 37.5625 22.616 37.5625C23.6966 37.5625 24.576 38.4418 24.576 39.5225C24.576 40.6032 23.6966 41.4825 22.616 41.4825ZM22.616 38.6825C22.1528 38.6825 21.7754 39.0593 21.7754 39.5225C21.7754 39.9934 22.1445 40.3625 22.616 40.3625C23.0792 40.3625 23.456 39.9857 23.456 39.5225C23.456 39.0593 23.0792 38.6825 22.616 38.6825Z" fill="white"/>
</svg>
