<svg width="58" height="58" viewBox="0 0 58 58" fill="none" xmlns="http://www.w3.org/2000/svg">
<rect width="58" height="58" rx="29" fill="#2859AC"/>
<path fill-rule="evenodd" clip-rule="evenodd" d="M40.1959 38.981V37.2276C40.1959 36.977 39.9919 36.7729 39.7399 36.7729C39.4879 36.7729 39.2839 36.977 39.2839 37.2276V38.981C39.2839 39.233 39.4879 39.437 39.7399 39.437C39.9919 39.437 40.1959 39.233 40.1959 38.981Z" fill="white"/>
<path fill-rule="evenodd" clip-rule="evenodd" d="M21.3736 27.8808H23.1964C23.4484 27.8808 23.6524 27.6768 23.6524 27.4248C23.6524 27.1728 23.4484 26.9688 23.1964 26.9688H21.3736C21.1216 26.9688 20.9176 27.1728 20.9176 27.4248C20.9176 27.6768 21.1216 27.8808 21.3736 27.8808Z" fill="white"/>
<path fill-rule="evenodd" clip-rule="evenodd" d="M21.3736 29.705H25.1082C25.3602 29.705 25.5642 29.4997 25.5642 29.249C25.5642 28.997 25.3602 28.793 25.1082 28.793H21.3736C21.1216 28.793 20.9176 28.997 20.9176 29.249C20.9176 29.4997 21.1216 29.705 21.3736 29.705V29.705Z" fill="white"/>
<path fill-rule="evenodd" clip-rule="evenodd" d="M31.1999 28.5649H33.7066C33.9586 28.5649 34.1626 28.3609 34.1626 28.1089C34.1626 27.8568 33.9586 27.6528 33.7066 27.6528H31.1999C30.9479 27.6528 30.7439 27.8568 30.7439 28.1089C30.7439 28.3609 30.9479 28.5649 31.1999 28.5649Z" fill="white"/>
<path fill-rule="evenodd" clip-rule="evenodd" d="M32.6479 16.2558C32.6479 16.0705 32.5358 15.9038 32.364 15.833C32.1919 15.7636 31.9946 15.8051 31.8653 15.9384L27.7066 20.2223C27.5787 20.3542 27.5426 20.5489 27.6133 20.7169C27.6854 20.8864 27.8506 20.9955 28.0334 20.9955H31.2814C31.6441 20.9955 31.9922 20.8515 32.2482 20.5955C32.5042 20.3381 32.6482 19.9901 32.6482 19.6275V16.2553L32.6479 16.2558ZM31.7372 17.3799V19.6279C31.7372 19.7493 31.6892 19.8652 31.6026 19.9506C31.5173 20.0359 31.4012 20.0839 31.2811 20.0839H29.1117L31.7369 17.3799L31.7372 17.3799Z" fill="white"/>
<path fill-rule="evenodd" clip-rule="evenodd" d="M28.0187 23.2331H19.3999C18.1412 23.2331 17.12 24.2532 17.12 25.5117V37.2265C17.12 37.4785 17.3254 37.6826 17.576 37.6826C17.828 37.6826 18.0321 37.4785 18.0321 37.2265V25.5117C18.0321 24.757 18.6454 24.1436 19.4001 24.1436H28.019C28.2696 24.1436 28.475 23.9396 28.475 23.6876C28.475 23.4369 28.2696 23.2329 28.019 23.2329L28.0187 23.2331Z" fill="white"/>
<path fill-rule="evenodd" clip-rule="evenodd" d="M26.2039 25.0557H20.3119C19.5559 25.0557 18.9438 25.6678 18.9438 26.4238V36.3146C18.9438 37.0706 19.5559 37.6827 20.3119 37.6827H37.0039C37.7599 37.6827 38.3719 37.0706 38.3719 36.3146V35.3986C38.3719 35.1479 38.1679 34.9439 37.9159 34.9439C37.6652 34.9439 37.4599 35.1479 37.4599 35.3986V36.3146C37.4599 36.5666 37.2559 36.7706 37.0039 36.7706H20.3119C20.0599 36.7706 19.8558 36.5666 19.8558 36.3146V26.4238C19.8558 26.1717 20.0599 25.9677 20.3119 25.9677H26.2039C26.4559 25.9677 26.6599 25.7637 26.6599 25.5117C26.6599 25.2597 26.4559 25.0557 26.2039 25.0557L26.2039 25.0557Z" fill="white"/>
<path fill-rule="evenodd" clip-rule="evenodd" d="M43.2548 40.8735V39.9628C43.2548 39.2068 42.6428 38.5947 41.8881 38.5947H32.8909C32.3735 38.5947 31.9003 38.8867 31.6682 39.3507C31.5856 39.5161 31.4934 39.6987 31.4108 39.8641C31.3336 40.0188 31.1762 40.1161 31.0041 40.1161H26.7293C26.5559 40.1161 26.3987 40.0188 26.3213 39.8641C26.2387 39.6987 26.1465 39.5161 26.0639 39.3507C25.8333 38.8867 25.3599 38.5947 24.8412 38.5947H15.4463C14.6903 38.5947 14.0782 39.2068 14.0782 39.9628V40.8735C14.0782 42.1336 15.0984 43.1534 16.3581 43.1534H40.9753C42.234 43.1534 43.2539 42.1333 43.2539 40.8735H43.2548ZM42.3441 39.9628V40.8735C42.3441 41.6295 41.7307 42.2416 40.976 42.2416H16.3589C15.6029 42.2416 14.9908 41.6295 14.9908 40.8735V39.9628C14.9908 39.7108 15.1948 39.5068 15.4468 39.5068H24.8417C25.0138 39.5068 25.1723 39.6041 25.2497 39.7588L25.5058 40.2708C25.7377 40.7349 26.2111 41.0282 26.7299 41.0282H31.0047C31.5221 41.0282 31.9953 40.7349 32.2274 40.2708L32.4834 39.7588C32.5607 39.6041 32.7194 39.5068 32.8915 39.5068H41.8886C42.1393 39.5068 42.3447 39.7108 42.3447 39.9628H42.3441Z" fill="white"/>
<path fill-rule="evenodd" clip-rule="evenodd" d="M41.888 15.7998H39.1853C38.9346 15.7998 38.7292 16.0038 38.7292 16.2558C38.7292 16.5078 38.9346 16.7119 39.1853 16.7119H41.888C42.1386 16.7119 42.344 16.5078 42.344 16.2558C42.344 16.0038 42.1386 15.7998 41.888 15.7998Z" fill="white"/>
<path fill-rule="evenodd" clip-rule="evenodd" d="M27.5771 22.3639V34.4919C27.5771 35.2465 28.1891 35.8586 28.9451 35.8586H41.888C42.6427 35.8586 43.2547 35.2465 43.2547 34.4919V17.1679C43.2547 16.4119 42.6427 15.7998 41.888 15.7998C41.636 15.7998 41.4319 16.0038 41.4319 16.2558C41.4319 16.5078 41.636 16.7119 41.888 16.7119C42.1386 16.7119 42.344 16.9159 42.344 17.1679V34.4919C42.344 34.7426 42.1386 34.9479 41.888 34.9479H28.9451C28.6931 34.9479 28.4891 34.7426 28.4891 34.4919V23.6879V22.3638C28.4891 22.1118 28.2851 21.9077 28.0331 21.9077C27.781 21.9077 27.577 22.1118 27.577 22.3638L27.5771 22.3639ZM37.3199 15.7999H32.192C31.9414 15.7999 31.7373 16.0039 31.7373 16.2559C31.7373 16.5079 31.9414 16.7119 32.192 16.7119H37.3199C37.5719 16.7119 37.7759 16.5079 37.7759 16.2559C37.7759 16.0039 37.5719 15.7999 37.3199 15.7999Z" fill="white"/>
<path fill-rule="evenodd" clip-rule="evenodd" d="M41.4319 16.0277V15.3438C41.4319 14.9811 41.288 14.6331 41.0306 14.3771C40.7813 14.1277 40.444 13.9837 40.092 13.9771H40.036C39.6839 13.9837 39.3467 14.1277 39.0973 14.3771C38.84 14.6331 38.696 14.9811 38.696 15.3438V18.3079C38.696 18.6706 38.84 19.0186 39.0973 19.2746C39.344 19.5212 39.6746 19.6639 40.0225 19.6746H40.1051C40.8411 19.6532 41.4317 19.0494 41.4317 18.3079V18.1746C41.4317 17.9226 41.2277 17.7186 40.9757 17.7186C40.7236 17.7186 40.5196 17.9226 40.5196 18.1746V18.3079C40.5196 18.5545 40.3223 18.7558 40.077 18.7639H40.0504C39.9344 18.7599 39.8239 18.7119 39.7411 18.6306C39.6558 18.544 39.6078 18.4279 39.6078 18.3079V15.3438C39.6078 15.2237 39.6558 15.1079 39.7411 15.0224C39.825 14.9384 39.937 14.8905 40.0544 14.8878H40.0732C40.1906 14.8904 40.3024 14.9384 40.3866 15.0224C40.4719 15.1076 40.5198 15.2237 40.5198 15.3438V16.0277C40.5198 16.2798 40.7239 16.4838 40.9759 16.4838C41.2279 16.4838 41.4319 16.2798 41.4319 16.0277L41.4319 16.0277Z" fill="white"/>
<path fill-rule="evenodd" clip-rule="evenodd" d="M31.1999 26.7412H39.6331C39.8851 26.7412 40.0891 26.5371 40.0891 26.2851C40.0891 26.0331 39.8851 25.8291 39.6331 25.8291H31.1999C30.9479 25.8291 30.7439 26.0331 30.7439 26.2851C30.7439 26.5371 30.9479 26.7412 31.1999 26.7412Z" fill="white"/>
<path fill-rule="evenodd" clip-rule="evenodd" d="M31.1999 23.0947H39.6331C39.8851 23.0947 40.0891 22.8907 40.0891 22.6386C40.0891 22.3866 39.8851 22.1826 39.6331 22.1826H31.1999C30.9479 22.1826 30.7439 22.3866 30.7439 22.6386C30.7439 22.8907 30.9479 23.0947 31.1999 23.0947Z" fill="white"/>
<path fill-rule="evenodd" clip-rule="evenodd" d="M31.1999 24.9171H39.6331C39.8851 24.9171 40.0891 24.713 40.0891 24.4624C40.0891 24.2104 39.8851 24.0063 39.6331 24.0063H31.1999C30.9479 24.0063 30.7439 24.2104 30.7439 24.4624C30.7439 24.713 30.9479 24.9171 31.1999 24.9171Z" fill="white"/>
</svg>
