<svg width="58" height="58" viewBox="0 0 58 58" fill="none" xmlns="http://www.w3.org/2000/svg">
<rect width="58" height="58" rx="29" fill="#2859AC"/>
<path fill-rule="evenodd" clip-rule="evenodd" d="M20.8252 29.8174V32.324C20.8252 32.5761 21.0292 32.7801 21.2812 32.7801C21.5319 32.7801 21.7373 32.5761 21.7373 32.324V29.8174C21.7373 29.5653 21.5319 29.3613 21.2812 29.3613C21.0292 29.3613 20.8252 29.5653 20.8252 29.8174Z" fill="white"/>
<path fill-rule="evenodd" clip-rule="evenodd" d="M24.5109 29.8174V32.324C24.5109 32.5761 24.7149 32.7801 24.9669 32.7801C25.2189 32.7801 25.4229 32.5761 25.4229 32.324V29.8174C25.4229 29.5653 25.2189 29.3613 24.9669 29.3613C24.7149 29.3613 24.5109 29.5653 24.5109 29.8174Z" fill="white"/>
<path fill-rule="evenodd" clip-rule="evenodd" d="M28.196 28.5639V32.324C28.196 32.576 28.4001 32.78 28.6521 32.78C28.9041 32.78 29.1081 32.576 29.1081 32.324V28.5639C29.1081 28.3119 28.9041 28.1079 28.6521 28.1079C28.4001 28.1079 28.196 28.3119 28.196 28.5639Z" fill="white"/>
<path fill-rule="evenodd" clip-rule="evenodd" d="M31.8811 27.1963V32.3241C31.8811 32.5761 32.0865 32.7802 32.3371 32.7802C32.5891 32.7802 32.7932 32.5761 32.7932 32.3241V27.1963C32.7932 26.9443 32.5891 26.7402 32.3371 26.7402C32.0865 26.7402 31.8811 26.9443 31.8811 27.1963Z" fill="white"/>
<path fill-rule="evenodd" clip-rule="evenodd" d="M16.8371 20.3774V34.9654C16.8371 35.7214 17.4505 36.3335 18.2052 36.3335H38.72C39.476 36.3335 40.0881 35.7214 40.0881 34.9654V20.3774C40.0881 20.1267 39.884 19.9214 39.632 19.9214C39.38 19.9214 39.176 20.1267 39.176 20.3774V34.9654C39.176 35.2174 38.972 35.4214 38.72 35.4214H18.2051C17.9531 35.4214 17.7491 35.2174 17.7491 34.9654V20.3774C17.7491 20.1267 17.5451 19.9214 17.2931 19.9214C17.0424 19.9214 16.837 20.1267 16.837 20.3774H16.8371Z" fill="white"/>
<path fill-rule="evenodd" clip-rule="evenodd" d="M42.3669 15.3628C42.3669 15.0001 42.2229 14.6521 41.9669 14.3961C41.7108 14.1401 41.3629 13.9961 41.0001 13.9961H15.9264C15.5623 13.9961 15.2157 14.1401 14.9583 14.3961C14.7023 14.6521 14.5583 15.0001 14.5583 15.3628V17.6427C14.5583 18.0054 14.7023 18.3535 14.9583 18.6095C15.2157 18.8668 15.5623 19.0108 15.9264 19.0108H41.0001C41.3628 19.0108 41.7109 18.8668 41.9669 18.6095C42.2229 18.3534 42.3669 18.0055 42.3669 17.6427V15.3628ZM41.4561 15.3628V17.6427C41.4561 17.7642 41.4081 17.8787 41.3215 17.9655C41.2363 18.0508 41.1202 18.0987 41.0001 18.0987H15.9264C15.8049 18.0987 15.6891 18.0508 15.6036 17.9655C15.5183 17.8789 15.4704 17.7642 15.4704 17.6427V15.3628C15.4704 15.2427 15.5183 15.1269 15.6036 15.0414C15.6889 14.9548 15.8049 14.9068 15.9264 14.9068H41.0001C41.1202 14.9068 41.236 14.9548 41.3215 15.0414C41.4081 15.1267 41.4561 15.2427 41.4561 15.3628V15.3628Z" fill="white"/>
<path fill-rule="evenodd" clip-rule="evenodd" d="M26.2759 37.36L21.2427 42.3932C21.0641 42.5718 21.0641 42.86 21.2427 43.0385C21.4199 43.2158 21.7094 43.2158 21.8867 43.0385L26.92 38.0053C27.0985 37.8267 27.0985 37.5385 26.92 37.36C26.7427 37.1827 26.4532 37.1827 26.2759 37.36V37.36Z" fill="white"/>
<path fill-rule="evenodd" clip-rule="evenodd" d="M30.0051 38.0053L35.0384 43.0385C35.2156 43.2158 35.5051 43.2158 35.6824 43.0385C35.8609 42.86 35.8609 42.5718 35.6824 42.3932L30.6504 37.36C30.4719 37.1827 30.1824 37.1827 30.0051 37.36C29.8279 37.5385 29.8279 37.8267 30.0051 38.0053V38.0053Z" fill="white"/>
<path fill-rule="evenodd" clip-rule="evenodd" d="M28.0068 37.6831V42.7163C28.0068 42.9683 28.2109 43.1724 28.4629 43.1724C28.7149 43.1724 28.9189 42.9683 28.9189 42.7163V37.6831C28.9189 37.4311 28.7149 37.2271 28.4629 37.2271C28.2109 37.2271 28.0068 37.4311 28.0068 37.6831V37.6831Z" fill="white"/>
<path fill-rule="evenodd" clip-rule="evenodd" d="M34.544 22.5639L32.9654 24.1425C32.8802 24.2277 32.7641 24.2757 32.6427 24.2757H28.9641C28.6014 24.2757 28.2533 24.4197 27.996 24.6771C27.4188 25.2543 26.0601 26.6116 25.4827 27.1891C25.3974 27.2757 25.2813 27.3237 25.1612 27.3237H21.2813C21.0293 27.3237 20.8253 27.5277 20.8253 27.7784C20.8253 28.0304 21.0293 28.2344 21.2813 28.2344H25.1612C25.524 28.2344 25.872 28.0905 26.128 27.8344L28.6413 25.3211C28.7266 25.2358 28.8427 25.1878 28.9641 25.1878H32.6427C33.0054 25.1878 33.3534 25.0438 33.6094 24.7878L35.1893 23.2079V23.5186C35.1893 23.7706 35.3933 23.9747 35.6453 23.9747C35.896 23.9747 36.1 23.7706 36.1 23.5186V22.1079C36.1 21.8559 35.896 21.6519 35.6453 21.6519H33.9947C33.7426 21.6519 33.5386 21.8559 33.5386 22.1079C33.5386 22.3586 33.7426 22.5639 33.9947 22.5639L34.544 22.5639Z" fill="white"/>
<path fill-rule="evenodd" clip-rule="evenodd" d="M17.2932 16.9589H24.5812C24.8332 16.9589 25.0372 16.7549 25.0372 16.5029C25.0372 16.2509 24.8332 16.0469 24.5812 16.0469H17.2932C17.0425 16.0469 16.8372 16.2509 16.8372 16.5029C16.8372 16.7549 17.0425 16.9589 17.2932 16.9589Z" fill="white"/>
<path fill-rule="evenodd" clip-rule="evenodd" d="M27.8069 16.9589H30.2002C30.4522 16.9589 30.6562 16.7549 30.6562 16.5029C30.6562 16.2509 30.4522 16.0469 30.2002 16.0469H27.8069C27.5548 16.0469 27.3508 16.2509 27.3508 16.5029C27.3508 16.7549 27.5548 16.9589 27.8069 16.9589Z" fill="white"/>
</svg>
