<svg width="370" height="175" viewBox="0 0 370 175" fill="none" xmlns="http://www.w3.org/2000/svg">
<mask id="mask0_5_13775" style="mask-type:alpha" maskUnits="userSpaceOnUse" x="0" y="0" width="370" height="175">
<path d="M0 0H370V100V175L310 100H185H0V0Z" fill="#0C2B60"/>
</mask>
<g mask="url(#mask0_5_13775)">
<path d="M0 0H370V100V175L310 100H185H0V0Z" fill="#0C2B60"/>
<g opacity="0.1" clip-path="url(#clip0_5_13775)">
<line y1="-0.734127" x2="837.827" y2="-0.734127" transform="matrix(0.707109 -0.707104 0.707109 0.707104 -341.815 378.383)" stroke="white" stroke-width="1.46825"/>
<line y1="-0.734127" x2="837.827" y2="-0.734127" transform="matrix(0.707109 -0.707104 0.707109 0.707104 -338.823 381.375)" stroke="white" stroke-width="1.46825"/>
<line y1="-0.734127" x2="837.827" y2="-0.734127" transform="matrix(0.707109 -0.707104 0.707109 0.707104 -335.83 384.368)" stroke="white" stroke-width="1.46825"/>
<line y1="-0.734127" x2="837.827" y2="-0.734127" transform="matrix(0.707109 -0.707104 0.707109 0.707104 -332.838 387.359)" stroke="white" stroke-width="1.46825"/>
<line y1="-0.734127" x2="837.827" y2="-0.734127" transform="matrix(0.707109 -0.707104 0.707109 0.707104 -329.846 390.352)" stroke="white" stroke-width="1.46825"/>
<line y1="-0.734127" x2="837.827" y2="-0.734127" transform="matrix(0.707109 -0.707104 0.707109 0.707104 -326.854 393.344)" stroke="white" stroke-width="1.46825"/>
<line y1="-0.734127" x2="837.827" y2="-0.734127" transform="matrix(0.707109 -0.707104 0.707109 0.707104 -323.862 396.335)" stroke="white" stroke-width="1.46825"/>
<line y1="-0.734127" x2="837.827" y2="-0.734127" transform="matrix(0.707109 -0.707104 0.707109 0.707104 -320.87 399.328)" stroke="white" stroke-width="1.46825"/>
<line y1="-0.734127" x2="837.827" y2="-0.734127" transform="matrix(0.707109 -0.707104 0.707109 0.707104 -317.877 402.32)" stroke="white" stroke-width="1.46825"/>
<line y1="-0.734127" x2="837.827" y2="-0.734127" transform="matrix(0.707109 -0.707104 0.707109 0.707104 -314.886 405.312)" stroke="white" stroke-width="1.46825"/>
<line y1="-0.734127" x2="837.827" y2="-0.734127" transform="matrix(0.707109 -0.707104 0.707109 0.707104 -311.894 408.304)" stroke="white" stroke-width="1.46825"/>
<line y1="-0.734127" x2="837.827" y2="-0.734127" transform="matrix(0.707109 -0.707104 0.707109 0.707104 -308.902 411.296)" stroke="white" stroke-width="1.46825"/>
<line y1="-0.734127" x2="837.827" y2="-0.734127" transform="matrix(0.707109 -0.707104 0.707109 0.707104 -305.909 414.289)" stroke="white" stroke-width="1.46825"/>
<line y1="-0.734127" x2="837.827" y2="-0.734127" transform="matrix(0.707109 -0.707104 0.707109 0.707104 -302.917 417.28)" stroke="white" stroke-width="1.46825"/>
<line y1="-0.734127" x2="837.827" y2="-0.734127" transform="matrix(0.707109 -0.707104 0.707109 0.707104 -299.926 420.272)" stroke="white" stroke-width="1.46825"/>
<line y1="-0.734127" x2="837.827" y2="-0.734127" transform="matrix(0.707109 -0.707104 0.707109 0.707104 -296.933 423.265)" stroke="white" stroke-width="1.46825"/>
<line y1="-0.734127" x2="837.827" y2="-0.734127" transform="matrix(0.707109 -0.707104 0.707109 0.707104 -293.941 426.257)" stroke="white" stroke-width="1.46825"/>
<line y1="-0.734127" x2="837.827" y2="-0.734127" transform="matrix(0.707109 -0.707104 0.707109 0.707104 -290.949 429.249)" stroke="white" stroke-width="1.46825"/>
<line y1="-0.734127" x2="837.827" y2="-0.734127" transform="matrix(0.707109 -0.707104 0.707109 0.707104 -287.956 432.241)" stroke="white" stroke-width="1.46825"/>
<line y1="-0.734127" x2="837.827" y2="-0.734127" transform="matrix(0.707109 -0.707104 0.707109 0.707104 -284.964 435.232)" stroke="white" stroke-width="1.46825"/>
<line y1="-0.734127" x2="837.827" y2="-0.734127" transform="matrix(0.707109 -0.707104 0.707109 0.707104 -281.973 438.225)" stroke="white" stroke-width="1.46825"/>
<line y1="-0.734127" x2="837.827" y2="-0.734127" transform="matrix(0.707109 -0.707104 0.707109 0.707104 -278.98 441.217)" stroke="white" stroke-width="1.46825"/>
<line y1="-0.734127" x2="837.827" y2="-0.734127" transform="matrix(0.707109 -0.707104 0.707109 0.707104 -275.988 444.209)" stroke="white" stroke-width="1.46825"/>
<line y1="-0.734127" x2="837.827" y2="-0.734127" transform="matrix(0.707109 -0.707104 0.707109 0.707104 -272.997 447.201)" stroke="white" stroke-width="1.46825"/>
<line y1="-0.734127" x2="837.827" y2="-0.734127" transform="matrix(0.707109 -0.707104 0.707109 0.707104 -270.005 450.192)" stroke="white" stroke-width="1.46825"/>
<line y1="-0.734127" x2="837.827" y2="-0.734127" transform="matrix(0.707109 -0.707104 0.707109 0.707104 -267.012 453.185)" stroke="white" stroke-width="1.46825"/>
<line y1="-0.734127" x2="837.827" y2="-0.734127" transform="matrix(0.707109 -0.707104 0.707109 0.707104 -264.02 456.178)" stroke="white" stroke-width="1.46825"/>
<line y1="-0.734127" x2="837.827" y2="-0.734127" transform="matrix(0.707109 -0.707104 0.707109 0.707104 -261.027 459.169)" stroke="white" stroke-width="1.46825"/>
<line y1="-0.734127" x2="837.827" y2="-0.734127" transform="matrix(0.707109 -0.707104 0.707109 0.707104 -258.036 462.161)" stroke="white" stroke-width="1.46825"/>
<line y1="-0.734127" x2="837.827" y2="-0.734127" transform="matrix(0.707109 -0.707104 0.707109 0.707104 -255.044 465.153)" stroke="white" stroke-width="1.46825"/>
<line y1="-0.734127" x2="837.827" y2="-0.734127" transform="matrix(0.707109 -0.707104 0.707109 0.707104 -252.052 468.146)" stroke="white" stroke-width="1.46825"/>
<line y1="-0.734127" x2="837.827" y2="-0.734127" transform="matrix(0.707109 -0.707104 0.707109 0.707104 -249.059 471.138)" stroke="white" stroke-width="1.46825"/>
<line y1="-0.734127" x2="837.827" y2="-0.734127" transform="matrix(0.707109 -0.707104 0.707109 0.707104 -246.067 474.13)" stroke="white" stroke-width="1.46825"/>
<line y1="-0.734127" x2="837.827" y2="-0.734127" transform="matrix(0.707109 -0.707104 0.707109 0.707104 -243.076 477.122)" stroke="white" stroke-width="1.46825"/>
<line y1="-0.734127" x2="837.827" y2="-0.734127" transform="matrix(0.707109 -0.707104 0.707109 0.707104 -240.083 480.114)" stroke="white" stroke-width="1.46825"/>
<line y1="-0.734127" x2="837.827" y2="-0.734127" transform="matrix(0.707109 -0.707104 0.707109 0.707104 -237.091 483.106)" stroke="white" stroke-width="1.46825"/>
<line y1="-0.734127" x2="837.827" y2="-0.734127" transform="matrix(0.707109 -0.707104 0.707109 0.707104 -234.099 486.098)" stroke="white" stroke-width="1.46825"/>
<line y1="-0.734127" x2="837.827" y2="-0.734127" transform="matrix(0.707109 -0.707104 0.707109 0.707104 -231.107 489.09)" stroke="white" stroke-width="1.46825"/>
<line y1="-0.734127" x2="837.827" y2="-0.734127" transform="matrix(0.707109 -0.707104 0.707109 0.707104 -228.115 492.083)" stroke="white" stroke-width="1.46825"/>
<line y1="-0.734127" x2="837.827" y2="-0.734127" transform="matrix(0.707109 -0.707104 0.707109 0.707104 -225.123 495.074)" stroke="white" stroke-width="1.46825"/>
<line y1="-0.734127" x2="837.827" y2="-0.734127" transform="matrix(0.707109 -0.707104 0.707109 0.707104 -222.131 498.066)" stroke="white" stroke-width="1.46825"/>
<line y1="-0.734127" x2="837.827" y2="-0.734127" transform="matrix(0.707109 -0.707104 0.707109 0.707104 -219.138 501.058)" stroke="white" stroke-width="1.46825"/>
<line y1="-0.734127" x2="837.827" y2="-0.734127" transform="matrix(0.707109 -0.707104 0.707109 0.707104 -216.147 504.051)" stroke="white" stroke-width="1.46825"/>
<line y1="-0.734127" x2="837.827" y2="-0.734127" transform="matrix(0.707109 -0.707104 0.707109 0.707104 -213.155 507.042)" stroke="white" stroke-width="1.46825"/>
<line y1="-0.734127" x2="837.827" y2="-0.734127" transform="matrix(0.707109 -0.707104 0.707109 0.707104 -210.162 510.035)" stroke="white" stroke-width="1.46825"/>
<line y1="-0.734127" x2="837.827" y2="-0.734127" transform="matrix(0.707109 -0.707104 0.707109 0.707104 -207.17 513.027)" stroke="white" stroke-width="1.46825"/>
<line y1="-0.734127" x2="837.827" y2="-0.734127" transform="matrix(0.707109 -0.707104 0.707109 0.707104 -204.178 516.019)" stroke="white" stroke-width="1.46825"/>
<line y1="-0.734127" x2="837.827" y2="-0.734127" transform="matrix(0.707109 -0.707104 0.707109 0.707104 -201.186 519.011)" stroke="white" stroke-width="1.46825"/>
<line y1="-0.734127" x2="837.827" y2="-0.734127" transform="matrix(0.707109 -0.707104 0.707109 0.707104 -198.194 522.003)" stroke="white" stroke-width="1.46825"/>
<line y1="-0.734127" x2="837.827" y2="-0.734127" transform="matrix(0.707109 -0.707104 0.707109 0.707104 -195.202 524.996)" stroke="white" stroke-width="1.46825"/>
<line y1="-0.734127" x2="837.827" y2="-0.734127" transform="matrix(0.707109 -0.707104 0.707109 0.707104 -192.209 527.987)" stroke="white" stroke-width="1.46825"/>
<line y1="-0.734127" x2="837.827" y2="-0.734127" transform="matrix(0.707109 -0.707104 0.707109 0.707104 -189.218 530.979)" stroke="white" stroke-width="1.46825"/>
<line y1="-0.734127" x2="837.827" y2="-0.734127" transform="matrix(0.707109 -0.707104 0.707109 0.707104 -186.226 533.971)" stroke="white" stroke-width="1.46825"/>
<line y1="-0.734127" x2="837.827" y2="-0.734127" transform="matrix(0.707109 -0.707104 0.707109 0.707104 -183.233 536.964)" stroke="white" stroke-width="1.46825"/>
<line y1="-0.734127" x2="837.827" y2="-0.734127" transform="matrix(0.707109 -0.707104 0.707109 0.707104 -180.241 539.956)" stroke="white" stroke-width="1.46825"/>
<line y1="-0.734127" x2="837.827" y2="-0.734127" transform="matrix(0.707109 -0.707104 0.707109 0.707104 -177.249 542.948)" stroke="white" stroke-width="1.46825"/>
<line y1="-0.734127" x2="837.827" y2="-0.734127" transform="matrix(0.707109 -0.707104 0.707109 0.707104 -174.258 545.939)" stroke="white" stroke-width="1.46825"/>
<line y1="-0.734127" x2="837.827" y2="-0.734127" transform="matrix(0.707109 -0.707104 0.707109 0.707104 -171.265 548.931)" stroke="white" stroke-width="1.46825"/>
<line y1="-0.734127" x2="837.827" y2="-0.734127" transform="matrix(0.707109 -0.707104 0.707109 0.707104 -168.273 551.924)" stroke="white" stroke-width="1.46825"/>
<line y1="-0.734127" x2="837.827" y2="-0.734127" transform="matrix(0.707109 -0.707104 0.707109 0.707104 -165.281 554.916)" stroke="white" stroke-width="1.46825"/>
<line y1="-0.734127" x2="837.827" y2="-0.734127" transform="matrix(0.707109 -0.707104 0.707109 0.707104 -162.288 557.908)" stroke="white" stroke-width="1.46825"/>
<line y1="-0.734127" x2="837.827" y2="-0.734127" transform="matrix(0.707109 -0.707104 0.707109 0.707104 -159.296 560.9)" stroke="white" stroke-width="1.46825"/>
<line y1="-0.734127" x2="837.827" y2="-0.734127" transform="matrix(0.707109 -0.707104 0.707109 0.707104 -156.305 563.892)" stroke="white" stroke-width="1.46825"/>
<line y1="-0.734127" x2="837.827" y2="-0.734127" transform="matrix(0.707109 -0.707104 0.707109 0.707104 -153.312 566.884)" stroke="white" stroke-width="1.46825"/>
<line y1="-0.734127" x2="837.827" y2="-0.734127" transform="matrix(0.707109 -0.707104 0.707109 0.707104 -150.32 569.876)" stroke="white" stroke-width="1.46825"/>
<line y1="-0.734127" x2="837.827" y2="-0.734127" transform="matrix(0.707109 -0.707104 0.707109 0.707104 -147.328 572.869)" stroke="white" stroke-width="1.46825"/>
<line y1="-0.734127" x2="837.827" y2="-0.734127" transform="matrix(0.707109 -0.707104 0.707109 0.707104 -144.336 575.86)" stroke="white" stroke-width="1.46825"/>
<line y1="-0.734127" x2="837.827" y2="-0.734127" transform="matrix(0.707109 -0.707104 0.707109 0.707104 -141.344 578.853)" stroke="white" stroke-width="1.46825"/>
<line y1="-0.734127" x2="837.827" y2="-0.734127" transform="matrix(0.707109 -0.707104 0.707109 0.707104 -138.352 581.844)" stroke="white" stroke-width="1.46825"/>
<line y1="-0.734127" x2="837.827" y2="-0.734127" transform="matrix(0.707109 -0.707104 0.707109 0.707104 -135.359 584.837)" stroke="white" stroke-width="1.46825"/>
<line y1="-0.734127" x2="837.827" y2="-0.734127" transform="matrix(0.707109 -0.707104 0.707109 0.707104 -132.367 587.829)" stroke="white" stroke-width="1.46825"/>
<line y1="-0.734127" x2="837.827" y2="-0.734127" transform="matrix(0.707109 -0.707104 0.707109 0.707104 -129.376 590.821)" stroke="white" stroke-width="1.46825"/>
<line y1="-0.734127" x2="837.827" y2="-0.734127" transform="matrix(0.707109 -0.707104 0.707109 0.707104 -126.384 593.812)" stroke="white" stroke-width="1.46825"/>
<line y1="-0.734127" x2="837.827" y2="-0.734127" transform="matrix(0.707109 -0.707104 0.707109 0.707104 -123.391 596.805)" stroke="white" stroke-width="1.46825"/>
<line y1="-0.734127" x2="837.827" y2="-0.734127" transform="matrix(0.707109 -0.707104 0.707109 0.707104 -120.399 599.797)" stroke="white" stroke-width="1.46825"/>
<line y1="-0.734127" x2="837.827" y2="-0.734127" transform="matrix(0.707109 -0.707104 0.707109 0.707104 -117.407 602.789)" stroke="white" stroke-width="1.46825"/>
<line y1="-0.734127" x2="837.827" y2="-0.734127" transform="matrix(0.707109 -0.707104 0.707109 0.707104 -114.415 605.782)" stroke="white" stroke-width="1.46825"/>
<line y1="-0.734127" x2="837.827" y2="-0.734127" transform="matrix(0.707109 -0.707104 0.707109 0.707104 -111.423 608.773)" stroke="white" stroke-width="1.46825"/>
<line y1="-0.734127" x2="837.827" y2="-0.734127" transform="matrix(0.707109 -0.707104 0.707109 0.707104 -108.431 611.766)" stroke="white" stroke-width="1.46825"/>
<line y1="-0.734127" x2="837.827" y2="-0.734127" transform="matrix(0.707109 -0.707104 0.707109 0.707104 -105.439 614.757)" stroke="white" stroke-width="1.46825"/>
<line y1="-0.734127" x2="837.827" y2="-0.734127" transform="matrix(0.707109 -0.707104 0.707109 0.707104 -102.447 617.75)" stroke="white" stroke-width="1.46825"/>
<line y1="-0.734127" x2="837.827" y2="-0.734127" transform="matrix(0.707109 -0.707104 0.707109 0.707104 -99.4547 620.742)" stroke="white" stroke-width="1.46825"/>
<line y1="-0.734127" x2="837.827" y2="-0.734127" transform="matrix(0.707109 -0.707104 0.707109 0.707104 -96.463 623.733)" stroke="white" stroke-width="1.46825"/>
<line y1="-0.734127" x2="837.827" y2="-0.734127" transform="matrix(0.707109 -0.707104 0.707109 0.707104 -93.4702 626.726)" stroke="white" stroke-width="1.46825"/>
<line y1="-0.734127" x2="837.827" y2="-0.734127" transform="matrix(0.707109 -0.707104 0.707109 0.707104 -90.4785 629.718)" stroke="white" stroke-width="1.46825"/>
<line y1="-0.734127" x2="837.827" y2="-0.734127" transform="matrix(0.707109 -0.707104 0.707109 0.707104 -87.4866 632.71)" stroke="white" stroke-width="1.46825"/>
<line y1="-0.734127" x2="837.827" y2="-0.734127" transform="matrix(0.707109 -0.707104 0.707109 0.707104 -84.494 635.702)" stroke="white" stroke-width="1.46825"/>
<line y1="-0.734127" x2="837.827" y2="-0.734127" transform="matrix(0.707109 -0.707104 0.707109 0.707104 -81.5021 638.694)" stroke="white" stroke-width="1.46825"/>
<line y1="-0.734127" x2="837.827" y2="-0.734127" transform="matrix(0.707109 -0.707104 0.707109 0.707104 -78.5102 641.686)" stroke="white" stroke-width="1.46825"/>
<line y1="-0.734127" x2="837.827" y2="-0.734127" transform="matrix(0.707109 -0.707104 0.707109 0.707104 -75.5172 644.678)" stroke="white" stroke-width="1.46825"/>
<line y1="-0.734127" x2="837.827" y2="-0.734127" transform="matrix(0.707109 -0.707104 0.707109 0.707104 -72.5257 647.67)" stroke="white" stroke-width="1.46825"/>
<line y1="-0.734127" x2="837.827" y2="-0.734127" transform="matrix(0.707109 -0.707104 0.707109 0.707104 -69.5339 650.662)" stroke="white" stroke-width="1.46825"/>
<line y1="-0.734127" x2="837.827" y2="-0.734127" transform="matrix(0.707109 -0.707104 0.707109 0.707104 -66.5412 653.654)" stroke="white" stroke-width="1.46825"/>
<line y1="-0.734127" x2="837.827" y2="-0.734127" transform="matrix(0.707109 -0.707104 0.707109 0.707104 -63.5494 656.646)" stroke="white" stroke-width="1.46825"/>
<line y1="-0.734127" x2="837.827" y2="-0.734127" transform="matrix(0.707109 -0.707104 0.707109 0.707104 -60.5576 659.638)" stroke="white" stroke-width="1.46825"/>
<line y1="-0.734127" x2="837.827" y2="-0.734127" transform="matrix(0.707109 -0.707104 0.707109 0.707104 -57.5648 662.631)" stroke="white" stroke-width="1.46825"/>
<line y1="-0.734127" x2="837.827" y2="-0.734127" transform="matrix(0.707109 -0.707104 0.707109 0.707104 -54.5728 665.623)" stroke="white" stroke-width="1.46825"/>
<line y1="-0.734127" x2="837.827" y2="-0.734127" transform="matrix(0.707109 -0.707104 0.707109 0.707104 -51.5812 668.615)" stroke="white" stroke-width="1.46825"/>
<line y1="-0.734127" x2="837.827" y2="-0.734127" transform="matrix(0.707109 -0.707104 0.707109 0.707104 -48.5895 671.607)" stroke="white" stroke-width="1.46825"/>
<line y1="-0.734127" x2="837.827" y2="-0.734127" transform="matrix(0.707109 -0.707104 0.707109 0.707104 -45.5967 674.599)" stroke="white" stroke-width="1.46825"/>
<line y1="-0.734127" x2="837.827" y2="-0.734127" transform="matrix(0.707109 -0.707104 0.707109 0.707104 -42.6049 677.591)" stroke="white" stroke-width="1.46825"/>
<line y1="-0.734127" x2="837.827" y2="-0.734127" transform="matrix(0.707109 -0.707104 0.707109 0.707104 -39.6127 680.583)" stroke="white" stroke-width="1.46825"/>
<line y1="-0.734127" x2="837.827" y2="-0.734127" transform="matrix(0.707109 -0.707104 0.707109 0.707104 -36.6204 683.576)" stroke="white" stroke-width="1.46825"/>
<line y1="-0.734127" x2="837.827" y2="-0.734127" transform="matrix(0.707109 -0.707104 0.707109 0.707104 -33.6282 686.567)" stroke="white" stroke-width="1.46825"/>
<line y1="-0.734127" x2="837.827" y2="-0.734127" transform="matrix(0.707109 -0.707104 0.707109 0.707104 -30.6367 689.559)" stroke="white" stroke-width="1.46825"/>
<line y1="-0.734127" x2="837.827" y2="-0.734127" transform="matrix(0.707109 -0.707104 0.707109 0.707104 -27.6439 692.551)" stroke="white" stroke-width="1.46825"/>
<line y1="-0.734127" x2="837.827" y2="-0.734127" transform="matrix(0.707109 -0.707104 0.707109 0.707104 -24.6522 695.544)" stroke="white" stroke-width="1.46825"/>
<line y1="-0.734127" x2="837.827" y2="-0.734127" transform="matrix(0.707109 -0.707104 0.707109 0.707104 -21.6603 698.536)" stroke="white" stroke-width="1.46825"/>
<line y1="-0.734127" x2="837.827" y2="-0.734127" transform="matrix(0.707109 -0.707104 0.707109 0.707104 -18.6683 701.528)" stroke="white" stroke-width="1.46825"/>
<line y1="-0.734127" x2="837.827" y2="-0.734127" transform="matrix(0.707109 -0.707104 0.707109 0.707104 -15.6758 704.52)" stroke="white" stroke-width="1.46825"/>
<line y1="-0.734127" x2="837.827" y2="-0.734127" transform="matrix(0.707109 -0.707104 0.707109 0.707104 -12.6838 707.512)" stroke="white" stroke-width="1.46825"/>
<line y1="-0.734127" x2="837.827" y2="-0.734127" transform="matrix(0.707109 -0.707104 0.707109 0.707104 -9.69226 710.504)" stroke="white" stroke-width="1.46825"/>
<line y1="-0.734127" x2="837.827" y2="-0.734127" transform="matrix(0.707109 -0.707104 0.707109 0.707104 -6.69946 713.496)" stroke="white" stroke-width="1.46825"/>
<line y1="-0.734127" x2="837.827" y2="-0.734127" transform="matrix(0.707109 -0.707104 0.707109 0.707104 -3.70776 716.488)" stroke="white" stroke-width="1.46825"/>
<line y1="-0.734127" x2="837.827" y2="-0.734127" transform="matrix(0.707109 -0.707104 0.707109 0.707104 -0.714966 719.48)" stroke="white" stroke-width="1.46825"/>
<line y1="-0.734127" x2="837.828" y2="-0.734127" transform="matrix(0.707109 -0.707104 0.707109 0.707104 2.2771 722.473)" stroke="white" stroke-width="1.46825"/>
<line y1="-0.734127" x2="837.827" y2="-0.734127" transform="matrix(0.707109 -0.707104 0.707109 0.707104 5.26904 725.464)" stroke="white" stroke-width="1.46825"/>
<line y1="-0.734127" x2="837.827" y2="-0.734127" transform="matrix(0.707109 -0.707104 0.707109 0.707104 8.26074 728.456)" stroke="white" stroke-width="1.46825"/>
<line y1="-0.734127" x2="837.827" y2="-0.734127" transform="matrix(0.707109 -0.707104 0.707109 0.707104 11.2535 731.449)" stroke="white" stroke-width="1.46825"/>
<line y1="-0.734127" x2="837.827" y2="-0.734127" transform="matrix(0.707109 -0.707104 0.707109 0.707104 14.245 734.441)" stroke="white" stroke-width="1.46825"/>
<line y1="-0.734127" x2="837.827" y2="-0.734127" transform="matrix(0.707109 -0.707104 0.707109 0.707104 17.2371 737.433)" stroke="white" stroke-width="1.46825"/>
<line y1="-0.734127" x2="837.827" y2="-0.734127" transform="matrix(0.707109 -0.707104 0.707109 0.707104 20.2295 740.424)" stroke="white" stroke-width="1.46825"/>
<line y1="-0.734127" x2="837.827" y2="-0.734127" transform="matrix(0.707109 -0.707104 0.707109 0.707104 23.2217 743.417)" stroke="white" stroke-width="1.46825"/>
<line y1="-0.734127" x2="837.827" y2="-0.734127" transform="matrix(0.707109 -0.707104 0.707109 0.707104 26.2135 746.409)" stroke="white" stroke-width="1.46825"/>
<line y1="-0.734127" x2="837.827" y2="-0.734127" transform="matrix(0.707109 -0.707104 0.707109 0.707104 29.2051 749.401)" stroke="white" stroke-width="1.46825"/>
<line y1="-0.734127" x2="837.827" y2="-0.734127" transform="matrix(0.707109 -0.707104 0.707109 0.707104 32.198 752.393)" stroke="white" stroke-width="1.46825"/>
<line y1="-0.734127" x2="837.827" y2="-0.734127" transform="matrix(0.707109 -0.707104 0.707109 0.707104 35.1895 755.385)" stroke="white" stroke-width="1.46825"/>
<line y1="-0.734127" x2="837.827" y2="-0.734127" transform="matrix(0.707109 -0.707104 0.707109 0.707104 38.1816 758.377)" stroke="white" stroke-width="1.46825"/>
<line y1="-0.734127" x2="837.827" y2="-0.734127" transform="matrix(0.707109 -0.707104 0.707109 0.707104 41.1743 761.369)" stroke="white" stroke-width="1.46825"/>
<line y1="-0.734127" x2="837.827" y2="-0.734127" transform="matrix(0.707109 -0.707104 0.707109 0.707104 44.166 764.362)" stroke="white" stroke-width="1.46825"/>
</g>
</g>
<path d="M147.524 75.5292L149.25 75.7695C149.059 76.9573 148.577 77.8836 147.798 78.5561C147.019 79.2291 146.059 79.5635 144.924 79.5635C143.503 79.5635 142.359 79.0987 141.495 78.1685C140.629 77.2384 140.198 75.9065 140.198 74.1739C140.198 73.0497 140.385 72.0695 140.756 71.2264C141.127 70.387 141.693 69.7542 142.456 69.3362C143.215 68.9143 144.041 68.7039 144.937 68.7039C146.065 68.7039 146.992 68.9882 147.707 69.5607C148.427 70.1326 148.888 70.9453 149.089 71.9956L147.384 72.2571C147.219 71.558 146.931 71.0323 146.513 70.6778C146.099 70.3267 145.597 70.1489 145.008 70.1489C144.118 70.1489 143.395 70.4669 142.837 71.1024C142.282 71.7417 142.004 72.7453 142.004 74.1234C142.004 75.5221 142.272 76.536 142.807 77.1677C143.346 77.8005 144.044 78.1185 144.904 78.1185C145.6 78.1185 146.179 77.9076 146.64 77.4825C147.105 77.0611 147.4 76.4088 147.524 75.5292ZM150.865 74.1337C150.865 72.2104 151.4 70.785 152.474 69.8586C153.367 69.0888 154.461 68.7039 155.749 68.7039C157.177 68.7039 158.348 69.1725 159.258 70.1087C160.165 71.0421 160.619 72.3376 160.619 73.9864C160.619 75.3248 160.418 76.3751 160.017 77.1416C159.615 77.9076 159.031 78.5034 158.261 78.928C157.495 79.3525 156.655 79.5635 155.749 79.5635C154.29 79.5635 153.113 79.0987 152.213 78.1652C151.313 77.2318 150.865 75.8869 150.865 74.1337ZM152.671 74.137C152.671 75.4689 152.962 76.4653 153.544 77.1247C154.13 77.7869 154.862 78.1185 155.749 78.1185C156.625 78.1185 157.354 77.7869 157.94 77.121C158.522 76.4556 158.813 75.4417 158.813 74.0804C158.813 72.7953 158.519 71.8222 157.934 71.1622C157.348 70.5001 156.619 70.169 155.749 70.169C154.862 70.169 154.13 70.4968 153.544 71.1562C152.962 71.8151 152.671 72.8089 152.671 74.137ZM170.267 78.038C169.611 78.5969 168.979 78.9878 168.373 79.2188C167.767 79.4493 167.119 79.5635 166.423 79.5635C165.279 79.5635 164.399 79.2862 163.784 78.7274C163.168 78.1718 162.861 77.4596 162.861 76.5925C162.861 76.0842 162.977 75.6194 163.208 75.1981C163.442 74.7763 163.747 74.4414 164.122 74.1875C164.499 73.9331 164.921 73.7385 165.393 73.6086C165.74 73.5183 166.266 73.4308 166.965 73.3444C168.39 73.1769 169.444 72.973 170.116 72.7387C170.123 72.4979 170.126 72.3435 170.126 72.2805C170.126 71.5645 169.959 71.0595 169.624 70.7643C169.173 70.3669 168.501 70.169 167.61 70.169C166.778 70.169 166.162 70.3164 165.768 70.6072C165.37 70.8986 165.078 71.4139 164.888 72.1565L163.162 71.9151C163.319 71.1758 163.576 70.5773 163.937 70.1223C164.299 69.6672 164.821 69.3193 165.503 69.0714C166.182 68.8273 166.975 68.7039 167.872 68.7039C168.762 68.7039 169.487 68.8078 170.046 69.0187C170.601 69.2291 171.013 69.49 171.273 69.8075C171.535 70.1255 171.719 70.5273 171.825 71.0122C171.883 71.3134 171.913 71.8554 171.913 72.6349V74.9769C171.913 76.6126 171.95 77.6466 172.023 78.0854C172.094 78.523 172.24 78.941 172.455 79.3428H170.608C170.431 78.9709 170.317 78.536 170.267 78.038ZM170.126 74.1234C169.484 74.3843 168.52 74.6056 167.236 74.786C166.506 74.8899 165.992 75.0068 165.691 75.1372C165.389 75.2677 165.159 75.4585 164.995 75.7064C164.83 75.957 164.747 76.2348 164.747 76.5425C164.747 77.0073 164.924 77.3993 165.283 77.7102C165.64 78.0212 166.162 78.1783 166.848 78.1783C167.527 78.1783 168.133 78.031 168.664 77.7336C169.193 77.439 169.585 77.0345 169.832 76.5224C170.022 76.1245 170.116 75.539 170.116 74.7665L170.126 74.1234ZM179.231 77.7673L179.472 79.3259C178.977 79.4303 178.532 79.4836 178.144 79.4836C177.505 79.4836 177.01 79.383 176.655 79.1786C176.305 78.9747 176.057 78.7105 175.913 78.3789C175.769 78.0478 175.699 77.3525 175.699 76.2914V70.2897H174.395V68.9241H175.699V66.3489L177.465 65.2878V68.9241H179.231V70.2897H177.465V76.392C177.465 76.897 177.495 77.222 177.559 77.3656C177.619 77.5096 177.72 77.6233 177.86 77.7102C178 77.794 178.201 77.8369 178.462 77.8369C178.656 77.8369 178.914 77.8141 179.231 77.7673ZM181.747 66.9774V64.9697H183.513V66.9774H181.747ZM181.747 79.3428V68.9241H183.513V79.3428H181.747ZM186.979 79.3428V68.9241H188.564V70.4033C189.327 69.2693 190.431 68.7039 191.873 68.7039C192.501 68.7039 193.077 68.8176 193.602 69.0415C194.127 69.2661 194.522 69.5634 194.783 69.9287C195.044 70.2935 195.227 70.7279 195.332 71.2296C195.395 71.558 195.429 72.1299 195.429 72.9464V79.3428H193.662V73.0127C193.662 72.2935 193.596 71.7548 193.458 71.4003C193.321 71.0459 193.077 70.761 192.729 70.5474C192.381 70.3364 191.969 70.2294 191.501 70.2294C190.752 70.2294 190.106 70.4669 189.561 70.9453C189.016 71.4204 188.744 72.3272 188.744 73.6586V79.3428H186.979ZM198.589 80.2061L200.296 80.4469C200.366 80.9758 200.567 81.3602 200.894 81.6042C201.333 81.9288 201.931 82.093 202.691 82.093C203.507 82.093 204.139 81.9288 204.584 81.6042C205.029 81.2797 205.33 80.8214 205.487 80.2359C205.578 79.8777 205.621 79.1259 205.614 77.9777C204.842 78.8877 203.882 79.3428 202.731 79.3428C201.299 79.3428 200.188 78.8274 199.405 77.794C198.619 76.7638 198.228 75.5254 198.228 74.0832C198.228 73.0905 198.409 72.1728 198.767 71.334C199.125 70.4936 199.646 69.8483 200.329 69.3894C201.012 68.9312 201.814 68.7039 202.738 68.7039C203.965 68.7039 204.979 69.2057 205.775 70.2092V68.9241H207.401V77.9206C207.401 79.5434 207.237 80.6915 206.906 81.3667C206.578 82.0424 206.053 82.5779 205.341 82.9699C204.624 83.3607 203.745 83.5581 202.7 83.5581C201.46 83.5581 200.459 83.2803 199.697 82.722C198.931 82.1664 198.562 81.327 198.589 80.2061ZM200.035 73.9565C200.035 75.3183 200.305 76.312 200.847 76.9372C201.393 77.5629 202.071 77.8777 202.888 77.8777C203.701 77.8777 204.38 77.5662 204.932 76.9437C205.481 76.3218 205.755 75.3444 205.755 74.0136C205.755 72.742 205.47 71.7814 204.905 71.1361C204.34 70.4897 203.658 70.169 202.861 70.169C202.075 70.169 201.409 70.4871 200.857 71.1226C200.309 71.7581 200.035 72.7018 200.035 73.9565ZM216.426 66.9774V64.9697H218.192V66.9774H216.426ZM216.426 79.3428V68.9241H218.192V79.3428H216.426ZM221.657 79.3428V68.9241H223.244V70.4033C224.006 69.2693 225.11 68.7039 226.552 68.7039C227.181 68.7039 227.756 68.8176 228.281 69.0415C228.806 69.2661 229.202 69.5634 229.462 69.9287C229.723 70.2935 229.907 70.7279 230.01 71.2296C230.075 71.558 230.108 72.1299 230.108 72.9464V79.3428H228.341V73.0127C228.341 72.2935 228.275 71.7548 228.137 71.4003C228 71.0459 227.756 70.761 227.408 70.5474C227.06 70.3364 226.648 70.2294 226.18 70.2294C225.431 70.2294 224.785 70.4669 224.24 70.9453C223.695 71.4204 223.423 72.3272 223.423 73.6586V79.3428H221.657ZM233.593 79.3428V68.9241H235.179V70.4033C235.941 69.2693 237.045 68.7039 238.487 68.7039C239.116 68.7039 239.691 68.8176 240.216 69.0415C240.742 69.2661 241.137 69.5634 241.397 69.9287C241.658 70.2935 241.842 70.7279 241.946 71.2296C242.01 71.558 242.043 72.1299 242.043 72.9464V79.3428H240.277V73.0127C240.277 72.2935 240.21 71.7548 240.072 71.4003C239.935 71.0459 239.691 70.761 239.343 70.5474C238.996 70.3364 238.584 70.2294 238.116 70.2294C237.367 70.2294 236.721 70.4669 236.175 70.9453C235.63 71.4204 235.359 72.3272 235.359 73.6586V79.3428H233.593ZM244.866 74.1337C244.866 72.2104 245.401 70.785 246.475 69.8586C247.368 69.0888 248.462 68.7039 249.75 68.7039C251.178 68.7039 252.349 69.1725 253.259 70.1087C254.166 71.0421 254.621 72.3376 254.621 73.9864C254.621 75.3248 254.42 76.3751 254.018 77.1416C253.617 77.9076 253.032 78.5034 252.262 78.928C251.496 79.3525 250.657 79.5635 249.75 79.5635C248.291 79.5635 247.114 79.0987 246.214 78.1652C245.314 77.2318 244.866 75.8869 244.866 74.1337ZM246.672 74.137C246.672 75.4689 246.963 76.4653 247.546 77.1247C248.131 77.7869 248.864 78.1185 249.75 78.1185C250.627 78.1185 251.356 77.7869 251.941 77.121C252.523 76.4556 252.814 75.4417 252.814 74.0804C252.814 72.7953 252.52 71.8222 251.935 71.1622C251.349 70.5001 250.62 70.169 249.75 70.169C248.864 70.169 248.131 70.4968 247.546 71.1562C246.963 71.8151 246.672 72.8089 246.672 74.137ZM260.311 79.3428L256.38 68.9241H258.271L260.498 75.1639C260.739 75.8369 260.963 76.536 261.167 77.2617C261.324 76.7132 261.542 76.0543 261.826 75.2813L264.141 68.9241H265.954L262.01 79.3428H260.311ZM275.076 78.038C274.42 78.5969 273.788 78.9878 273.182 79.2188C272.577 79.4493 271.928 79.5635 271.233 79.5635C270.088 79.5635 269.208 79.2862 268.592 78.7274C267.977 78.1718 267.669 77.4596 267.669 76.5925C267.669 76.0842 267.786 75.6194 268.017 75.1981C268.252 74.7763 268.556 74.4414 268.93 74.1875C269.308 73.9331 269.73 73.7385 270.202 73.6086C270.549 73.5183 271.075 73.4308 271.774 73.3444C273.199 73.1769 274.253 72.973 274.925 72.7387C274.932 72.4979 274.935 72.3435 274.935 72.2805C274.935 71.5645 274.768 71.0595 274.433 70.7643C273.981 70.3669 273.309 70.169 272.42 70.169C271.586 70.169 270.971 70.3164 270.576 70.6072C270.179 70.8986 269.887 71.4139 269.697 72.1565L267.971 71.9151C268.128 71.1758 268.385 70.5773 268.746 70.1223C269.108 69.6672 269.63 69.3193 270.312 69.0714C270.991 68.8273 271.784 68.7039 272.681 68.7039C273.57 68.7039 274.296 68.8078 274.855 69.0187C275.41 69.2291 275.822 69.49 276.083 69.8075C276.344 70.1255 276.527 70.5273 276.635 71.0122C276.692 71.3134 276.721 71.8554 276.721 72.6349V74.9769C276.721 76.6126 276.759 77.6466 276.832 78.0854C276.902 78.523 277.049 78.941 277.263 79.3428H275.417C275.24 78.9709 275.126 78.536 275.076 78.038ZM274.935 74.1234C274.293 74.3843 273.329 74.6056 272.045 74.786C271.316 74.8899 270.801 75.0068 270.5 75.1372C270.198 75.2677 269.968 75.4585 269.803 75.7064C269.639 75.957 269.557 76.2348 269.557 76.5425C269.557 77.0073 269.733 77.3993 270.091 77.7102C270.449 78.0212 270.971 78.1783 271.657 78.1783C272.335 78.1783 272.941 78.031 273.473 77.7336C274.002 77.439 274.393 77.0345 274.641 76.5224C274.831 76.1245 274.925 75.539 274.925 74.7665L274.935 74.1234ZM284.041 77.7673L284.281 79.3259C283.786 79.4303 283.342 79.4836 282.954 79.4836C282.314 79.4836 281.819 79.383 281.465 79.1786C281.114 78.9747 280.866 78.7105 280.722 78.3789C280.579 78.0478 280.508 77.3525 280.508 76.2914V70.2897H279.203V68.9241H280.508V66.3489L282.275 65.2878V68.9241H284.041V70.2897H282.275V76.392C282.275 76.897 282.304 77.222 282.368 77.3656C282.428 77.5096 282.529 77.6233 282.669 77.7102C282.809 77.794 283.01 77.8369 283.271 77.8369C283.466 77.8369 283.723 77.8141 284.041 77.7673ZM286.556 66.9774V64.9697H288.322V66.9774H286.556ZM286.556 79.3428V68.9241H288.322V79.3428H286.556ZM291.126 74.1337C291.126 72.2104 291.66 70.785 292.734 69.8586C293.628 69.0888 294.721 68.7039 296.009 68.7039C297.437 68.7039 298.609 69.1725 299.518 70.1087C300.425 71.0421 300.88 72.3376 300.88 73.9864C300.88 75.3248 300.679 76.3751 300.278 77.1416C299.876 77.9076 299.291 78.5034 298.521 78.928C297.755 79.3525 296.916 79.5635 296.009 79.5635C294.551 79.5635 293.374 79.0987 292.474 78.1652C291.573 77.2318 291.126 75.8869 291.126 74.1337ZM292.931 74.137C292.931 75.4689 293.223 76.4653 293.805 77.1247C294.39 77.7869 295.123 78.1185 296.009 78.1185C296.886 78.1185 297.615 77.7869 298.2 77.121C298.783 76.4556 299.074 75.4417 299.074 74.0804C299.074 72.7953 298.779 71.8222 298.194 71.1622C297.609 70.5001 296.879 70.169 296.009 70.169C295.123 70.169 294.39 70.4968 293.805 71.1562C293.223 71.8151 292.931 72.8089 292.931 74.137ZM303.723 79.3428V68.9241H305.309V70.4033C306.071 69.2693 307.175 68.7039 308.618 68.7039C309.246 68.7039 309.821 68.8176 310.347 69.0415C310.872 69.2661 311.266 69.5634 311.527 69.9287C311.789 70.2935 311.972 70.7279 312.076 71.2296C312.14 71.558 312.173 72.1299 312.173 72.9464V79.3428H310.406V73.0127C310.406 72.2935 310.34 71.7548 310.203 71.4003C310.066 71.0459 309.821 70.761 309.474 70.5474C309.126 70.3364 308.714 70.2294 308.246 70.2294C307.497 70.2294 306.85 70.4669 306.305 70.9453C305.76 71.4204 305.489 72.3272 305.489 73.6586V79.3428H303.723Z" fill="white"/>
<path d="M43.894 34.5796C42.2878 34.5796 40.981 35.8881 40.981 37.4984C40.981 39.0966 42.2861 40.409 43.894 40.4117C45.503 40.4117 46.8081 39.1064 46.8081 37.4984C46.8081 35.8881 45.503 34.5796 43.894 34.5796Z" fill="white"/>
<path d="M52.8384 47.0093C50.894 47.0093 49.3139 48.588 49.3139 50.5315C49.3139 52.4679 50.894 54.0503 52.8384 54.0503C54.7778 54.0503 56.3596 52.4679 56.3596 50.5315C56.3596 48.588 54.7778 47.0093 52.8384 47.0093Z" fill="white"/>
<path d="M43.894 47.6157C42.2878 47.6157 40.981 48.9209 40.981 50.5247C40.981 52.1338 42.2878 53.4461 43.894 53.4461C45.503 53.4461 46.8081 52.142 46.8081 50.5328C46.8081 48.921 45.503 47.6157 43.894 47.6157Z" fill="white"/>
<path d="M63.1415 46.248C60.7797 46.248 58.8625 48.1671 58.8625 50.5313C58.8625 52.8896 60.7797 54.8043 63.1415 54.8043C65.5028 54.8043 67.421 52.8896 67.421 50.5313C67.421 48.1671 65.5077 46.248 63.1415 46.248Z" fill="white"/>
<path d="M52.8384 33.9756C50.894 33.9756 49.3139 35.5543 49.3139 37.4967C49.3139 39.4418 50.894 41.0199 52.8384 41.0199C54.7778 41.0199 56.3596 39.4418 56.3596 37.4967C56.3596 35.5543 54.7778 33.9756 52.8384 33.9756Z" fill="white"/>
<path d="M43.894 21.5474C42.2878 21.5474 40.981 22.8591 40.981 24.4617C40.981 26.0703 42.2861 27.3772 43.894 27.3838C45.503 27.3838 46.8081 26.0703 46.8081 24.4617C46.8081 22.8591 45.503 21.5474 43.894 21.5474Z" fill="white"/>
<path d="M63.1411 28.742C65.5018 28.742 67.4201 26.8268 67.4201 24.4609C67.4201 22.101 65.5018 20.1836 63.1411 20.1836C60.7787 20.1836 58.8616 22.101 58.8616 24.4609C58.8616 26.8268 60.7787 28.742 63.1411 28.742Z" fill="white"/>
<path d="M52.8384 20.9473C50.894 20.9473 49.3139 22.5216 49.3139 24.4613C49.3139 26.4058 50.894 27.9846 52.8384 27.9846C54.7778 27.9846 56.3596 26.4058 56.3596 24.4613C56.3596 22.5216 54.7827 20.9473 52.8384 20.9473Z" fill="white"/>
<path d="M63.142 41.7775C60.7788 41.7775 58.8631 39.8618 58.8631 37.4986C58.8631 35.1355 60.7788 33.2197 63.142 33.2197C65.5053 33.2197 67.421 35.1355 67.421 37.4986C67.421 39.8618 65.5053 41.7775 63.142 41.7775Z" fill="white" stroke="white" stroke-width="0.000261308" stroke-miterlimit="10"/>
<path d="M88.2561 27.9059H82.8557V35.3552H88.2561C88.7883 35.3552 89.2943 35.2606 89.7705 35.0666C90.2456 34.8768 90.6657 34.6143 91.0223 34.2723C91.3735 33.9304 91.6583 33.5406 91.8687 33.0948C92.0747 32.655 92.1807 32.1641 92.1807 31.6287C92.1807 31.0986 92.0747 30.6093 91.8687 30.1701C91.6583 29.7237 91.3735 29.3362 91.0223 28.9904C90.6657 28.6555 90.2456 28.3832 89.7705 28.1951C89.2943 27.9999 88.7883 27.9059 88.2561 27.9059ZM88.922 44.0555H82.634V54.8052H73.3503V20.1836H88.922C90.5875 20.1836 92.1883 20.4695 93.7157 21.0333C95.2491 21.5981 96.6042 22.3907 97.7805 23.3975C98.9508 24.4098 99.8907 25.6291 100.589 27.0583C101.288 28.4843 101.639 30.0418 101.639 31.7434C101.639 33.4694 101.288 35.0736 100.589 36.5604C99.8907 38.0494 98.9508 39.352 97.7805 40.461C96.6042 41.5825 95.2491 42.4588 93.7157 43.0943C92.1883 43.7434 90.5875 44.0555 88.922 44.0555Z" fill="white"/>
<path d="M120.108 27.9059H114.711V35.3552H120.108C120.644 35.3552 121.148 35.2606 121.623 35.0666C122.102 34.8768 122.516 34.6143 122.872 34.2723C123.233 33.9304 123.513 33.5406 123.721 33.0948C123.929 32.655 124.033 32.1641 124.033 31.6287C124.033 31.0986 123.929 30.6093 123.721 30.1701C123.513 29.7237 123.233 29.3362 122.872 28.9904C122.516 28.6555 122.102 28.3832 121.623 28.1951C121.148 27.9999 120.644 27.9059 120.108 27.9059ZM126.843 54.8052L120.82 44.1055H114.98L115.021 54.8052H105.473V20.1836H122.828C123.663 20.1836 124.508 20.3451 125.373 20.6517C126.239 20.9632 127.068 21.3828 127.872 21.8982C128.675 22.4261 129.416 23.0175 130.103 23.6699C130.785 24.3223 131.364 24.9893 131.841 25.6748C132.438 26.5381 132.891 27.5443 133.204 28.6838C133.516 29.8325 133.67 30.923 133.67 31.9657C133.67 33.6912 133.268 35.2981 132.467 36.7828C131.661 38.2696 130.547 39.5222 129.118 40.5322L137.238 54.8052H126.843Z" fill="white"/>
<path d="M149.242 20.1836H139.916V54.8058H149.242V20.1836Z" fill="white"/>
<path d="M180.915 54.8052V37.0046L173.509 49.2287C173.419 49.4086 173.27 49.526 173.068 49.5902C172.857 49.6478 172.677 49.6804 172.528 49.6804C172.35 49.6804 172.155 49.6478 171.946 49.5902C171.739 49.526 171.589 49.4086 171.505 49.2287L164.097 37.0046V54.8052H155.041V20.1836H163.514C163.815 20.1836 164.066 20.3233 164.273 20.5853L172.484 34.2881L180.739 20.5853C180.944 20.3233 181.179 20.1836 181.455 20.1836H189.97V54.8052H180.915Z" fill="white"/>
<path d="M210.536 32.8127L207.769 41.9592H213.262L210.536 32.8127ZM217.634 54.8052L215.846 50.0354H205.188L203.401 54.8052H193.631L206.433 20.1836H214.597L227.401 54.8052H217.634Z" fill="white"/>
<path d="M254.435 28.7496H244.932V54.8052H235.52V28.7496H226.016L225.393 28.1282V20.1836H255.062V28.1282L254.435 28.7496Z" fill="white"/>
<path d="M258.674 54.8052V20.1836H286.293V28.4402H267.686V33.3938H285.221V41.6499H267.686V46.6007H286.293V54.8052H258.674Z" fill="white"/>
<path d="M308.551 36.5604L322.249 54.8052H311.006L301.508 43.1661V54.8052H292V20.1836H301.508V31.8336L311.006 20.1836H322.695L308.551 36.5604Z" fill="white"/>
<path d="M225.393 20.1836H255.062V28.7996H225.393V20.1836Z" fill="white"/>
<defs>
<clipPath id="clip0_5_13775">
<rect width="197" height="173" fill="white" transform="translate(173)"/>
</clipPath>
</defs>
</svg>
