<svg width="250" height="73" viewBox="0 0 250 73" fill="none" xmlns="http://www.w3.org/2000/svg">
<rect width="250" height="73" fill="#0065B2"/>
<path d="M98.4467 58.5222L99.7616 58.7059C99.6167 59.6142 99.2493 60.3226 98.6558 60.8369C98.062 61.3515 97.3306 61.6072 96.4662 61.6072C95.3833 61.6072 94.5115 61.2518 93.8534 60.5405C93.1936 59.8292 92.8652 58.8107 92.8652 57.4858C92.8652 56.6261 93.0077 55.8765 93.2906 55.2318C93.573 54.5899 94.0041 54.106 94.5852 53.7863C95.1638 53.4637 95.7933 53.3028 96.4762 53.3028C97.3351 53.3028 98.0413 53.5202 98.5863 53.958C99.1346 54.3953 99.4862 55.0168 99.6394 55.82L98.3399 56.02C98.2148 55.4853 97.9953 55.0833 97.6768 54.8123C97.3608 54.5437 96.9785 54.4078 96.5296 54.4078C95.8517 54.4078 95.3012 54.651 94.8755 55.137C94.4527 55.6259 94.2414 56.3933 94.2414 57.4471C94.2414 58.5167 94.4452 59.2921 94.8527 59.7751C95.2636 60.259 95.7957 60.5022 96.4509 60.5022C96.9806 60.5022 97.4221 60.3409 97.7737 60.0158C98.1278 59.6936 98.3523 59.1948 98.4467 58.5222ZM100.992 57.455C100.992 55.9842 101.4 54.8942 102.218 54.1858C102.899 53.5972 103.732 53.3028 104.714 53.3028C105.802 53.3028 106.694 53.6612 107.387 54.377C108.078 55.0908 108.424 56.0815 108.424 57.3424C108.424 58.3659 108.271 59.169 107.965 59.7552C107.659 60.3409 107.214 60.7965 106.627 61.1212C106.044 61.4459 105.404 61.6072 104.714 61.6072C103.602 61.6072 102.705 61.2517 102.019 60.538C101.334 59.8242 100.992 58.7957 100.992 57.455ZM102.368 57.4575C102.368 58.476 102.59 59.238 103.034 59.7423C103.48 60.2486 104.038 60.5022 104.714 60.5022C105.381 60.5022 105.937 60.2486 106.383 59.7394C106.826 59.2305 107.048 58.4552 107.048 57.4143C107.048 56.4315 106.824 55.6874 106.378 55.1827C105.932 54.6764 105.376 54.4232 104.714 54.4232C104.038 54.4232 103.48 54.6739 103.034 55.1781C102.59 55.682 102.368 56.4419 102.368 57.4575ZM115.775 60.4407C115.275 60.868 114.794 61.167 114.332 61.3436C113.87 61.5199 113.376 61.6072 112.846 61.6072C111.974 61.6072 111.304 61.3952 110.836 60.9678C110.366 60.5429 110.132 59.9984 110.132 59.3353C110.132 58.9466 110.221 58.5912 110.397 58.269C110.575 57.9464 110.807 57.6903 111.093 57.4962C111.381 57.3016 111.702 57.1528 112.061 57.0534C112.326 56.9844 112.726 56.9175 113.259 56.8514C114.345 56.7234 115.148 56.5675 115.66 56.3883C115.665 56.2041 115.668 56.0861 115.668 56.0378C115.668 55.4903 115.54 55.1041 115.285 54.8784C114.941 54.5745 114.429 54.4232 113.751 54.4232C113.116 54.4232 112.647 54.5359 112.347 54.7583C112.044 54.9811 111.822 55.3752 111.676 55.9431L110.361 55.7585C110.481 55.1931 110.677 54.7354 110.952 54.3874C111.228 54.0395 111.625 53.7734 112.145 53.5839C112.663 53.3972 113.267 53.3028 113.95 53.3028C114.628 53.3028 115.181 53.3822 115.606 53.5435C116.029 53.7044 116.343 53.904 116.542 54.1467C116.741 54.3899 116.881 54.6972 116.962 55.068C117.006 55.2983 117.029 55.7127 117.029 56.3089V58.0998C117.029 59.3507 117.057 60.1414 117.113 60.4769C117.167 60.8115 117.278 61.1312 117.442 61.4384H116.035C115.9 61.1541 115.813 60.8215 115.775 60.4407ZM115.668 57.4471C115.178 57.6467 114.444 57.8158 113.466 57.9539C112.91 58.0333 112.518 58.1226 112.288 58.2224C112.058 58.3222 111.883 58.4681 111.758 58.6577C111.633 58.8493 111.569 59.0618 111.569 59.2971C111.569 59.6525 111.704 59.9522 111.977 60.19C112.25 60.4278 112.647 60.548 113.17 60.548C113.687 60.548 114.149 60.4353 114.554 60.2079C114.956 59.9826 115.255 59.6733 115.443 59.2817C115.588 58.9774 115.66 58.5297 115.66 57.9389L115.668 57.4471ZM122.605 60.2337L122.788 61.4255C122.411 61.5053 122.072 61.5461 121.776 61.5461C121.29 61.5461 120.913 61.4692 120.642 61.3129C120.375 61.157 120.187 60.9549 120.077 60.7013C119.967 60.4482 119.914 59.9165 119.914 59.105V54.5155H118.92V53.4712H119.914V51.502L121.259 50.6905V53.4712H122.605V54.5155H121.259V59.1819C121.259 59.5681 121.282 59.8167 121.33 59.9264C121.376 60.0366 121.453 60.1235 121.56 60.19C121.667 60.254 121.82 60.2869 122.018 60.2869C122.167 60.2869 122.363 60.2694 122.605 60.2337ZM124.521 51.9825V50.4473H125.867V51.9825H124.521ZM124.521 61.4384V53.4712H125.867V61.4384H124.521ZM128.508 61.4384V53.4712H129.716V54.6024C130.297 53.7352 131.138 53.3028 132.237 53.3028C132.715 53.3028 133.154 53.3897 133.554 53.561C133.954 53.7327 134.255 53.9601 134.454 54.2394C134.652 54.5184 134.792 54.8505 134.872 55.2342C134.92 55.4853 134.946 55.9227 134.946 56.5471V61.4384H133.6V56.5978C133.6 56.0478 133.549 55.6358 133.444 55.3648C133.34 55.0937 133.154 54.8759 132.889 54.7125C132.624 54.5512 132.31 54.4693 131.953 54.4693C131.383 54.4693 130.89 54.651 130.475 55.0168C130.059 55.3802 129.853 56.0736 129.853 57.0917V61.4384H128.508ZM137.354 62.0986L138.654 62.2827C138.707 62.6872 138.86 62.9811 139.11 63.1678C139.444 63.416 139.9 63.5415 140.479 63.5415C141.1 63.5415 141.582 63.416 141.921 63.1678C142.26 62.9196 142.49 62.5692 142.609 62.1214C142.678 61.8475 142.711 61.2725 142.706 60.3946C142.117 61.0905 141.386 61.4384 140.509 61.4384C139.418 61.4384 138.572 61.0443 137.975 60.254C137.377 59.4663 137.078 58.5193 137.078 57.4164C137.078 56.6573 137.216 55.9555 137.489 55.3141C137.762 54.6714 138.159 54.1779 138.679 53.827C139.199 53.4766 139.811 53.3028 140.515 53.3028C141.45 53.3028 142.222 53.6865 142.828 54.4539V53.4712H144.067V60.3509C144.067 61.5918 143.942 62.4698 143.69 62.9861C143.44 63.5029 143.04 63.9123 142.498 64.2121C141.951 64.511 141.282 64.6619 140.486 64.6619C139.541 64.6619 138.778 64.4494 138.197 64.0225C137.614 63.5976 137.333 62.9558 137.354 62.0986ZM138.455 57.3195C138.455 58.3609 138.661 59.1208 139.074 59.5989C139.49 60.0774 140.007 60.3181 140.629 60.3181C141.248 60.3181 141.766 60.0798 142.186 59.6038C142.604 59.1283 142.814 58.3808 142.814 57.3631C142.814 56.3908 142.597 55.6562 142.166 55.1627C141.735 54.6685 141.215 54.4232 140.609 54.4232C140.01 54.4232 139.502 54.6664 139.082 55.1524C138.664 55.6383 138.455 56.36 138.455 57.3195ZM150.944 51.9825V50.4473H152.289V51.9825H150.944ZM150.944 61.4384V53.4712H152.289V61.4384H150.944ZM154.929 61.4384V53.4712H156.138V54.6024C156.719 53.7352 157.56 53.3028 158.658 53.3028C159.138 53.3028 159.576 53.3897 159.976 53.561C160.376 53.7327 160.677 53.9601 160.876 54.2394C161.075 54.5184 161.215 54.8505 161.294 55.2342C161.343 55.4853 161.368 55.9227 161.368 56.5471V61.4384H160.022V56.5978C160.022 56.0478 159.971 55.6358 159.866 55.3648C159.762 55.0937 159.576 54.8759 159.311 54.7125C159.046 54.5512 158.732 54.4693 158.376 54.4693C157.804 54.4693 157.312 54.651 156.897 55.0168C156.482 55.3802 156.275 56.0736 156.275 57.0917V61.4384H154.929ZM164.023 61.4384V53.4712H165.231V54.6024C165.812 53.7352 166.654 53.3028 167.752 53.3028C168.231 53.3028 168.67 53.3897 169.07 53.561C169.47 53.7327 169.771 53.9601 169.969 54.2394C170.168 54.5184 170.308 54.8505 170.387 55.2342C170.436 55.4853 170.461 55.9227 170.461 56.5471V61.4384H169.116V56.5978C169.116 56.0478 169.065 55.6358 168.96 55.3648C168.856 55.0937 168.67 54.8759 168.405 54.7125C168.14 54.5512 167.826 54.4693 167.469 54.4693C166.898 54.4693 166.406 54.651 165.99 55.0168C165.575 55.3802 165.369 56.0736 165.369 57.0917V61.4384H164.023ZM172.612 57.455C172.612 55.9842 173.02 54.8942 173.838 54.1858C174.519 53.5972 175.352 53.3028 176.333 53.3028C177.421 53.3028 178.314 53.6612 179.007 54.377C179.698 55.0908 180.045 56.0815 180.045 57.3424C180.045 58.3659 179.891 59.169 179.585 59.7552C179.279 60.3409 178.834 60.7965 178.247 61.1212C177.664 61.4459 177.024 61.6072 176.333 61.6072C175.222 61.6072 174.325 61.2517 173.639 60.538C172.954 59.8242 172.612 58.7957 172.612 57.455ZM173.988 57.4575C173.988 58.476 174.21 59.238 174.654 59.7423C175.1 60.2486 175.658 60.5022 176.333 60.5022C177.001 60.5022 177.557 60.2486 178.003 59.7394C178.446 59.2305 178.668 58.4552 178.668 57.4143C178.668 56.4315 178.444 55.6874 177.998 55.1827C177.552 54.6764 176.996 54.4232 176.333 54.4232C175.658 54.4232 175.1 54.6739 174.654 55.1781C174.21 55.682 173.988 56.4419 173.988 57.4575ZM184.38 61.4384L181.385 53.4712H182.825L184.522 58.2428C184.706 58.7574 184.876 59.2921 185.032 59.847C185.152 59.4276 185.318 58.9237 185.534 58.3326L187.298 53.4712H188.679L185.674 61.4384H184.38ZM195.629 60.4407C195.13 60.868 194.648 61.167 194.186 61.3436C193.725 61.5199 193.231 61.6072 192.701 61.6072C191.829 61.6072 191.159 61.3952 190.689 60.9678C190.221 60.5429 189.986 59.9984 189.986 59.3353C189.986 58.9466 190.075 58.5912 190.251 58.269C190.43 57.9464 190.662 57.6903 190.947 57.4962C191.235 57.3016 191.556 57.1528 191.916 57.0534C192.18 56.9844 192.581 56.9175 193.113 56.8514C194.199 56.7234 195.002 56.5675 195.514 56.3883C195.52 56.2041 195.522 56.0861 195.522 56.0378C195.522 55.4903 195.395 55.1041 195.139 54.8784C194.795 54.5745 194.283 54.4232 193.605 54.4232C192.971 54.4232 192.502 54.5359 192.201 54.7583C191.898 54.9811 191.676 55.3752 191.531 55.9431L190.216 55.7585C190.335 55.1931 190.532 54.7354 190.807 54.3874C191.082 54.0395 191.48 53.7734 191.999 53.5839C192.517 53.3972 193.121 53.3028 193.804 53.3028C194.482 53.3028 195.035 53.3822 195.461 53.5435C195.884 53.7044 196.198 53.904 196.396 54.1467C196.595 54.3899 196.735 54.6972 196.817 55.068C196.86 55.2983 196.883 55.7127 196.883 56.3089V58.0998C196.883 59.3507 196.912 60.1414 196.967 60.4769C197.021 60.8115 197.133 61.1312 197.296 61.4384H195.889C195.754 61.1541 195.668 60.8215 195.629 60.4407ZM195.522 57.4471C195.033 57.6467 194.298 57.8158 193.32 57.9539C192.764 58.0333 192.372 58.1226 192.143 58.2224C191.913 58.3222 191.737 58.4681 191.612 58.6577C191.487 58.8493 191.424 59.0618 191.424 59.2971C191.424 59.6525 191.559 59.9522 191.831 60.19C192.104 60.4278 192.502 60.548 193.024 60.548C193.541 60.548 194.003 60.4353 194.408 60.2079C194.811 59.9826 195.109 59.6733 195.298 59.2817C195.443 58.9774 195.514 58.5297 195.514 57.9389L195.522 57.4471ZM202.46 60.2337L202.643 61.4255C202.266 61.5053 201.927 61.5461 201.631 61.5461C201.144 61.5461 200.767 61.4692 200.497 61.3129C200.229 61.157 200.041 60.9549 199.931 60.7013C199.822 60.4482 199.768 59.9165 199.768 59.105V54.5155H198.774V53.4712H199.768V51.502L201.114 50.6905V53.4712H202.46V54.5155H201.114V59.1819C201.114 59.5681 201.137 59.8167 201.185 59.9264C201.231 60.0366 201.308 60.1235 201.415 60.19C201.521 60.254 201.674 60.2869 201.873 60.2869C202.021 60.2869 202.218 60.2694 202.46 60.2337ZM204.376 51.9825V50.4473H205.721V51.9825H204.376ZM204.376 61.4384V53.4712H205.721V61.4384H204.376ZM207.858 57.455C207.858 55.9842 208.265 54.8942 209.083 54.1858C209.764 53.5972 210.597 53.3028 211.579 53.3028C212.667 53.3028 213.559 53.6612 214.252 54.377C214.943 55.0908 215.289 56.0815 215.289 57.3424C215.289 58.3659 215.137 59.169 214.831 59.7552C214.524 60.3409 214.079 60.7965 213.492 61.1212C212.909 61.4459 212.269 61.6072 211.579 61.6072C210.467 61.6072 209.57 61.2517 208.885 60.538C208.199 59.8242 207.858 58.7957 207.858 57.455ZM209.233 57.4575C209.233 58.476 209.455 59.238 209.899 59.7423C210.345 60.2486 210.903 60.5022 211.579 60.5022C212.246 60.5022 212.802 60.2486 213.248 59.7394C213.692 59.2305 213.913 58.4552 213.913 57.4143C213.913 56.4315 213.689 55.6874 213.243 55.1827C212.797 54.6764 212.241 54.4232 211.579 54.4232C210.903 54.4232 210.345 54.6739 209.899 55.1781C209.455 55.682 209.233 56.4419 209.233 57.4575ZM217.456 61.4384V53.4712H218.664V54.6024C219.245 53.7352 220.086 53.3028 221.185 53.3028C221.664 53.3028 222.102 53.3897 222.502 53.561C222.902 53.7327 223.203 53.9601 223.402 54.2394C223.601 54.5184 223.741 54.8505 223.82 55.2342C223.868 55.4853 223.894 55.9227 223.894 56.5471V61.4384H222.548V56.5978C222.548 56.0478 222.497 55.6358 222.392 55.3648C222.288 55.0937 222.102 54.8759 221.837 54.7125C221.572 54.5512 221.258 54.4693 220.902 54.4693C220.331 54.4693 219.838 54.651 219.423 55.0168C219.008 55.3802 218.801 56.0736 218.801 57.0917V61.4384H217.456Z" fill="white"/>
<path d="M19.4907 27.208C18.2669 27.208 17.2713 28.2086 17.2713 29.44C17.2713 30.6622 18.2657 31.6658 19.4907 31.6678C20.7166 31.6678 21.711 30.6697 21.711 29.44C21.711 28.2086 20.7166 27.208 19.4907 27.208Z" fill="white"/>
<path d="M26.3055 36.7139C24.824 36.7139 23.6201 37.9211 23.6201 39.4073C23.6201 40.8881 24.824 42.0982 26.3055 42.0982C27.7831 42.0982 28.9883 40.8881 28.9883 39.4073C28.9883 37.9211 27.7831 36.7139 26.3055 36.7139Z" fill="white"/>
<path d="M19.4907 37.1768C18.2669 37.1768 17.2713 38.1749 17.2713 39.4012C17.2713 40.6318 18.2669 41.6353 19.4907 41.6353C20.7166 41.6353 21.7109 40.638 21.7109 39.4075C21.7109 38.1749 20.7166 37.1768 19.4907 37.1768Z" fill="white"/>
<path d="M34.1555 36.1318C32.356 36.1318 30.8953 37.5993 30.8953 39.4073C30.8953 41.2107 32.356 42.6748 34.1555 42.6748C35.9545 42.6748 37.416 41.2107 37.416 39.4073C37.416 37.5993 35.9582 36.1318 34.1555 36.1318Z" fill="white"/>
<path d="M26.3055 26.7471C24.824 26.7471 23.6201 27.9543 23.6201 29.4397C23.6201 30.9271 24.824 32.1339 26.3055 32.1339C27.7831 32.1339 28.9883 30.9271 28.9883 29.4397C28.9883 27.9543 27.7831 26.7471 26.3055 26.7471Z" fill="white"/>
<path d="M19.4907 17.2422C18.2669 17.2422 17.2713 18.2453 17.2713 19.4708C17.2713 20.7009 18.2657 21.7003 19.4907 21.7053C20.7166 21.7053 21.711 20.7009 21.711 19.4708C21.711 18.2453 20.7166 17.2422 19.4907 17.2422Z" fill="white"/>
<path d="M34.1551 22.7444C35.9538 22.7444 37.4153 21.2798 37.4153 19.4706C37.4153 17.666 35.9538 16.1997 34.1551 16.1997C32.3552 16.1997 30.8945 17.666 30.8945 19.4706C30.8945 21.2798 32.3552 22.7444 34.1551 22.7444Z" fill="white"/>
<path d="M26.3054 16.7837C24.824 16.7837 23.6201 17.9876 23.6201 19.4709C23.6201 20.9579 24.824 22.1652 26.3054 22.1652C27.7831 22.1652 28.9883 20.9579 28.9883 19.4709C28.9883 17.9876 27.7868 16.7837 26.3054 16.7837Z" fill="white"/>
<path d="M34.1559 32.7122C32.3553 32.7122 30.8957 31.2472 30.8957 29.4401C30.8957 27.633 32.3553 26.168 34.1559 26.168C35.9564 26.168 37.416 27.633 37.416 29.4401C37.416 31.2472 35.9564 32.7122 34.1559 32.7122Z" fill="white" stroke="white" stroke-width="0.000261308" stroke-miterlimit="10"/>
<path d="M53.2904 22.105H49.1758V27.8015H53.2904C53.6958 27.8015 54.0814 27.7292 54.4442 27.5808C54.8061 27.4357 55.1263 27.2349 55.398 26.9734C55.6655 26.7119 55.8825 26.4139 56.0428 26.073C56.1998 25.7367 56.2805 25.3613 56.2805 24.9518C56.2805 24.5465 56.1998 24.1723 56.0428 23.8364C55.8825 23.4951 55.6655 23.1987 55.398 22.9343C55.1263 22.6782 54.8061 22.47 54.4442 22.3261C54.0814 22.1769 53.6958 22.105 53.2904 22.105ZM53.7977 34.4547H49.0068V42.6751H41.9336V16.1997H53.7977C55.0666 16.1997 56.2863 16.4184 57.4501 16.8495C58.6184 17.2814 59.6509 17.8875 60.5471 18.6574C61.4387 19.4315 62.1548 20.3639 62.687 21.4569C63.2192 22.5473 63.4867 23.7383 63.4867 25.0395C63.4867 26.3594 63.2192 27.5862 62.687 28.7232C62.1548 29.8618 61.4387 30.8579 60.5471 31.7059C59.6509 32.5636 58.6184 33.2337 57.4501 33.7197C56.2863 34.2161 55.0666 34.4547 53.7977 34.4547Z" fill="white"/>
<path d="M77.5587 22.105H73.4462V27.8015H77.5587C77.9667 27.8015 78.351 27.7292 78.7126 27.5808C79.0774 27.4357 79.3934 27.2349 79.6647 26.9734C79.9393 26.7119 80.153 26.4139 80.3112 26.073C80.4694 25.7367 80.5493 25.3613 80.5493 24.9518C80.5493 24.5465 80.4694 24.1723 80.3112 23.8364C80.153 23.4951 79.9393 23.1987 79.6647 22.9343C79.3934 22.6782 79.0774 22.47 78.7126 22.3261C78.351 22.1769 77.9667 22.105 77.5587 22.105ZM82.6896 42.6751L78.1013 34.4929H73.6517L73.6823 42.6751H66.4082V16.1997H79.6311C80.2673 16.1997 80.9109 16.3232 81.5698 16.5576C82.2295 16.7959 82.8611 17.1168 83.474 17.5109C84.0857 17.9145 84.6506 18.3668 85.1737 18.8657C85.6935 19.3646 86.1345 19.8746 86.4977 20.3989C86.9525 21.059 87.2983 21.8285 87.5364 22.6998C87.7737 23.5783 87.8913 24.4122 87.8913 25.2096C87.8913 26.529 87.5853 27.7579 86.9748 28.8932C86.3606 30.0302 85.5116 30.988 84.4233 31.7604L90.6102 42.6751H82.6896Z" fill="white"/>
<path d="M99.7555 16.1997H92.6504V42.6755H99.7555V16.1997Z" fill="white"/>
<path d="M123.888 42.6751V29.0628L118.245 38.4106C118.176 38.5482 118.063 38.638 117.909 38.6871C117.748 38.7311 117.611 38.7561 117.498 38.7561C117.362 38.7561 117.214 38.7311 117.054 38.6871C116.896 38.638 116.782 38.5482 116.718 38.4106L111.074 29.0628V42.6751H104.174V16.1997H110.63C110.859 16.1997 111.05 16.3066 111.208 16.5069L117.464 26.9855L123.754 16.5069C123.91 16.3066 124.089 16.1997 124.299 16.1997H130.787V42.6751H123.888Z" fill="white"/>
<path d="M146.456 25.8572L144.348 32.8517H148.533L146.456 25.8572ZM151.864 42.6751L150.502 39.0275H142.381L141.02 42.6751H133.576L143.33 16.1997H149.55L159.305 42.6751H151.864Z" fill="white"/>
<path d="M179.902 22.7502H172.662V42.6751H165.491V22.7502H158.25L157.775 22.275V16.1997H180.38V22.275L179.902 22.7502Z" fill="white"/>
<path d="M183.133 42.6751V16.1997H204.176V22.5136H189.999V26.3016H203.359V32.6151H189.999V36.401H204.176V42.6751H183.133Z" fill="white"/>
<path d="M221.134 28.7232L231.571 42.6751H223.005L215.768 33.7746V42.6751H208.523V16.1997H215.768V25.1085L223.005 16.1997H231.911L221.134 28.7232Z" fill="white"/>
<path d="M157.776 16.1997H180.381V22.7884H157.776V16.1997Z" fill="white"/>
</svg>
